<?xml version="1.0" standalone="no"?>
<!DOCTYPE svg PUBLIC "-//W3C//DTD SVG 1.1//EN" "http://www.w3.org/Graphics/SVG/1.1/DTD/svg11.dtd" >
<svg xmlns="http://www.w3.org/2000/svg" xmlns:xlink="http://www.w3.org/1999/xlink" version="1.1">
<metadata>
Created by FontForge 20201107 at Wed Nov 26 05:51:26 2025
 By 
Copyright Baldionlyfont 2025
"Minecraft Seven, which is based on "Mojangle, which is based on "Minecraftia 2.0, which is based on "Minecraft Font" by "maneirinho" (https://fontstruct.com/fontstructors/show/2353761/maneirinho)
</metadata>
<defs>
<font id="MinecraftSeven2" horiz-adv-x="3072" >
  <font-face 
    font-family="Minecraft Seven 2"
    font-weight="400"
    font-stretch="normal"
    units-per-em="2048"
    panose-1="0 0 4 0 0 0 0 0 0 0"
    ascent="1638"
    descent="-410"
    x-height="2560"
    cap-height="3584"
    bbox="-6144 -1536 4608 5120"
    underline-thickness="204"
    underline-position="307"
    unicode-range="U+0020-FB06"
  />
<missing-glyph horiz-adv-x="3268" 
d="M2615 102h-2474l1237 1651zM102 141v3302l1237 -1651zM2654 141l-1237 1651l1237 1651v-3302zM1378 1831l-1237 1651h2474zM0 0h2757v3584h-2757v-3584z" />
    <glyph glyph-name=".notdef" horiz-adv-x="3268" 
d="M2615 102h-2474l1237 1651zM102 141v3302l1237 -1651zM2654 141l-1237 1651l1237 1651v-3302zM1378 1831l-1237 1651h2474zM0 0h2757v3584h-2757v-3584z" />
    <glyph glyph-name=".null" horiz-adv-x="0" 
 />
    <glyph glyph-name="nonmarkingreturn" horiz-adv-x="682" 
 />
    <glyph glyph-name="space" unicode=" " horiz-adv-x="1536" 
 />
    <glyph glyph-name="exclam" unicode="!" horiz-adv-x="1024" 
d="M0 0h512v512h-512v-512zM0 1024h512v2560h-512v-2560z" />
    <glyph glyph-name="quotedbl" unicode="&#x22;" horiz-adv-x="2048" 
d="M0 2560h512v1024h-512v-1024zM1024 2560h512v1024h-512v-1024z" />
    <glyph glyph-name="numbersign" unicode="#" 
d="M1536 1536h-512v512h512v-512zM512 0h512v1024h512v-1024h512v1024h512v512h-512v512h512v512h-512v1024h-512v-1024h-512v1024h-512v-1024h-512v-512h512v-512h-512v-512h512v-1024z" />
    <glyph glyph-name="dollar" unicode="$" 
d="M1024 0h512v512h512v512h-2048v-512h1024v-512zM2048 1024h512v512h-512v-512zM512 1536h1536v512h-1536v-512zM0 2048h512v512h-512v-512zM512 2560h2048v512h-1024v512h-512v-512h-512v-512z" />
    <glyph glyph-name="percent" unicode="%" 
d="M0 0h512v512h-512v-512zM2048 0h512v1024h-512v-1024zM512 512h512v1024h-512v-1024zM1024 1536h512v512h-512v-512zM1536 2048h512v1024h-512v-1024zM0 2560h512v1024h-512v-1024zM2048 3072h512v512h-512v-512z" />
    <glyph glyph-name="ampersand" unicode="&#x26;" 
d="M512 0h1024v512h-1024v-512zM2048 0h512v512h-512v-512zM0 512h512v1024h-512v-1024zM2048 1536h512v512h-512v-512zM1536 512h512v1024h-512v1024h-512v-512h-512v-512h512v-512h512v-512zM512 2560h512v512h-512v-512zM1536 2560h512v512h-512v-512zM1024 3072h512v512
h-512v-512z" />
    <glyph glyph-name="quotesingle" unicode="'" horiz-adv-x="1024" 
d="M0 2560h512v1024h-512v-1024z" />
    <glyph glyph-name="parenleft" unicode="(" horiz-adv-x="2048" 
d="M1024 0h512v512h-512v-512zM512 512h512v512h-512v-512zM0 1024h512v1536h-512v-1536zM512 2560h512v512h-512v-512zM1024 3072h512v512h-512v-512z" />
    <glyph glyph-name="parenright" unicode=")" horiz-adv-x="2048" 
d="M0 0h512v512h-512v-512zM512 512h512v512h-512v-512zM1024 1024h512v1536h-512v-1536zM512 2560h512v512h-512v-512zM0 3072h512v512h-512v-512z" />
    <glyph glyph-name="asterisk" unicode="*" horiz-adv-x="2048" 
d="M0 2048h512v512h-512v-512zM1024 2048h512v512h-512v-512zM512 2560h512v512h-512v-512zM0 3072h512v512h-512v-512zM1024 3072h512v512h-512v-512z" />
    <glyph glyph-name="plus" unicode="+" 
d="M1024 512h512v1024h1024v512h-1024v1024h-512v-1024h-1024v-512h1024v-1024z" />
    <glyph glyph-name="comma" unicode="," horiz-adv-x="1024" 
d="M0 -512h512v1024h-512v-1024z" />
    <glyph glyph-name="hyphen" unicode="-" 
d="M0 1536h2560v512h-2560v-512z" />
    <glyph glyph-name="period" unicode="." horiz-adv-x="1024" 
d="M0 0h512v512h-512v-512z" />
    <glyph glyph-name="slash" unicode="/" 
d="M0 0h512v512h-512v-512zM512 512h512v1024h-512v-1024zM1024 1536h512v512h-512v-512zM1536 2048h512v1024h-512v-1024zM2048 3072h512v512h-512v-512z" />
    <glyph glyph-name="zero" unicode="0" 
d="M512 0h1536v512h-1536v-512zM1024 1536h512v512h-512v-512zM0 512h512v512h512v512h-512v1536h-512v-2560zM2048 512h512v2560h-512v-512h-512v-512h512v-1536zM512 3072h1536v512h-1536v-512z" />
    <glyph glyph-name="one" unicode="1" 
d="M0 0h2560v512h-1024v3072h-512v-512h-512v-512h512v-2048h-1024v-512z" />
    <glyph glyph-name="two" unicode="2" 
d="M0 0h2560v1024h-512v-512h-1536v512h-512v-1024zM512 1024h512v512h-512v-512zM1024 1536h1024v512h-1024v-512zM0 2560h512v512h-512v-512zM2048 2048h512v1024h-512v-1024zM512 3072h1536v512h-1536v-512z" />
    <glyph glyph-name="three" unicode="3" 
d="M512 0h1536v512h-1536v-512zM0 512h512v512h-512v-512zM2048 512h512v1024h-512v-1024zM1024 1536h1024v512h-1024v-512zM0 2560h512v512h-512v-512zM2048 2048h512v1024h-512v-1024zM512 3072h1536v512h-1536v-512z" />
    <glyph glyph-name="four" unicode="4" 
d="M512 2048h512v512h-512v-512zM1024 2560h512v512h-512v-512zM2048 0h512v3584h-1024v-512h512v-1536h-1536v512h-512v-1024h2048v-1024z" />
    <glyph glyph-name="five" unicode="5" 
d="M512 0h1536v512h-1536v-512zM0 512h512v512h-512v-512zM2048 512h512v1536h-512v-1536zM0 2048h2048v512h-1536v512h2048v512h-2560v-1536z" />
    <glyph glyph-name="six" unicode="6" 
d="M512 0h1536v512h-1536v-512zM2048 512h512v1024h-512v-1024zM0 512h512v1024h1536v512h-1536v512h-512v-2048zM512 2560h512v512h-512v-512zM1024 3072h1024v512h-1024v-512z" />
    <glyph glyph-name="seven" unicode="7" 
d="M1024 0h512v1536h-512v-1536zM1536 1536h512v512h-512v-512zM2048 2048h512v1536h-2560v-1024h512v512h1536v-1024z" />
    <glyph glyph-name="eight" unicode="8" 
d="M512 0h1536v512h-1536v-512zM0 512h512v1024h-512v-1024zM2048 512h512v1024h-512v-1024zM512 1536h1536v512h-1536v-512zM0 2048h512v1024h-512v-1024zM2048 2048h512v1024h-512v-1024zM512 3072h1536v512h-1536v-512z" />
    <glyph glyph-name="nine" unicode="9" 
d="M512 0h1024v512h-1024v-512zM1536 512h512v512h-512v-512zM0 2048h512v1024h-512v-1024zM2048 1024h512v2048h-512v-1024h-1536v-512h1536v-512zM512 3072h1536v512h-1536v-512z" />
    <glyph glyph-name="colon" unicode=":" horiz-adv-x="1024" 
d="M0 0h512v512h-512v-512zM0 2048h512v512h-512v-512z" />
    <glyph glyph-name="semicolon" unicode=";" horiz-adv-x="1024" 
d="M0 -512h512v1024h-512v-1024zM0 2048h512v512h-512v-512z" />
    <glyph glyph-name="less" unicode="&#x3c;" horiz-adv-x="2560" 
d="M1536 0h512v512h-512v-512zM1024 512h512v512h-512v-512zM512 1024h512v512h-512v-512zM0 1536h512v512h-512v-512zM512 2048h512v512h-512v-512zM1024 2560h512v512h-512v-512zM1536 3072h512v512h-512v-512z" />
    <glyph glyph-name="equal" unicode="=" 
d="M0 512h2560v512h-2560v-512zM0 2048h2560v512h-2560v-512z" />
    <glyph glyph-name="greater" unicode="&#x3e;" horiz-adv-x="2560" 
d="M0 0h512v512h-512v-512zM512 512h512v512h-512v-512zM1024 1024h512v512h-512v-512zM1536 1536h512v512h-512v-512zM1024 2048h512v512h-512v-512zM512 2560h512v512h-512v-512zM0 3072h512v512h-512v-512z" />
    <glyph glyph-name="question" unicode="?" 
d="M1024 0h512v512h-512v-512zM1024 1024h512v512h-512v-512zM1536 1536h512v512h-512v-512zM0 2560h512v512h-512v-512zM2048 2048h512v1024h-512v-1024zM512 3072h1536v512h-1536v-512z" />
    <glyph glyph-name="at" unicode="@" horiz-adv-x="3584" 
d="M512 -512h2048v512h-2048v-512zM0 0h512v2560h-512v-2560zM1024 512h2048v2048h-512v-1536h-1024v512h512v512h-1024v-1536zM512 2560h2048v512h-2048v-512z" />
    <glyph glyph-name="A" unicode="A" 
d="M0 0h512v2048h1536v-2048h512v3072h-512v-512h-1536v512h-512v-3072zM512 3072h1536v512h-1536v-512z" />
    <glyph glyph-name="B" unicode="B" 
d="M2048 512h512v1536h-512v-1536zM2048 2560h512v512h-512v-512zM0 0h2048v512h-1536v1536h1536v512h-1536v512h1536v512h-2048v-3584z" />
    <glyph glyph-name="C" unicode="C" 
d="M512 0h1536v512h-1536v-512zM2048 512h512v512h-512v-512zM0 512h512v2560h-512v-2560zM2048 2560h512v512h-512v-512zM512 3072h1536v512h-1536v-512z" />
    <glyph glyph-name="D" unicode="D" 
d="M2048 512h512v2560h-512v-2560zM0 0h2048v512h-1536v2560h1536v512h-2048v-3584z" />
    <glyph glyph-name="E" unicode="E" 
d="M0 0h2560v512h-2048v1536h1024v512h-1024v512h2048v512h-2560v-3584z" />
    <glyph glyph-name="F" unicode="F" 
d="M0 0h512v2048h1024v512h-1024v512h2048v512h-2560v-3584z" />
    <glyph glyph-name="G" unicode="G" 
d="M512 0h1536v512h-1536v-512zM2048 512h512v2048h-1024v-512h512v-1536zM0 512h512v2560h-512v-2560zM512 3072h2048v512h-2048v-512z" />
    <glyph glyph-name="H" unicode="H" 
d="M0 0h512v2048h1536v-2048h512v3584h-512v-1024h-1536v1024h-512v-3584z" />
    <glyph glyph-name="I" unicode="I" horiz-adv-x="2048" 
d="M0 0h1536v512h-512v2560h512v512h-1536v-512h512v-2560h-512v-512z" />
    <glyph glyph-name="J" unicode="J" 
d="M512 0h1536v512h-1536v-512zM0 512h512v512h-512v-512zM2048 512h512v3072h-512v-3072z" />
    <glyph glyph-name="K" unicode="K" 
d="M2048 0h512v1536h-512v-1536zM1536 1536h512v512h-512v-512zM1536 2560h512v512h-512v-512zM0 0h512v2048h1024v512h-1024v1024h-512v-3584zM2048 3072h512v512h-512v-512z" />
    <glyph glyph-name="L" unicode="L" 
d="M0 0h2560v512h-2048v3072h-512v-3584z" />
    <glyph glyph-name="M" unicode="M" 
d="M1024 2048h512v512h-512v-512zM0 0h512v2560h512v512h-512v512h-512v-3584zM2048 0h512v3584h-512v-512h-512v-512h512v-2560z" />
    <glyph glyph-name="N" unicode="N" 
d="M1024 2048h512v512h-512v-512zM0 0h512v2560h512v512h-512v512h-512v-3584zM2048 0h512v3584h-512v-1536h-512v-512h512v-1536z" />
    <glyph glyph-name="O" unicode="O" 
d="M512 0h1536v512h-1536v-512zM0 512h512v2560h-512v-2560zM2048 512h512v2560h-512v-2560zM512 3072h1536v512h-1536v-512z" />
    <glyph glyph-name="P" unicode="P" 
d="M2048 2560h512v512h-512v-512zM0 0h512v2048h1536v512h-1536v512h1536v512h-2048v-3584z" />
    <glyph glyph-name="Q" unicode="Q" 
d="M512 0h1024v512h-1024v-512zM2048 0h512v512h-512v-512zM1536 512h512v512h-512v-512zM0 512h512v2560h-512v-2560zM2048 1024h512v2048h-512v-2048zM512 3072h1536v512h-1536v-512z" />
    <glyph glyph-name="R" unicode="R" 
d="M2048 0h512v2048h-512v-2048zM2048 2560h512v512h-512v-512zM0 0h512v2048h1536v512h-1536v512h1536v512h-2048v-3584z" />
    <glyph glyph-name="S" unicode="S" 
d="M512 0h1536v512h-1536v-512zM0 512h512v512h-512v-512zM2048 512h512v1536h-512v-1536zM512 2048h1536v512h-1536v-512zM0 2560h512v512h-512v-512zM512 3072h2048v512h-2048v-512z" />
    <glyph glyph-name="T" unicode="T" 
d="M1024 0h512v3072h1024v512h-2560v-512h1024v-3072z" />
    <glyph glyph-name="U" unicode="U" 
d="M512 0h1536v512h-1536v-512zM0 512h512v3072h-512v-3072zM2048 512h512v3072h-512v-3072z" />
    <glyph glyph-name="V" unicode="V" 
d="M1024 0h512v512h-512v-512zM512 512h512v1024h-512v-1024zM1536 512h512v1024h-512v-1024zM0 1536h512v2048h-512v-2048zM2048 1536h512v2048h-512v-2048z" />
    <glyph glyph-name="W" unicode="W" 
d="M1024 1024h512v512h-512v-512zM0 0h512v512h512v512h-512v2560h-512v-3584zM2048 0h512v3584h-512v-2560h-512v-512h512v-512z" />
    <glyph glyph-name="X" unicode="X" 
d="M0 0h512v1536h-512v-1536zM2048 0h512v1536h-512v-1536zM512 1536h512v512h-512v-512zM1536 1536h512v512h-512v-512zM1024 2048h512v512h-512v-512zM512 2560h512v512h-512v-512zM1536 2560h512v512h-512v-512zM0 3072h512v512h-512v-512zM2048 3072h512v512h-512v-512z
" />
    <glyph glyph-name="Y" unicode="Y" 
d="M1024 0h512v2560h-512v-2560zM512 2560h512v512h-512v-512zM1536 2560h512v512h-512v-512zM0 3072h512v512h-512v-512zM2048 3072h512v512h-512v-512z" />
    <glyph glyph-name="Z" unicode="Z" 
d="M0 0h2560v512h-2048v512h-512v-1024zM512 1024h512v512h-512v-512zM1024 1536h512v512h-512v-512zM1536 2048h512v512h-512v-512zM2048 2560h512v1024h-2560v-512h2048v-512z" />
    <glyph glyph-name="bracketleft" unicode="[" horiz-adv-x="2048" 
d="M0 0h1536v512h-1024v2560h1024v512h-1536v-3584z" />
    <glyph glyph-name="backslash" unicode="\" 
d="M2048 0h512v512h-512v-512zM1536 512h512v1024h-512v-1024zM1024 1536h512v512h-512v-512zM512 2048h512v1024h-512v-1024zM0 3072h512v512h-512v-512z" />
    <glyph glyph-name="bracketright" unicode="]" horiz-adv-x="2048" 
d="M0 0h1536v3584h-1536v-512h1024v-2560h-1024v-512z" />
    <glyph glyph-name="asciicircum" unicode="^" 
d="M0 2560h512v512h-512v-512zM2048 2560h512v512h-512v-512zM512 3072h512v512h-512v-512zM1536 3072h512v512h-512v-512zM1024 3584h512v512h-512v-512z" />
    <glyph glyph-name="underscore" unicode="_" 
d="M0 0h2560v512h-2560v-512z" />
    <glyph glyph-name="grave" unicode="`" horiz-adv-x="1536" 
d="M512 2560h512v512h-512v-512zM0 3072h512v512h-512v-512z" />
    <glyph glyph-name="a" unicode="a" 
d="M0 512h512v512h-512v-512zM512 0h2048v2048h-512v-512h-1536v-512h1536v-512h-1536v-512zM512 2048h1536v512h-1536v-512z" />
    <glyph glyph-name="b" unicode="b" 
d="M2048 512h512v1536h-512v-1536zM1024 2048h1024v512h-1024v-512zM0 0h2048v512h-1536v1024h512v512h-512v1536h-512v-3584z" />
    <glyph glyph-name="c" unicode="c" 
d="M512 0h1536v512h-1536v-512zM2048 512h512v512h-512v-512zM0 512h512v1536h-512v-1536zM2048 1536h512v512h-512v-512zM512 2048h1536v512h-1536v-512z" />
    <glyph glyph-name="d" unicode="d" 
d="M0 512h512v1536h-512v-1536zM512 2048h1024v512h-1024v-512zM512 0h2048v3584h-512v-1536h-512v-512h512v-1024h-1536v-512z" />
    <glyph glyph-name="e" unicode="e" 
d="M512 0h2048v512h-2048v-512zM0 512h512v512h2048v1024h-512v-512h-1536v512h-512v-1536zM512 2048h1536v512h-1536v-512z" />
    <glyph glyph-name="f" unicode="f" horiz-adv-x="2560" 
d="M512 0h512v2048h1024v512h-1024v512h-512v-512h-512v-512h512v-2048zM1024 3072h1024v512h-1024v-512z" />
    <glyph glyph-name="g" unicode="g" 
d="M0 -512h2048v512h-2048v-512zM0 1024h512v1024h-512v-1024zM2048 0h512v2560h-2048v-512h1536v-1024h-1536v-512h1536v-512z" />
    <glyph glyph-name="h" unicode="h" 
d="M2048 0h512v2048h-512v-2048zM1024 2048h1024v512h-1024v-512zM0 0h512v1536h512v512h-512v1536h-512v-3584z" />
    <glyph glyph-name="i" unicode="i" horiz-adv-x="1024" 
d="M0 0h512v2560h-512v-2560zM0 3072h512v512h-512v-512z" />
    <glyph glyph-name="j" unicode="j" horiz-adv-x="2048" 
d="M0 -512h1024v512h-1024v-512zM1024 0h512v2560h-512v-2560zM1024 3072h512v512h-512v-512z" />
    <glyph glyph-name="k" unicode="k" horiz-adv-x="2560" 
d="M1536 0h512v512h-512v-512zM1024 512h512v512h-512v-512zM1024 1536h512v512h-512v-512zM1536 2048h512v512h-512v-512zM0 0h512v1024h512v512h-512v2048h-512v-3584z" />
    <glyph glyph-name="l" unicode="l" horiz-adv-x="1536" 
d="M512 0h512v512h-512v-512zM0 512h512v3072h-512v-3072z" />
    <glyph glyph-name="m" unicode="m" 
d="M1024 1024h512v1024h-512v-1024zM2048 0h512v2048h-512v-2048zM0 0h512v2048h512v512h-1024v-2560zM1536 2048h512v512h-512v-512z" />
    <glyph glyph-name="n" unicode="n" 
d="M2048 0h512v2048h-512v-2048zM0 0h512v2048h1536v512h-2048v-2560z" />
    <glyph glyph-name="o" unicode="o" 
d="M512 0h1536v512h-1536v-512zM0 512h512v1536h-512v-1536zM2048 512h512v1536h-512v-1536zM512 2048h1536v512h-1536v-512z" />
    <glyph glyph-name="p" unicode="p" 
d="M2048 1024h512v1024h-512v-1024zM0 -512h512v1024h1536v512h-1536v512h512v512h-512v512h-512v-3072zM1024 2048h1024v512h-1024v-512z" />
    <glyph glyph-name="q" unicode="q" 
d="M0 1024h512v1024h-512v-1024zM512 2048h1024v512h-1024v-512zM2048 -512h512v3072h-512v-512h-512v-512h512v-512h-1536v-512h1536v-1024z" />
    <glyph glyph-name="r" unicode="r" 
d="M2048 1536h512v512h-512v-512zM0 0h512v1536h512v512h-512v512h-512v-2560zM1024 2048h1024v512h-1024v-512z" />
    <glyph glyph-name="s" unicode="s" 
d="M0 0h2048v512h-2048v-512zM2048 512h512v512h-512v-512zM512 1024h1536v512h-1536v-512zM0 1536h512v512h-512v-512zM512 2048h2048v512h-2048v-512z" />
    <glyph glyph-name="t" unicode="t" horiz-adv-x="2048" 
d="M1024 0h512v512h-512v-512zM512 512h512v1536h512v512h-512v1024h-512v-1024h-512v-512h512v-1536z" />
    <glyph glyph-name="u" unicode="u" 
d="M0 512h512v2048h-512v-2048zM512 0h2048v2560h-512v-2048h-1536v-512z" />
    <glyph glyph-name="v" unicode="v" 
d="M1024 0h512v512h-512v-512zM512 512h512v512h-512v-512zM1536 512h512v512h-512v-512zM0 1024h512v1536h-512v-1536zM2048 1024h512v1536h-512v-1536z" />
    <glyph glyph-name="w" unicode="w" 
d="M0 512h512v2048h-512v-2048zM512 0h2048v2560h-512v-2048h-512v1024h-512v-1024h-512v-512z" />
    <glyph glyph-name="x" unicode="x" 
d="M0 0h512v512h-512v-512zM2048 0h512v512h-512v-512zM512 512h512v512h-512v-512zM1536 512h512v512h-512v-512zM1024 1024h512v512h-512v-512zM512 1536h512v512h-512v-512zM1536 1536h512v512h-512v-512zM0 2048h512v512h-512v-512zM2048 2048h512v512h-512v-512z" />
    <glyph glyph-name="y" unicode="y" 
d="M0 -512h2048v512h-2048v-512zM0 1024h512v1536h-512v-1536zM2048 0h512v2560h-512v-1536h-1536v-512h1536v-512z" />
    <glyph glyph-name="z" unicode="z" 
d="M0 0h2560v512h-1536v512h-512v-512h-512v-512zM1024 1024h512v512h-512v-512zM1536 1536h512v512h512v512h-2560v-512h1536v-512z" />
    <glyph glyph-name="braceleft" unicode="{" horiz-adv-x="2048" 
d="M1024 0h512v512h-512v-512zM512 512h512v1024h-512v-1024zM0 1536h512v512h-512v-512zM512 2048h512v1024h-512v-1024zM1024 3072h512v512h-512v-512z" />
    <glyph glyph-name="bar" unicode="|" horiz-adv-x="1024" 
d="M0 0h512v3584h-512v-3584z" />
    <glyph glyph-name="braceright" unicode="}" horiz-adv-x="2048" 
d="M0 0h512v512h-512v-512zM512 512h512v1024h-512v-1024zM1024 1536h512v512h-512v-512zM512 2048h512v1024h-512v-1024zM0 3072h512v512h-512v-512z" />
    <glyph glyph-name="asciitilde" unicode="~" horiz-adv-x="3584" 
d="M0 2560h512v512h-512v-512zM1536 2560h1024v512h-1024v-512zM512 3072h1024v512h-1024v-512zM2560 3072h512v512h-512v-512z" />
    <glyph glyph-name="exclamdown" unicode="&#xa1;" horiz-adv-x="1024" 
d="M0 0h512v2560h-512v-2560zM0 3072h512v512h-512v-512z" />
    <glyph glyph-name="cent" unicode="&#xa2;" 
d="M1024 0h512v512h512v512h-1536v-512h512v-512zM2048 1024h512v512h-512v-512zM0 1024h512v1536h-512v-1536zM2048 2048h512v512h-512v-512zM512 2560h1536v512h-512v512h-512v-512h-512v-512z" />
    <glyph glyph-name="sterling" unicode="&#xa3;" 
d="M0 0h2560v512h-1536v1024h1024v512h-1024v1024h-512v-1024h-512v-512h512v-1024h-512v-512zM2048 2560h512v512h-512v-512zM1024 3072h1024v512h-1024v-512z" />
    <glyph glyph-name="currency" unicode="&#xa4;" 
d="M0 512h512v512h-512v-512zM2048 512h512v512h-512v-512zM1536 1536h-512v512h512v-512zM512 1024h1536v1536h-1536v-1536zM0 2560h512v512h-512v-512zM2048 2560h512v512h-512v-512z" />
    <glyph glyph-name="yen" unicode="&#xa5;" 
d="M1024 0h512v512h512v512h-512v512h512v512h-512v512h-512v-512h-512v-512h512v-512h-512v-512h512v-512zM512 2560h512v512h-512v-512zM1536 2560h512v512h-512v-512zM0 3072h512v512h-512v-512zM2048 3072h512v512h-512v-512z" />
    <glyph glyph-name="brokenbar" unicode="&#xa6;" horiz-adv-x="1024" 
d="M0 0h512v1536h-512v-1536zM0 2048h512v1536h-512v-1536z" />
    <glyph glyph-name="section" unicode="&#xa7;" 
d="M0 0h2048v512h-2048v-512zM2048 512h512v512h-512v-512zM512 1024h1536v512h-1536v-512zM0 1536h512v512h-512v-512zM2048 1536h512v512h-512v-512zM512 2048h1536v512h-1536v-512zM0 2560h512v512h-512v-512zM512 3072h2048v512h-2048v-512z" />
    <glyph glyph-name="dieresis" unicode="&#xa8;" horiz-adv-x="2048" 
d="M0 3072h512v512h-512v-512zM1024 3072h512v512h-512v-512z" />
    <glyph glyph-name="copyright" unicode="&#xa9;" horiz-adv-x="4608" 
d="M1024 -512h2048v512h-2048v-512zM512 0h512v512h-512v-512zM3072 0h512v512h-512v-512zM1536 512h1024v512h-1024v-512zM1024 1024h512v1024h-512v-1024zM0 512h512v2048h-512v-2048zM1536 2048h1024v512h-1024v-512zM3584 512h512v2048h-512v-2048zM512 2560h512v512
h-512v-512zM3072 2560h512v512h-512v-512zM1024 3072h2048v512h-2048v-512z" />
    <glyph glyph-name="ordfeminine" unicode="&#xaa;" 
d="M0 512h2560v512h-2560v-512zM512 1536h2048v1536h-512v-512h-2048v-512h512v-512zM512 3072h1536v512h-1536v-512z" />
    <glyph glyph-name="guillemotleft" unicode="&#xab;" horiz-adv-x="3584" 
d="M1024 512h512v512h-512v-512zM2560 512h512v512h-512v-512zM512 1024h512v512h-512v-512zM2048 1024h512v512h-512v-512zM0 1536h512v512h-512v-512zM1536 1536h512v512h-512v-512zM512 2048h512v512h-512v-512zM2048 2048h512v512h-512v-512zM1024 2560h512v512h-512
v-512zM2560 2560h512v512h-512v-512z" />
    <glyph glyph-name="logicalnot" unicode="&#xac;" 
d="M2048 1024h512v1024h-2560v-512h2048v-512z" />
    <glyph glyph-name="uniAD" unicode="&#xad;" 
d="M0 1536h2560v512h-2560v-512z" />
    <glyph glyph-name="registered" unicode="&#xae;" horiz-adv-x="4608" 
d="M1024 -512h2048v512h-2048v-512zM512 0h512v512h-512v-512zM3072 0h512v512h-512v-512zM2560 512h512v512h-512v-512zM2560 1536h512v512h-512v-512zM0 512h512v2048h-512v-2048zM1024 512h512v512h1024v512h-1024v512h1024v512h-1536v-2048zM3584 512h512v2048h-512
v-2048zM512 2560h512v512h-512v-512zM3072 2560h512v512h-512v-512zM1024 3072h2048v512h-2048v-512z" />
    <glyph glyph-name="macron" unicode="&#xaf;" 
d="M0 3072h2560v512h-2560v-512z" />
    <glyph glyph-name="degree" unicode="&#xb0;" horiz-adv-x="2560" 
d="M512 1536h1024v512h-1024v-512zM0 2048h512v1024h-512v-1024zM1536 2048h512v1024h-512v-1024zM512 3072h1024v512h-1024v-512z" />
    <glyph glyph-name="plusminus" unicode="&#xb1;" 
d="M0 0h2560v512h-2560v-512zM1024 1024h512v1024h1024v512h-1024v1024h-512v-1024h-1024v-512h1024v-1024z" />
    <glyph glyph-name="uniB2" unicode="&#xb2;" horiz-adv-x="2048" 
d="M0 1024h1536v512h-1024v512h-512v-1024zM512 2048h512v512h-512v-512zM1024 2560h512v512h-512v-512zM0 3072h1024v512h-1024v-512z" />
    <glyph glyph-name="uniB3" unicode="&#xb3;" horiz-adv-x="2048" 
d="M0 1024h1024v512h-1024v-512zM1024 1536h512v512h-512v-512zM512 2048h512v512h-512v-512zM1024 2560h512v512h-512v-512zM0 3072h1024v512h-1024v-512z" />
    <glyph glyph-name="acute" unicode="&#xb4;" horiz-adv-x="1536" 
d="M0 2560h512v512h-512v-512zM512 3072h512v512h-512v-512z" />
    <glyph glyph-name="mu" unicode="&#xb5;" 
d="M0 -512h512v1024h512v512h-512v1536h-512v-3072zM1024 0h1536v2560h-512v-2048h-1024v-512z" />
    <glyph glyph-name="paragraph" unicode="&#xb6;" horiz-adv-x="2560" 
d="M1536 0h512v3584h-1536v-512h-512v-1024h512v-512h1024v-1536z" />
    <glyph glyph-name="periodcentered" unicode="&#xb7;" horiz-adv-x="1024" 
d="M0 1536h512v512h-512v-512z" />
    <glyph glyph-name="cedilla" unicode="&#xb8;" horiz-adv-x="2048" 
d="M0 -1024h1024v512h-1024v-512zM1024 -512h512v512h-512v-512z" />
    <glyph glyph-name="uniB9" unicode="&#xb9;" horiz-adv-x="2048" 
d="M0 1024h1536v512h-512v2048h-512v-512h-512v-512h512v-1024h-512v-512z" />
    <glyph glyph-name="ordmasculine" unicode="&#xba;" 
d="M0 512h2560v512h-2560v-512zM512 1536h1536v512h-1536v-512zM0 2048h512v1024h-512v-1024zM2048 2048h512v1024h-512v-1024zM512 3072h1536v512h-1536v-512z" />
    <glyph glyph-name="guillemotright" unicode="&#xbb;" horiz-adv-x="3584" 
d="M0 512h512v512h-512v-512zM1536 512h512v512h-512v-512zM512 1024h512v512h-512v-512zM2048 1024h512v512h-512v-512zM1024 1536h512v512h-512v-512zM2560 1536h512v512h-512v-512zM512 2048h512v512h-512v-512zM2048 2048h512v512h-512v-512zM0 2560h512v512h-512v-512z
M1536 2560h512v512h-512v-512z" />
    <glyph glyph-name="onequarter" unicode="&#xbc;" 
d="M0 0h512v512h-512v-512zM512 512h512v1024h-512v-1024zM2048 0h512v1536h-1024v-1024h512v-512zM1024 1536h512v512h-512v-512zM1536 2048h512v1024h-512v-1024zM0 2048h512v1536h-512v-1536zM2048 3072h512v512h-512v-512z" />
    <glyph glyph-name="onehalf" unicode="&#xbd;" 
d="M0 0h512v512h-512v-512zM1536 0h1024v512h-512v512h-512v-1024zM512 512h512v1024h-512v-1024zM2048 1024h512v512h-512v-512zM1024 1536h512v512h-512v-512zM1536 2048h512v1024h-512v-1024zM0 2048h512v1536h-512v-1536zM2048 3072h512v512h-512v-512z" />
    <glyph glyph-name="threequarters" unicode="&#xbe;" 
d="M0 0h512v512h-512v-512zM512 512h512v1024h-512v-1024zM2048 0h512v1536h-1024v-1024h512v-512zM1024 1536h512v512h-512v-512zM1536 2048h512v1024h-512v-1024zM0 2048h1024v1536h-1024v-512h512v-512h-512v-512zM2048 3072h512v512h-512v-512z" />
    <glyph glyph-name="questiondown" unicode="&#xbf;" 
d="M512 0h1536v512h-1536v-512zM2048 512h512v512h-512v-512zM0 512h512v1024h-512v-1024zM512 1536h512v512h-512v-512zM1024 2048h512v512h-512v-512zM1024 3072h512v512h-512v-512z" />
    <glyph glyph-name="Agrave" unicode="&#xc0;" 
d="M0 0h512v2048h1536v-2048h512v3072h-512v-512h-1536v512h-512v-3072zM512 3072h1536v512h-1536v-512zM1024 4096h512v512h-512v-512zM512 4608h512v512h-512v-512z" />
    <glyph glyph-name="Aacute" unicode="&#xc1;" 
d="M0 0h512v2048h1536v-2048h512v3072h-512v-512h-1536v512h-512v-3072zM512 3072h1536v512h-1536v-512zM1024 4096h512v512h-512v-512zM1536 4608h512v512h-512v-512z" />
    <glyph glyph-name="Acircumflex" unicode="&#xc2;" 
d="M0 0h512v2048h1536v-2048h512v3072h-512v-512h-1536v512h-512v-3072zM512 3072h1536v512h-1536v-512zM512 4096h512v512h-512v-512zM1536 4096h512v512h-512v-512zM1024 4608h512v512h-512v-512z" />
    <glyph glyph-name="Atilde" unicode="&#xc3;" 
d="M0 0h512v2048h1536v-2048h512v3072h-512v-512h-1536v512h-512v-3072zM512 3072h1536v512h-1536v-512zM0 4096h512v512h-512v-512zM1024 4096h1024v512h-512v512h-1024v-512h512v-512zM2048 4608h512v512h-512v-512z" />
    <glyph glyph-name="Adieresis" unicode="&#xc4;" 
d="M0 0h512v2048h1536v-2048h512v3072h-512v-512h-1536v512h-512v-3072zM512 3072h1536v512h-1536v-512zM512 4096h512v512h-512v-512zM1536 4096h512v512h-512v-512z" />
    <glyph glyph-name="Aring" unicode="&#xc5;" 
d="M0 0h512v2048h1536v-2048h512v3072h-512v-512h-1536v512h-512v-3072zM512 3072h1536v512h-512v512h-512v-512h-512v-512zM512 4096h512v512h-512v-512zM1536 4096h512v512h-512v-512zM1024 4608h512v512h-512v-512z" />
    <glyph glyph-name="AE" unicode="&#xc6;" 
d="M0 0h512v2048h512v-2048h1536v512h-1024v1536h512v512h-512v512h1024v512h-2048v-512h512v-512h-512v512h-512v-3072z" />
    <glyph glyph-name="Ccedilla" unicode="&#xc7;" 
d="M1024 -1024h1024v512h-1024v-512zM2048 -512h512v512h-512v-512zM512 0h1536v512h-1536v-512zM2048 512h512v512h-512v-512zM0 512h512v2560h-512v-2560zM2048 2560h512v512h-512v-512zM512 3072h1536v512h-1536v-512z" />
    <glyph glyph-name="Egrave" unicode="&#xc8;" 
d="M0 0h2560v512h-2048v1536h1024v512h-1024v512h2048v512h-2560v-3584zM1024 4096h512v512h-512v-512zM512 4608h512v512h-512v-512z" />
    <glyph glyph-name="Eacute" unicode="&#xc9;" 
d="M0 0h2560v512h-2048v1536h1024v512h-1024v512h2048v512h-2560v-3584zM1024 4096h512v512h-512v-512zM1536 4608h512v512h-512v-512z" />
    <glyph glyph-name="Ecircumflex" unicode="&#xca;" 
d="M0 0h2560v512h-2048v1536h1024v512h-1024v512h2048v512h-2560v-3584zM512 4096h512v512h-512v-512zM1536 4096h512v512h-512v-512zM1024 4608h512v512h-512v-512z" />
    <glyph glyph-name="Edieresis" unicode="&#xcb;" 
d="M0 0h2560v512h-2048v1536h1024v512h-1024v512h2048v512h-2560v-3584zM512 4096h512v512h-512v-512zM1536 4096h512v512h-512v-512z" />
    <glyph glyph-name="Igrave" unicode="&#xcc;" horiz-adv-x="2048" 
d="M0 0h1536v512h-512v2560h512v512h-1536v-512h512v-2560h-512v-512zM512 4096h512v512h-512v-512zM0 4608h512v512h-512v-512z" />
    <glyph glyph-name="Iacute" unicode="&#xcd;" horiz-adv-x="2048" 
d="M0 0h1536v512h-512v2560h512v512h-1536v-512h512v-2560h-512v-512zM512 4096h512v512h-512v-512zM1024 4608h512v512h-512v-512z" />
    <glyph glyph-name="Icircumflex" unicode="&#xce;" horiz-adv-x="2048" 
d="M0 0h1536v512h-512v2560h512v512h-1536v-512h512v-2560h-512v-512zM0 4096h512v512h-512v-512zM1024 4096h512v512h-512v-512zM512 4608h512v512h-512v-512z" />
    <glyph glyph-name="Idieresis" unicode="&#xcf;" horiz-adv-x="2048" 
d="M0 0h1536v512h-512v2560h512v512h-1536v-512h512v-2560h-512v-512zM0 4096h512v512h-512v-512zM1024 4096h512v512h-512v-512z" />
    <glyph glyph-name="Eth" unicode="&#xd0;" 
d="M2048 512h512v2560h-512v-2560zM512 0h1536v512h-1024v1024h512v512h-512v1024h1024v512h-1536v-1536h-512v-512h512v-1536z" />
    <glyph glyph-name="Ntilde" unicode="&#xd1;" 
d="M1024 2048h512v512h-512v-512zM0 0h512v2560h512v512h-512v512h-512v-3584zM2048 0h512v3584h-512v-1536h-512v-512h512v-1536zM0 4096h512v512h-512v-512zM1024 4096h1024v512h-512v512h-1024v-512h512v-512zM2048 4608h512v512h-512v-512z" />
    <glyph glyph-name="Ograve" unicode="&#xd2;" 
d="M512 0h1536v512h-1536v-512zM0 512h512v2560h-512v-2560zM2048 512h512v2560h-512v-2560zM512 3072h1536v512h-1536v-512zM1024 4096h512v512h-512v-512zM512 4608h512v512h-512v-512z" />
    <glyph glyph-name="Oacute" unicode="&#xd3;" 
d="M512 0h1536v512h-1536v-512zM0 512h512v2560h-512v-2560zM2048 512h512v2560h-512v-2560zM512 3072h1536v512h-1536v-512zM1024 4096h512v512h-512v-512zM1536 4608h512v512h-512v-512z" />
    <glyph glyph-name="Ocircumflex" unicode="&#xd4;" 
d="M512 0h1536v512h-1536v-512zM0 512h512v2560h-512v-2560zM2048 512h512v2560h-512v-2560zM512 3072h1536v512h-1536v-512zM512 4096h512v512h-512v-512zM1536 4096h512v512h-512v-512zM1024 4608h512v512h-512v-512z" />
    <glyph glyph-name="Otilde" unicode="&#xd5;" 
d="M512 0h1536v512h-1536v-512zM0 512h512v2560h-512v-2560zM2048 512h512v2560h-512v-2560zM512 3072h1536v512h-1536v-512zM0 4096h512v512h-512v-512zM1024 4096h1024v512h-512v512h-1024v-512h512v-512zM2048 4608h512v512h-512v-512z" />
    <glyph glyph-name="Odieresis" unicode="&#xd6;" 
d="M512 0h1536v512h-1536v-512zM0 512h512v2560h-512v-2560zM2048 512h512v2560h-512v-2560zM512 3072h1536v512h-1536v-512zM512 4096h512v512h-512v-512zM1536 4096h512v512h-512v-512z" />
    <glyph glyph-name="multiply" unicode="&#xd7;" 
d="M0 512h512v512h-512v-512zM2048 512h512v512h-512v-512zM512 1024h512v512h-512v-512zM1536 1024h512v512h-512v-512zM1024 1536h512v512h-512v-512zM512 2048h512v512h-512v-512zM1536 2048h512v512h-512v-512zM0 2560h512v512h-512v-512zM2048 2560h512v512h-512v-512z
" />
    <glyph glyph-name="Oslash" unicode="&#xd8;" 
d="M512 0h1536v512h-1536v-512zM1024 1536h512v512h-512v-512zM0 512h512v512h512v512h-512v1536h-512v-2560zM2048 512h512v2560h-512v-512h-512v-512h512v-1536zM512 3072h1536v512h-1536v-512z" />
    <glyph glyph-name="Ugrave" unicode="&#xd9;" 
d="M512 0h1536v512h-1536v-512zM0 512h512v3072h-512v-3072zM2048 512h512v3072h-512v-3072zM1024 4096h512v512h-512v-512zM512 4608h512v512h-512v-512z" />
    <glyph glyph-name="Uacute" unicode="&#xda;" 
d="M512 0h1536v512h-1536v-512zM0 512h512v3072h-512v-3072zM2048 512h512v3072h-512v-3072zM1024 4096h512v512h-512v-512zM1536 4608h512v512h-512v-512z" />
    <glyph glyph-name="Ucircumflex" unicode="&#xdb;" 
d="M512 0h1536v512h-1536v-512zM0 512h512v3072h-512v-3072zM2048 512h512v3072h-512v-3072zM512 4096h512v512h-512v-512zM1536 4096h512v512h-512v-512zM1024 4608h512v512h-512v-512z" />
    <glyph glyph-name="Udieresis" unicode="&#xdc;" 
d="M512 0h1536v512h-1536v-512zM0 512h512v3072h-512v-3072zM2048 512h512v3072h-512v-3072zM512 4096h512v512h-512v-512zM1536 4096h512v512h-512v-512z" />
    <glyph glyph-name="Yacute" unicode="&#xdd;" 
d="M1024 0h512v2560h-512v-2560zM512 2560h512v512h-512v-512zM1536 2560h512v512h-512v-512zM0 3072h512v512h-512v-512zM2048 3072h512v512h-512v-512zM1024 4096h512v512h-512v-512zM1536 4608h512v512h-512v-512z" />
    <glyph glyph-name="Thorn" unicode="&#xde;" 
d="M2048 1024h512v1536h-512v-1536zM0 0h512v512h1536v512h-1536v1536h1536v512h-1536v512h-512v-3584z" />
    <glyph glyph-name="germandbls" unicode="&#xdf;" 
d="M1024 0h1024v512h-1024v-512zM2048 512h512v1536h-512v-1536zM1024 2048h1024v512h-1024v-512zM2048 2560h512v512h-512v-512zM0 -512h512v3584h1536v512h-2048v-4096z" />
    <glyph glyph-name="agrave" unicode="&#xe0;" 
d="M0 512h512v512h-512v-512zM512 0h2048v2048h-512v-512h-1536v-512h1536v-512h-1536v-512zM512 2048h1536v512h-1536v-512zM1024 3072h512v512h-512v-512zM512 3584h512v512h-512v-512z" />
    <glyph glyph-name="aacute" unicode="&#xe1;" 
d="M0 512h512v512h-512v-512zM512 0h2048v2048h-512v-512h-1536v-512h1536v-512h-1536v-512zM512 2048h1536v512h-1536v-512zM1024 3072h512v512h-512v-512zM1536 3584h512v512h-512v-512z" />
    <glyph glyph-name="acircumflex" unicode="&#xe2;" 
d="M0 512h512v512h-512v-512zM512 0h2048v2048h-512v-512h-1536v-512h1536v-512h-1536v-512zM512 2048h1536v512h-1536v-512zM512 3072h512v512h-512v-512zM1536 3072h512v512h-512v-512zM1024 3584h512v512h-512v-512z" />
    <glyph glyph-name="atilde" unicode="&#xe3;" 
d="M0 512h512v512h-512v-512zM512 0h2048v2048h-512v-512h-1536v-512h1536v-512h-1536v-512zM512 2048h1536v512h-1536v-512zM0 3072h512v512h-512v-512zM1024 3072h1024v512h-512v512h-1024v-512h512v-512zM2048 3584h512v512h-512v-512z" />
    <glyph glyph-name="adieresis" unicode="&#xe4;" 
d="M0 512h512v512h-512v-512zM512 0h2048v2048h-512v-512h-1536v-512h1536v-512h-1536v-512zM512 2048h1536v512h-1536v-512zM512 3072h512v512h-512v-512zM1536 3072h512v512h-512v-512z" />
    <glyph glyph-name="aring" unicode="&#xe5;" 
d="M0 512h512v512h-512v-512zM512 0h2048v2048h-512v-512h-1536v-512h1536v-512h-1536v-512zM512 2048h1536v512h-512v512h-512v-512h-512v-512zM512 3072h512v512h-512v-512zM1536 3072h512v512h-512v-512zM1024 3584h512v512h-512v-512z" />
    <glyph glyph-name="ae" unicode="&#xe6;" 
d="M0 512h512v512h-512v-512zM512 0h2048v512h-1024v512h1024v1024h-512v-512h-512v512h-512v-512h-512v-512h512v-512h-512v-512zM512 2048h512v512h-512v-512zM1536 2048h512v512h-512v-512z" />
    <glyph glyph-name="ccedilla" unicode="&#xe7;" 
d="M1024 -1024h1024v512h-1024v-512zM2048 -512h512v512h-512v-512zM512 0h1536v512h-1536v-512zM2048 512h512v512h-512v-512zM0 512h512v1536h-512v-1536zM2048 1536h512v512h-512v-512zM512 2048h1536v512h-1536v-512z" />
    <glyph glyph-name="egrave" unicode="&#xe8;" 
d="M512 0h2048v512h-2048v-512zM0 512h512v512h2048v1024h-512v-512h-1536v512h-512v-1536zM512 2048h1536v512h-1536v-512zM1024 3072h512v512h-512v-512zM512 3584h512v512h-512v-512z" />
    <glyph glyph-name="eacute" unicode="&#xe9;" 
d="M512 0h2048v512h-2048v-512zM0 512h512v512h2048v1024h-512v-512h-1536v512h-512v-1536zM512 2048h1536v512h-1536v-512zM1024 3072h512v512h-512v-512zM1536 3584h512v512h-512v-512z" />
    <glyph glyph-name="ecircumflex" unicode="&#xea;" 
d="M512 0h2048v512h-2048v-512zM0 512h512v512h2048v1024h-512v-512h-1536v512h-512v-1536zM512 2048h1536v512h-1536v-512zM512 3072h512v512h-512v-512zM1536 3072h512v512h-512v-512zM1024 3584h512v512h-512v-512z" />
    <glyph glyph-name="edieresis" unicode="&#xeb;" 
d="M512 0h2048v512h-2048v-512zM0 512h512v512h2048v1024h-512v-512h-1536v512h-512v-1536zM512 2048h1536v512h-1536v-512zM512 3072h512v512h-512v-512zM1536 3072h512v512h-512v-512z" />
    <glyph glyph-name="igrave" unicode="&#xec;" horiz-adv-x="1536" 
d="M512 0h512v2560h-512v-2560zM512 3072h512v512h-512v-512zM0 3584h512v512h-512v-512z" />
    <glyph glyph-name="iacute" unicode="&#xed;" horiz-adv-x="1536" 
d="M0 0h512v2560h-512v-2560zM0 3072h512v512h-512v-512zM512 3584h512v512h-512v-512z" />
    <glyph glyph-name="icircumflex" unicode="&#xee;" horiz-adv-x="2048" 
d="M512 0h512v2560h-512v-2560zM0 3072h512v512h-512v-512zM1024 3072h512v512h-512v-512zM512 3584h512v512h-512v-512z" />
    <glyph glyph-name="idieresis" unicode="&#xef;" horiz-adv-x="2048" 
d="M512 0h512v2560h-512v-2560zM0 3072h512v512h-512v-512zM1024 3072h512v512h-512v-512z" />
    <glyph glyph-name="eth" unicode="&#xf0;" 
d="M512 0h1536v512h-1536v-512zM0 512h512v1536h-512v-1536zM512 3584h512v512h-512v-512zM2048 512h512v2560h-512v-512h-512v512h512v1024h-512v-512h-512v-1024h-512v-512h1536v-1536z" />
    <glyph glyph-name="ntilde" unicode="&#xf1;" 
d="M2048 0h512v2048h-512v-2048zM0 0h512v2048h1536v512h-2048v-2560zM0 3072h512v512h-512v-512zM1024 3072h1024v512h-512v512h-1024v-512h512v-512zM2048 3584h512v512h-512v-512z" />
    <glyph glyph-name="ograve" unicode="&#xf2;" 
d="M512 0h1536v512h-1536v-512zM0 512h512v1536h-512v-1536zM2048 512h512v1536h-512v-1536zM512 2048h1536v512h-1536v-512zM1024 3072h512v512h-512v-512zM512 3584h512v512h-512v-512z" />
    <glyph glyph-name="oacute" unicode="&#xf3;" 
d="M512 0h1536v512h-1536v-512zM0 512h512v1536h-512v-1536zM2048 512h512v1536h-512v-1536zM512 2048h1536v512h-1536v-512zM1024 3072h512v512h-512v-512zM1536 3584h512v512h-512v-512z" />
    <glyph glyph-name="ocircumflex" unicode="&#xf4;" 
d="M512 0h1536v512h-1536v-512zM0 512h512v1536h-512v-1536zM2048 512h512v1536h-512v-1536zM512 2048h1536v512h-1536v-512zM512 3072h512v512h-512v-512zM1536 3072h512v512h-512v-512zM1024 3584h512v512h-512v-512z" />
    <glyph glyph-name="otilde" unicode="&#xf5;" 
d="M512 0h1536v512h-1536v-512zM0 512h512v1536h-512v-1536zM2048 512h512v1536h-512v-1536zM512 2048h1536v512h-1536v-512zM0 3072h512v512h-512v-512zM1024 3072h1024v512h-512v512h-1024v-512h512v-512zM2048 3584h512v512h-512v-512z" />
    <glyph glyph-name="odieresis" unicode="&#xf6;" 
d="M512 0h1536v512h-1536v-512zM0 512h512v1536h-512v-1536zM2048 512h512v1536h-512v-1536zM512 2048h1536v512h-1536v-512zM512 3072h512v512h-512v-512zM1536 3072h512v512h-512v-512z" />
    <glyph glyph-name="divide" unicode="&#xf7;" 
d="M1024 512h512v512h-512v-512zM0 1536h2560v512h-2560v-512zM1024 2560h512v512h-512v-512z" />
    <glyph glyph-name="oslash" unicode="&#xf8;" 
d="M1024 1024h512v512h-512v-512zM512 0h1536v512h-1024v512h-512v1024h-512v-1536h512v-512zM2048 512h512v1536h-512v512h-1536v-512h1024v-512h512v-1024z" />
    <glyph glyph-name="ugrave" unicode="&#xf9;" 
d="M0 512h512v2048h-512v-2048zM512 0h2048v2560h-512v-2048h-1536v-512zM1024 3072h512v512h-512v-512zM512 3584h512v512h-512v-512z" />
    <glyph glyph-name="uacute" unicode="&#xfa;" 
d="M0 512h512v2048h-512v-2048zM512 0h2048v2560h-512v-2048h-1536v-512zM1024 3072h512v512h-512v-512zM1536 3584h512v512h-512v-512z" />
    <glyph glyph-name="ucircumflex" unicode="&#xfb;" 
d="M0 512h512v2048h-512v-2048zM512 0h2048v2560h-512v-2048h-1536v-512zM512 3072h512v512h-512v-512zM1536 3072h512v512h-512v-512zM1024 3584h512v512h-512v-512z" />
    <glyph glyph-name="udieresis" unicode="&#xfc;" 
d="M0 512h512v2048h-512v-2048zM512 0h2048v2560h-512v-2048h-1536v-512zM512 3072h512v512h-512v-512zM1536 3072h512v512h-512v-512z" />
    <glyph glyph-name="yacute" unicode="&#xfd;" 
d="M0 -512h2048v512h-2048v-512zM0 1024h512v1536h-512v-1536zM2048 0h512v2560h-512v-1536h-1536v-512h1536v-512zM1024 3072h512v512h-512v-512zM1536 3584h512v512h-512v-512z" />
    <glyph glyph-name="thorn" unicode="&#xfe;" 
d="M2048 1024h512v1024h-512v-1024zM0 -512h512v1024h1536v512h-1536v1024h1536v512h-1536v1024h-512v-4096z" />
    <glyph glyph-name="ydieresis" unicode="&#xff;" 
d="M0 -512h2048v512h-2048v-512zM0 1024h512v1536h-512v-1536zM2048 0h512v2560h-512v-1536h-1536v-512h1536v-512zM512 3072h512v512h-512v-512zM1536 3072h512v512h-512v-512z" />
    <glyph glyph-name="Amacron" unicode="&#x100;" 
d="M0 0h512v2048h1536v-2048h512v3072h-512v-512h-1536v512h-512v-3072zM512 3072h1536v512h-1536v-512zM512 4096h1536v512h-1536v-512z" />
    <glyph glyph-name="amacron" unicode="&#x101;" 
d="M0 512h512v512h-512v-512zM512 0h2048v2048h-512v-512h-1536v-512h1536v-512h-1536v-512zM512 2048h1536v512h-1536v-512zM512 3072h1536v512h-1536v-512z" />
    <glyph glyph-name="Abreve" unicode="&#x102;" 
d="M0 0h512v2048h1536v-2048h512v3072h-512v-512h-1536v512h-512v-3072zM512 3072h1536v512h-1536v-512zM512 4096h1536v512h-1536v-512zM0 4608h512v512h-512v-512zM2048 4608h512v512h-512v-512z" />
    <glyph glyph-name="abreve" unicode="&#x103;" 
d="M0 512h512v512h-512v-512zM512 0h2048v2048h-512v-512h-1536v-512h1536v-512h-1536v-512zM512 2048h1536v512h-1536v-512zM512 3072h1536v512h-1536v-512zM0 3584h512v512h-512v-512zM2048 3584h512v512h-512v-512z" />
    <glyph glyph-name="Aogonek" unicode="&#x104;" 
d="M1536 -1024h1024v512h-512v512h-512v-1024zM0 0h512v2048h1536v-2048h512v3072h-512v-512h-1536v512h-512v-3072zM512 3072h1536v512h-1536v-512z" />
    <glyph glyph-name="aogonek" unicode="&#x105;" 
d="M0 512h512v512h-512v-512zM1536 -1024h1024v512h-512v512h512v2048h-512v-512h-1536v-512h1536v-512h-1536v-512h1024v-1024zM512 2048h1536v512h-1536v-512z" />
    <glyph glyph-name="Cacute" unicode="&#x106;" 
d="M512 0h1536v512h-1536v-512zM2048 512h512v512h-512v-512zM0 512h512v2560h-512v-2560zM2048 2560h512v512h-512v-512zM512 3072h1536v512h-1536v-512zM1024 4096h512v512h-512v-512zM1536 4608h512v512h-512v-512z" />
    <glyph glyph-name="cacute" unicode="&#x107;" 
d="M512 0h1536v512h-1536v-512zM2048 512h512v512h-512v-512zM0 512h512v1536h-512v-1536zM2048 1536h512v512h-512v-512zM512 2048h1536v512h-1536v-512zM1024 3072h512v512h-512v-512zM1536 3584h512v512h-512v-512z" />
    <glyph glyph-name="Ccircumflex" unicode="&#x108;" 
d="M512 0h1536v512h-1536v-512zM2048 512h512v512h-512v-512zM0 512h512v2560h-512v-2560zM2048 2560h512v512h-512v-512zM512 3072h1536v512h-1536v-512zM512 4096h512v512h-512v-512zM1536 4096h512v512h-512v-512zM1024 4608h512v512h-512v-512z" />
    <glyph glyph-name="ccircumflex" unicode="&#x109;" 
d="M512 0h1536v512h-1536v-512zM2048 512h512v512h-512v-512zM0 512h512v1536h-512v-1536zM2048 1536h512v512h-512v-512zM512 2048h1536v512h-1536v-512zM512 3072h512v512h-512v-512zM1536 3072h512v512h-512v-512zM1024 3584h512v512h-512v-512z" />
    <glyph glyph-name="Cdotaccent" unicode="&#x10a;" 
d="M512 0h1536v512h-1536v-512zM2048 512h512v512h-512v-512zM0 512h512v2560h-512v-2560zM2048 2560h512v512h-512v-512zM512 3072h1536v512h-1536v-512zM1024 4096h512v512h-512v-512z" />
    <glyph glyph-name="cdotaccent" unicode="&#x10b;" 
d="M512 0h1536v512h-1536v-512zM2048 512h512v512h-512v-512zM0 512h512v1536h-512v-1536zM2048 1536h512v512h-512v-512zM512 2048h1536v512h-1536v-512zM1024 3072h512v512h-512v-512z" />
    <glyph glyph-name="Ccaron" unicode="&#x10c;" 
d="M512 0h1536v512h-1536v-512zM2048 512h512v512h-512v-512zM0 512h512v2560h-512v-2560zM2048 2560h512v512h-512v-512zM512 3072h1536v512h-1536v-512zM1024 4096h512v512h-512v-512zM512 4608h512v512h-512v-512zM1536 4608h512v512h-512v-512z" />
    <glyph glyph-name="ccaron" unicode="&#x10d;" 
d="M512 0h1536v512h-1536v-512zM2048 512h512v512h-512v-512zM0 512h512v1536h-512v-1536zM2048 1536h512v512h-512v-512zM512 2048h1536v512h-1536v-512zM1024 3072h512v512h-512v-512zM512 3584h512v512h-512v-512zM1536 3584h512v512h-512v-512z" />
    <glyph glyph-name="Dcaron" unicode="&#x10e;" 
d="M2048 512h512v2560h-512v-2560zM0 0h2048v512h-1536v2560h1536v512h-2048v-3584zM1024 4096h512v512h-512v-512zM512 4608h512v512h-512v-512zM1536 4608h512v512h-512v-512z" />
    <glyph glyph-name="dcaron" unicode="&#x10f;" horiz-adv-x="3584" 
d="M0 512h512v1536h-512v-1536zM512 2048h512v512h-512v-512zM512 0h1536v3584h-512v-1536h-512v-512h512v-1024h-1024v-512zM2560 2560h512v1024h-512v-1024z" />
    <glyph glyph-name="Dcroat" unicode="&#x110;" 
d="M2048 512h512v2560h-512v-2560zM512 0h1536v512h-1024v1024h512v512h-512v1024h1024v512h-1536v-1536h-512v-512h512v-1536z" />
    <glyph glyph-name="dcroat" unicode="&#x111;" horiz-adv-x="3584" 
d="M0 512h512v1536h-512v-1536zM512 2048h1024v512h-1024v-512zM512 0h2048v2560h512v512h-512v512h-512v-512h-512v-512h512v-512h-512v-512h512v-1024h-1536v-512z" />
    <glyph glyph-name="Emacron" unicode="&#x112;" 
d="M0 0h2560v512h-2048v1536h1024v512h-1024v512h2048v512h-2560v-3584zM512 4096h1536v512h-1536v-512z" />
    <glyph glyph-name="emacron" unicode="&#x113;" 
d="M512 0h2048v512h-2048v-512zM0 512h512v512h2048v1024h-512v-512h-1536v512h-512v-1536zM512 2048h1536v512h-1536v-512zM512 3072h1536v512h-1536v-512z" />
    <glyph glyph-name="Ebreve" unicode="&#x114;" 
d="M0 0h2560v512h-2048v1536h1024v512h-1024v512h2048v512h-2560v-3584zM512 4096h1536v512h-1536v-512zM0 4608h512v512h-512v-512zM2048 4608h512v512h-512v-512z" />
    <glyph glyph-name="ebreve" unicode="&#x115;" 
d="M512 0h2048v512h-2048v-512zM0 512h512v512h2048v1024h-512v-512h-1536v512h-512v-1536zM512 2048h1536v512h-1536v-512zM512 3072h1536v512h-1536v-512zM0 3584h512v512h-512v-512zM2048 3584h512v512h-512v-512z" />
    <glyph glyph-name="Edotaccent" unicode="&#x116;" 
d="M0 0h2560v512h-2048v1536h1024v512h-1024v512h2048v512h-2560v-3584zM1024 4096h512v512h-512v-512z" />
    <glyph glyph-name="edotaccent" unicode="&#x117;" 
d="M512 0h2048v512h-2048v-512zM0 512h512v512h2048v1024h-512v-512h-1536v512h-512v-1536zM512 2048h1536v512h-1536v-512zM1024 3072h512v512h-512v-512z" />
    <glyph glyph-name="Eogonek" unicode="&#x118;" 
d="M1536 -1024h1024v512h-512v512h512v512h-2048v1536h1024v512h-1024v512h2048v512h-2560v-3584h1536v-1024z" />
    <glyph glyph-name="eogonek" unicode="&#x119;" 
d="M1536 -1024h1024v512h-512v512h512v512h-2048v-512h1024v-1024zM0 512h512v512h2048v1024h-512v-512h-1536v512h-512v-1536zM512 2048h1536v512h-1536v-512z" />
    <glyph glyph-name="Ecaron" unicode="&#x11a;" 
d="M0 0h2560v512h-2048v1536h1024v512h-1024v512h2048v512h-2560v-3584zM1024 4096h512v512h-512v-512zM512 4608h512v512h-512v-512zM1536 4608h512v512h-512v-512z" />
    <glyph glyph-name="ecaron" unicode="&#x11b;" 
d="M512 0h2048v512h-2048v-512zM0 512h512v512h2048v1024h-512v-512h-1536v512h-512v-1536zM512 2048h1536v512h-1536v-512zM1024 3072h512v512h-512v-512zM512 3584h512v512h-512v-512zM1536 3584h512v512h-512v-512z" />
    <glyph glyph-name="Gcircumflex" unicode="&#x11c;" 
d="M512 0h1536v512h-1536v-512zM2048 512h512v2048h-1024v-512h512v-1536zM0 512h512v2560h-512v-2560zM512 3072h2048v512h-2048v-512zM512 4096h512v512h-512v-512zM1536 4096h512v512h-512v-512zM1024 4608h512v512h-512v-512z" />
    <glyph glyph-name="gcircumflex" unicode="&#x11d;" 
d="M0 -512h2048v512h-2048v-512zM0 1024h512v1024h-512v-1024zM2048 0h512v2560h-2048v-512h1536v-1024h-1536v-512h1536v-512zM512 3072h512v512h-512v-512zM1536 3072h512v512h-512v-512zM1024 3584h512v512h-512v-512z" />
    <glyph glyph-name="Gbreve" unicode="&#x11e;" 
d="M512 0h1536v512h-1536v-512zM2048 512h512v2048h-1024v-512h512v-1536zM0 512h512v2560h-512v-2560zM512 3072h2048v512h-2048v-512zM512 4096h1536v512h-1536v-512zM0 4608h512v512h-512v-512zM2048 4608h512v512h-512v-512z" />
    <glyph glyph-name="gbreve" unicode="&#x11f;" 
d="M0 -512h2048v512h-2048v-512zM0 1024h512v1024h-512v-1024zM2048 0h512v2560h-2048v-512h1536v-1024h-1536v-512h1536v-512zM512 3072h1536v512h-1536v-512zM0 3584h512v512h-512v-512zM2048 3584h512v512h-512v-512z" />
    <glyph glyph-name="Gdotaccent" unicode="&#x120;" 
d="M512 0h1536v512h-1536v-512zM2048 512h512v2048h-1024v-512h512v-1536zM0 512h512v2560h-512v-2560zM512 3072h2048v512h-2048v-512zM1024 4096h512v512h-512v-512z" />
    <glyph glyph-name="gdotaccent" unicode="&#x121;" 
d="M0 -512h2048v512h-2048v-512zM0 1024h512v1024h-512v-1024zM2048 0h512v2560h-2048v-512h1536v-1024h-1536v-512h1536v-512zM1024 3072h512v512h-512v-512z" />
    <glyph glyph-name="uni122" unicode="&#x122;" 
d="M1024 -1024h1024v512h-1024v-512zM2048 -512h512v512h-512v-512zM512 0h1536v512h-1536v-512zM2048 512h512v2048h-1024v-512h512v-1536zM0 512h512v2560h-512v-2560zM512 3072h2048v512h-2048v-512z" />
    <glyph glyph-name="uni123" unicode="&#x123;" 
d="M0 -512h2048v512h-2048v-512zM0 1024h512v1024h-512v-1024zM2048 0h512v2560h-2048v-512h1536v-1024h-1536v-512h1536v-512zM1024 3072h512v1024h-512v-1024zM1536 4096h512v512h-512v-512z" />
    <glyph glyph-name="Hcircumflex" unicode="&#x124;" 
d="M0 0h512v2048h1536v-2048h512v3584h-512v-1024h-1536v1024h-512v-3584zM512 4096h512v512h-512v-512zM1536 4096h512v512h-512v-512zM1024 4608h512v512h-512v-512z" />
    <glyph glyph-name="hcircumflex" unicode="&#x125;" 
d="M2048 0h512v2048h-512v-2048zM1024 2048h1024v512h-1024v-512zM0 0h512v1536h512v512h-512v1536h-512v-3584zM512 4096h512v512h-512v-512zM1536 4096h512v512h-512v-512zM1024 4608h512v512h-512v-512z" />
    <glyph glyph-name="Hbar" unicode="&#x126;" horiz-adv-x="3584" 
d="M2048 2048h-1024v512h1024v-512zM512 0h512v1536h1024v-1536h512v2560h512v512h-512v512h-512v-512h-1024v512h-512v-512h-512v-512h512v-2560z" />
    <glyph glyph-name="hbar" unicode="&#x127;" horiz-adv-x="3584" 
d="M2560 0h512v2048h-512v-2048zM1536 2048h1024v512h-1024v-512zM512 0h512v1536h512v512h-512v512h512v512h-512v512h-512v-512h-512v-512h512v-2560z" />
    <glyph glyph-name="Itilde" unicode="&#x128;" 
d="M512 0h1536v512h-512v2560h512v512h-1536v-512h512v-2560h-512v-512zM0 4096h512v512h-512v-512zM1024 4096h1024v512h-512v512h-1024v-512h512v-512zM2048 4608h512v512h-512v-512z" />
    <glyph glyph-name="itilde" unicode="&#x129;" 
d="M1024 0h512v2560h-512v-2560zM0 3072h512v512h-512v-512zM1024 3072h1024v512h-512v512h-1024v-512h512v-512zM2048 3584h512v512h-512v-512z" />
    <glyph glyph-name="Imacron" unicode="&#x12a;" horiz-adv-x="2048" 
d="M0 0h1536v512h-512v2560h512v512h-1536v-512h512v-2560h-512v-512zM0 4096h1536v512h-1536v-512z" />
    <glyph glyph-name="imacron" unicode="&#x12b;" horiz-adv-x="2048" 
d="M512 0h512v2560h-512v-2560zM0 3072h1536v512h-1536v-512z" />
    <glyph glyph-name="Ibreve" unicode="&#x12c;" 
d="M512 0h1536v512h-512v2560h512v512h-1536v-512h512v-2560h-512v-512zM512 4096h1536v512h-1536v-512zM0 4608h512v512h-512v-512zM2048 4608h512v512h-512v-512z" />
    <glyph glyph-name="ibreve" unicode="&#x12d;" 
d="M1024 0h512v2560h-512v-2560zM512 3072h1536v512h-1536v-512zM0 3584h512v512h-512v-512zM2048 3584h512v512h-512v-512z" />
    <glyph glyph-name="Iogonek" unicode="&#x12e;" horiz-adv-x="2048" 
d="M512 -1024h1024v512h-512v512h512v512h-512v2560h512v512h-1536v-512h512v-2560h-512v-512h512v-1024z" />
    <glyph glyph-name="iogonek" unicode="&#x12f;" horiz-adv-x="1536" 
d="M0 -1024h1024v512h-512v512h-512v-1024zM512 0h512v2560h-512v-2560zM512 3072h512v512h-512v-512z" />
    <glyph glyph-name="Idotaccent" unicode="&#x130;" horiz-adv-x="2048" 
d="M0 0h1536v512h-512v2560h512v512h-1536v-512h512v-2560h-512v-512zM512 4096h512v512h-512v-512z" />
    <glyph glyph-name="dotlessi" unicode="&#x131;" horiz-adv-x="1024" 
d="M0 0h512v2560h-512v-2560z" />
    <glyph glyph-name="IJ" unicode="&#x132;" horiz-adv-x="4096" 
d="M2560 0h512v512h-512v-512zM2048 512h512v512h-512v-512zM0 0h1536v512h-512v2560h512v512h-1536v-512h512v-2560h-512v-512zM3072 512h512v3072h-512v-3072z" />
    <glyph glyph-name="ij" unicode="&#x133;" 
d="M1536 -512h512v512h-512v-512zM1024 0h512v512h-512v-512zM0 0h512v2560h-512v-2560zM2048 0h512v2560h-512v-2560zM0 3072h512v512h-512v-512zM2048 3072h512v512h-512v-512z" />
    <glyph glyph-name="Jcircumflex" unicode="&#x134;" 
d="M512 0h1536v512h-1536v-512zM0 512h512v512h-512v-512zM2048 512h512v3072h-512v-3072zM512 4096h512v512h-512v-512zM1536 4096h512v512h-512v-512zM1024 4608h512v512h-512v-512z" />
    <glyph glyph-name="jcircumflex" unicode="&#x135;" 
d="M512 -512h1536v512h-1536v-512zM0 0h512v1024h-512v-1024zM2048 0h512v2560h-512v-2560zM512 3072h512v512h-512v-512zM1536 3072h512v512h-512v-512zM1024 3584h512v512h-512v-512z" />
    <glyph glyph-name="uni136" unicode="&#x136;" 
d="M512 -1024h1024v1024h-512v-512h-512v-512zM2048 0h512v1536h-512v-1536zM1536 1536h512v512h-512v-512zM1536 2560h512v512h-512v-512zM0 0h512v2048h1024v512h-1024v1024h-512v-3584zM2048 3072h512v512h-512v-512z" />
    <glyph glyph-name="uni137" unicode="&#x137;" horiz-adv-x="2560" 
d="M0 -1024h1024v1024h-512v-512h-512v-512zM1536 0h512v512h-512v-512zM1024 512h512v512h-512v-512zM1024 1536h512v512h-512v-512zM1536 2048h512v512h-512v-512zM0 0h512v1024h512v512h-512v2048h-512v-3584z" />
    <glyph glyph-name="kgreenlandic" unicode="&#x138;" horiz-adv-x="2560" 
d="M1536 0h512v512h-512v-512zM1024 512h512v512h-512v-512zM1024 1536h512v512h-512v-512zM0 0h512v1024h512v512h-512v1024h-512v-2560zM1536 2048h512v512h-512v-512z" />
    <glyph glyph-name="Lacute" unicode="&#x139;" 
d="M0 0h2560v512h-2048v3072h-512v-3584zM1024 4096h512v512h-512v-512zM1536 4608h512v512h-512v-512z" />
    <glyph glyph-name="lacute" unicode="&#x13a;" horiz-adv-x="1536" 
d="M512 0h512v512h-512v-512zM0 512h512v3072h-512v-3072zM0 4096h512v512h-512v-512zM512 4608h512v512h-512v-512z" />
    <glyph glyph-name="uni13B" unicode="&#x13b;" 
d="M512 -1024h1024v1024h1024v512h-2048v3072h-512v-3584h1024v-512h-512v-512z" />
    <glyph glyph-name="uni13C" unicode="&#x13c;" horiz-adv-x="1536" 
d="M0 -1024h1024v1536h-512v-1024h-512v-512zM0 512h512v3072h-512v-3072z" />
    <glyph glyph-name="Lcaron" unicode="&#x13d;" 
d="M1536 2048h512v512h-512v-512zM0 0h2560v512h-2048v3072h-512v-3584zM2048 2560h512v1024h-512v-1024z" />
    <glyph glyph-name="lcaron" unicode="&#x13e;" horiz-adv-x="2048" 
d="M512 0h512v512h-512v-512zM0 512h512v3072h-512v-3072zM1024 2560h512v1024h-512v-1024z" />
    <glyph glyph-name="Ldot" unicode="&#x13f;" 
d="M1536 1536h512v512h-512v-512zM0 0h2560v512h-2048v3072h-512v-3584z" />
    <glyph glyph-name="ldot" unicode="&#x140;" horiz-adv-x="2048" 
d="M512 0h512v512h-512v-512zM1024 1536h512v512h-512v-512zM0 512h512v3072h-512v-3072z" />
    <glyph glyph-name="Lslash" unicode="&#x141;" horiz-adv-x="3584" 
d="M1536 2048h512v512h-512v-512zM512 0h2560v512h-2048v1024h512v512h-512v1536h-512v-2048h-512v-512h512v-1024z" />
    <glyph glyph-name="lslash" unicode="&#x142;" horiz-adv-x="2560" 
d="M1024 0h512v512h-512v-512zM1536 2048h512v512h-512v-512zM512 512h512v1024h512v512h-512v1536h-512v-2048h-512v-512h512v-512z" />
    <glyph glyph-name="Nacute" unicode="&#x143;" 
d="M1024 2048h512v512h-512v-512zM0 0h512v2560h512v512h-512v512h-512v-3584zM2048 0h512v3584h-512v-1536h-512v-512h512v-1536zM1024 4096h512v512h-512v-512zM1536 4608h512v512h-512v-512z" />
    <glyph glyph-name="nacute" unicode="&#x144;" 
d="M2048 0h512v2048h-512v-2048zM0 0h512v2048h1536v512h-2048v-2560zM1024 3072h512v512h-512v-512zM1536 3584h512v512h-512v-512z" />
    <glyph glyph-name="uni145" unicode="&#x145;" 
d="M512 -1024h1024v1024h-512v-512h-512v-512zM1024 2048h512v512h-512v-512zM0 0h512v2560h512v512h-512v512h-512v-3584zM2048 0h512v3584h-512v-1536h-512v-512h512v-1536z" />
    <glyph glyph-name="uni146" unicode="&#x146;" 
d="M512 -1024h1024v1024h-512v-512h-512v-512zM2048 0h512v2048h-512v-2048zM0 0h512v2048h1536v512h-2048v-2560z" />
    <glyph glyph-name="Ncaron" unicode="&#x147;" 
d="M1024 2048h512v512h-512v-512zM0 0h512v2560h512v512h-512v512h-512v-3584zM2048 0h512v3584h-512v-1536h-512v-512h512v-1536zM1024 4096h512v512h-512v-512zM512 4608h512v512h-512v-512zM1536 4608h512v512h-512v-512z" />
    <glyph glyph-name="ncaron" unicode="&#x148;" 
d="M2048 0h512v2048h-512v-2048zM0 0h512v2048h1536v512h-2048v-2560zM1024 3072h512v512h-512v-512zM512 3584h512v512h-512v-512zM1536 3584h512v512h-512v-512z" />
    <glyph glyph-name="napostrophe" unicode="&#x149;" horiz-adv-x="3584" 
d="M2560 0h512v2048h-512v-2048zM1024 0h512v2048h1024v512h-1536v-2560zM0 2560h512v512h-512v-512zM512 3072h512v1024h-512v-1024z" />
    <glyph glyph-name="Eng" unicode="&#x14a;" 
d="M1536 -512h512v512h-512v-512zM1024 2048h512v512h-512v-512zM0 0h512v2560h512v512h-512v512h-512v-3584zM2048 0h512v3584h-512v-1536h-512v-512h512v-1536z" />
    <glyph glyph-name="eng" unicode="&#x14b;" 
d="M1536 -512h512v512h-512v-512zM2048 0h512v2048h-512v-2048zM0 0h512v2048h1536v512h-2048v-2560z" />
    <glyph glyph-name="Omacron" unicode="&#x14c;" 
d="M512 0h1536v512h-1536v-512zM0 512h512v2560h-512v-2560zM2048 512h512v2560h-512v-2560zM512 3072h1536v512h-1536v-512zM512 4096h1536v512h-1536v-512z" />
    <glyph glyph-name="omacron" unicode="&#x14d;" 
d="M512 0h1536v512h-1536v-512zM0 512h512v1536h-512v-1536zM2048 512h512v1536h-512v-1536zM512 2048h1536v512h-1536v-512zM512 3072h1536v512h-1536v-512z" />
    <glyph glyph-name="Obreve" unicode="&#x14e;" 
d="M512 0h1536v512h-1536v-512zM0 512h512v2560h-512v-2560zM2048 512h512v2560h-512v-2560zM512 3072h1536v512h-1536v-512zM512 4096h1536v512h-1536v-512zM0 4608h512v512h-512v-512zM2048 4608h512v512h-512v-512z" />
    <glyph glyph-name="obreve" unicode="&#x14f;" 
d="M512 0h1536v512h-1536v-512zM0 512h512v1536h-512v-1536zM2048 512h512v1536h-512v-1536zM512 2048h1536v512h-1536v-512zM512 3072h1536v512h-1536v-512zM0 3584h512v512h-512v-512zM2048 3584h512v512h-512v-512z" />
    <glyph glyph-name="Ohungarumlaut" unicode="&#x150;" 
d="M512 0h1536v512h-1536v-512zM0 512h512v2560h-512v-2560zM2048 512h512v2560h-512v-2560zM512 3072h1536v512h-1536v-512zM0 4096h512v512h-512v-512zM1536 4096h512v512h-512v-512zM512 4608h512v512h-512v-512zM2048 4608h512v512h-512v-512z" />
    <glyph glyph-name="ohungarumlaut" unicode="&#x151;" 
d="M512 0h1536v512h-1536v-512zM0 512h512v1536h-512v-1536zM2048 512h512v1536h-512v-1536zM512 2048h1536v512h-1536v-512zM0 3072h512v512h-512v-512zM1536 3072h512v512h-512v-512zM512 3584h512v512h-512v-512zM2048 3584h512v512h-512v-512z" />
    <glyph glyph-name="OE" unicode="&#x152;" 
d="M0 512h512v2560h-512v-2560zM512 0h2048v512h-1024v1536h512v512h-512v512h1024v512h-2048v-512h512v-2560h-512v-512z" />
    <glyph glyph-name="oe" unicode="&#x153;" 
d="M512 0h512v512h-512v-512zM1536 0h1024v512h-1024v-512zM0 512h512v1536h-512v-1536zM1024 512h512v512h1024v1024h-512v-512h-512v512h-512v-1536zM512 2048h512v512h-512v-512zM1536 2048h512v512h-512v-512z" />
    <glyph glyph-name="Racute" unicode="&#x154;" 
d="M2048 0h512v2048h-512v-2048zM2048 2560h512v512h-512v-512zM0 0h512v2048h1536v512h-1536v512h1536v512h-2048v-3584zM1024 4096h512v512h-512v-512zM1536 4608h512v512h-512v-512z" />
    <glyph glyph-name="racute" unicode="&#x155;" 
d="M2048 1536h512v512h-512v-512zM0 0h512v1536h512v512h-512v512h-512v-2560zM1024 2048h1024v512h-1024v-512zM1024 3072h512v512h-512v-512zM1536 3584h512v512h-512v-512z" />
    <glyph glyph-name="uni156" unicode="&#x156;" 
d="M512 -1024h1024v1024h-512v-512h-512v-512zM2048 0h512v2048h-512v-2048zM2048 2560h512v512h-512v-512zM0 0h512v2048h1536v512h-1536v512h1536v512h-2048v-3584z" />
    <glyph glyph-name="uni157" unicode="&#x157;" 
d="M0 -1024h1024v1024h-512v-512h-512v-512zM2048 1536h512v512h-512v-512zM0 0h512v1536h512v512h-512v512h-512v-2560zM1024 2048h1024v512h-1024v-512z" />
    <glyph glyph-name="Rcaron" unicode="&#x158;" 
d="M2048 0h512v2048h-512v-2048zM2048 2560h512v512h-512v-512zM0 0h512v2048h1536v512h-1536v512h1536v512h-2048v-3584zM1024 4096h512v512h-512v-512zM512 4608h512v512h-512v-512zM1536 4608h512v512h-512v-512z" />
    <glyph glyph-name="rcaron" unicode="&#x159;" 
d="M2048 1536h512v512h-512v-512zM0 0h512v1536h512v512h-512v512h-512v-2560zM1024 2048h1024v512h-1024v-512zM1024 3072h512v512h-512v-512zM512 3584h512v512h-512v-512zM1536 3584h512v512h-512v-512z" />
    <glyph glyph-name="Sacute" unicode="&#x15a;" 
d="M512 0h1536v512h-1536v-512zM0 512h512v512h-512v-512zM2048 512h512v1536h-512v-1536zM512 2048h1536v512h-1536v-512zM0 2560h512v512h-512v-512zM512 3072h2048v512h-2048v-512zM1024 4096h512v512h-512v-512zM1536 4608h512v512h-512v-512z" />
    <glyph glyph-name="sacute" unicode="&#x15b;" 
d="M0 0h2048v512h-2048v-512zM2048 512h512v512h-512v-512zM512 1024h1536v512h-1536v-512zM0 1536h512v512h-512v-512zM512 2048h2048v512h-2048v-512zM1024 3072h512v512h-512v-512zM1536 3584h512v512h-512v-512z" />
    <glyph glyph-name="Scircumflex" unicode="&#x15c;" 
d="M512 0h1536v512h-1536v-512zM0 512h512v512h-512v-512zM2048 512h512v1536h-512v-1536zM512 2048h1536v512h-1536v-512zM0 2560h512v512h-512v-512zM512 3072h2048v512h-2048v-512zM512 4096h512v512h-512v-512zM1536 4096h512v512h-512v-512zM1024 4608h512v512h-512
v-512z" />
    <glyph glyph-name="scircumflex" unicode="&#x15d;" 
d="M0 0h2048v512h-2048v-512zM2048 512h512v512h-512v-512zM512 1024h1536v512h-1536v-512zM0 1536h512v512h-512v-512zM512 2048h2048v512h-2048v-512zM512 3072h512v512h-512v-512zM1536 3072h512v512h-512v-512zM1024 3584h512v512h-512v-512z" />
    <glyph glyph-name="Scedilla" unicode="&#x15e;" 
d="M1024 -1024h1024v512h-1024v-512zM2048 -512h512v512h-512v-512zM512 0h1536v512h-1536v-512zM0 512h512v512h-512v-512zM2048 512h512v1536h-512v-1536zM512 2048h1536v512h-1536v-512zM0 2560h512v512h-512v-512zM512 3072h2048v512h-2048v-512z" />
    <glyph glyph-name="scedilla" unicode="&#x15f;" 
d="M1024 -1024h1024v512h-1024v-512zM2048 -512h512v512h-512v-512zM0 0h2048v512h-2048v-512zM2048 512h512v512h-512v-512zM512 1024h1536v512h-1536v-512zM0 1536h512v512h-512v-512zM512 2048h2048v512h-2048v-512z" />
    <glyph glyph-name="Scaron" unicode="&#x160;" 
d="M512 0h1536v512h-1536v-512zM0 512h512v512h-512v-512zM2048 512h512v1536h-512v-1536zM512 2048h1536v512h-1536v-512zM0 2560h512v512h-512v-512zM512 3072h2048v512h-2048v-512zM1024 4096h512v512h-512v-512zM512 4608h512v512h-512v-512zM1536 4608h512v512h-512
v-512z" />
    <glyph glyph-name="scaron" unicode="&#x161;" 
d="M0 0h2048v512h-2048v-512zM2048 512h512v512h-512v-512zM512 1024h1536v512h-1536v-512zM0 1536h512v512h-512v-512zM512 2048h2048v512h-2048v-512zM1024 3072h512v512h-512v-512zM512 3584h512v512h-512v-512zM1536 3584h512v512h-512v-512z" />
    <glyph glyph-name="uni162" unicode="&#x162;" 
d="M512 -1024h1024v512h-1024v-512zM1536 -512h512v512h-512v-512zM1024 0h512v3072h1024v512h-2560v-512h1024v-3072z" />
    <glyph glyph-name="uni163" unicode="&#x163;" horiz-adv-x="2560" 
d="M512 -1024h1024v512h-1024v-512zM1536 -512h512v512h-512v-512zM1024 0h512v512h-512v-512zM512 512h512v1536h512v512h-512v1024h-512v-1024h-512v-512h512v-1536z" />
    <glyph glyph-name="Tcaron" unicode="&#x164;" 
d="M1024 0h512v3072h1024v512h-2560v-512h1024v-3072zM1024 4096h512v512h-512v-512zM512 4608h512v512h-512v-512zM1536 4608h512v512h-512v-512z" />
    <glyph glyph-name="tcaron" unicode="&#x165;" horiz-adv-x="2560" 
d="M1024 0h512v512h-512v-512zM512 512h512v1536h512v512h-512v1024h-512v-1024h-512v-512h512v-1536zM1536 2560h512v1024h-512v-1024z" />
    <glyph glyph-name="Tbar" unicode="&#x166;" 
d="M1024 0h512v2048h512v512h-512v512h1024v512h-2560v-512h1024v-512h-512v-512h512v-2048z" />
    <glyph glyph-name="tbar" unicode="&#x167;" horiz-adv-x="2048" 
d="M1024 0h512v512h-512v-512zM512 512h512v512h512v512h-512v512h512v512h-512v1024h-512v-1024h-512v-512h512v-512h-512v-512h512v-512z" />
    <glyph glyph-name="Utilde" unicode="&#x168;" 
d="M512 0h1536v512h-1536v-512zM0 512h512v3072h-512v-3072zM2048 512h512v3072h-512v-3072zM0 4096h512v512h-512v-512zM1024 4096h1024v512h-512v512h-1024v-512h512v-512zM2048 4608h512v512h-512v-512z" />
    <glyph glyph-name="utilde" unicode="&#x169;" 
d="M0 512h512v2048h-512v-2048zM512 0h2048v2560h-512v-2048h-1536v-512zM0 3072h512v512h-512v-512zM1024 3072h1024v512h-512v512h-1024v-512h512v-512zM2048 3584h512v512h-512v-512z" />
    <glyph glyph-name="Umacron" unicode="&#x16a;" 
d="M512 0h1536v512h-1536v-512zM0 512h512v3072h-512v-3072zM2048 512h512v3072h-512v-3072zM512 4096h1536v512h-1536v-512z" />
    <glyph glyph-name="umacron" unicode="&#x16b;" 
d="M0 512h512v2048h-512v-2048zM512 0h2048v2560h-512v-2048h-1536v-512zM512 3072h1536v512h-1536v-512z" />
    <glyph glyph-name="Ubreve" unicode="&#x16c;" 
d="M512 0h1536v512h-1536v-512zM0 512h512v3072h-512v-3072zM2048 512h512v3072h-512v-3072zM512 4096h1536v512h-1536v-512zM0 4608h512v512h-512v-512zM2048 4608h512v512h-512v-512z" />
    <glyph glyph-name="ubreve" unicode="&#x16d;" 
d="M0 512h512v2048h-512v-2048zM512 0h2048v2560h-512v-2048h-1536v-512zM512 3072h1536v512h-1536v-512zM0 3584h512v512h-512v-512zM2048 3584h512v512h-512v-512z" />
    <glyph glyph-name="Uring" unicode="&#x16e;" 
d="M512 0h1536v512h-1536v-512zM0 512h512v3072h-512v-3072zM2048 512h512v3072h-512v-3072zM1024 3584h512v512h-512v-512zM512 4096h512v512h-512v-512zM1536 4096h512v512h-512v-512zM1024 4608h512v512h-512v-512z" />
    <glyph glyph-name="uring" unicode="&#x16f;" 
d="M0 512h512v2048h-512v-2048zM512 0h2048v2560h-512v-2048h-1536v-512zM1024 2560h512v512h-512v-512zM512 3072h512v512h-512v-512zM1536 3072h512v512h-512v-512zM1024 3584h512v512h-512v-512z" />
    <glyph glyph-name="Uhungarumlaut" unicode="&#x170;" 
d="M512 0h1536v512h-1536v-512zM0 512h512v3072h-512v-3072zM2048 512h512v3072h-512v-3072zM0 4096h512v512h-512v-512zM1536 4096h512v512h-512v-512zM512 4608h512v512h-512v-512zM2048 4608h512v512h-512v-512z" />
    <glyph glyph-name="uhungarumlaut" unicode="&#x171;" 
d="M0 512h512v2048h-512v-2048zM512 0h2048v2560h-512v-2048h-1536v-512zM0 3072h512v512h-512v-512zM1536 3072h512v512h-512v-512zM512 3584h512v512h-512v-512zM2048 3584h512v512h-512v-512z" />
    <glyph glyph-name="Uogonek" unicode="&#x172;" 
d="M1024 -1024h1024v512h-512v512h512v512h-1536v-512h512v-1024zM0 512h512v3072h-512v-3072zM2048 512h512v3072h-512v-3072z" />
    <glyph glyph-name="uogonek" unicode="&#x173;" 
d="M0 512h512v2048h-512v-2048zM1536 -1024h1024v512h-512v512h512v2560h-512v-2048h-1536v-512h1024v-1024z" />
    <glyph glyph-name="Wcircumflex" unicode="&#x174;" 
d="M1024 1024h512v512h-512v-512zM0 0h512v512h512v512h-512v2560h-512v-3584zM2048 0h512v3584h-512v-2560h-512v-512h512v-512zM512 4096h512v512h-512v-512zM1536 4096h512v512h-512v-512zM1024 4608h512v512h-512v-512z" />
    <glyph glyph-name="wcircumflex" unicode="&#x175;" 
d="M0 512h512v2048h-512v-2048zM512 0h2048v2560h-512v-2048h-512v1024h-512v-1024h-512v-512zM512 3072h512v512h-512v-512zM1536 3072h512v512h-512v-512zM1024 3584h512v512h-512v-512z" />
    <glyph glyph-name="Ycircumflex" unicode="&#x176;" 
d="M1024 0h512v2560h-512v-2560zM512 2560h512v512h-512v-512zM1536 2560h512v512h-512v-512zM0 3072h512v512h-512v-512zM2048 3072h512v512h-512v-512zM512 4096h512v512h-512v-512zM1536 4096h512v512h-512v-512zM1024 4608h512v512h-512v-512z" />
    <glyph glyph-name="ycircumflex" unicode="&#x177;" 
d="M0 -512h2048v512h-2048v-512zM0 1024h512v1536h-512v-1536zM2048 0h512v2560h-512v-1536h-1536v-512h1536v-512zM512 3072h512v512h-512v-512zM1536 3072h512v512h-512v-512zM1024 3584h512v512h-512v-512z" />
    <glyph glyph-name="Ydieresis" unicode="&#x178;" 
d="M1024 0h512v2560h-512v-2560zM512 2560h512v512h-512v-512zM1536 2560h512v512h-512v-512zM0 3072h512v512h-512v-512zM2048 3072h512v512h-512v-512zM512 4096h512v512h-512v-512zM1536 4096h512v512h-512v-512z" />
    <glyph glyph-name="Zacute" unicode="&#x179;" 
d="M0 0h2560v512h-2048v512h-512v-1024zM512 1024h512v512h-512v-512zM1024 1536h512v512h-512v-512zM1536 2048h512v512h-512v-512zM2048 2560h512v1024h-2560v-512h2048v-512zM1024 4096h512v512h-512v-512zM1536 4608h512v512h-512v-512z" />
    <glyph glyph-name="zacute" unicode="&#x17a;" 
d="M0 0h2560v512h-1536v512h-512v-512h-512v-512zM1024 1024h512v512h-512v-512zM1536 1536h512v512h512v512h-2560v-512h1536v-512zM1024 3072h512v512h-512v-512zM1536 3584h512v512h-512v-512z" />
    <glyph glyph-name="Zdotaccent" unicode="&#x17b;" 
d="M0 0h2560v512h-2048v512h-512v-1024zM512 1024h512v512h-512v-512zM1024 1536h512v512h-512v-512zM1536 2048h512v512h-512v-512zM2048 2560h512v1024h-2560v-512h2048v-512zM1024 4096h512v512h-512v-512z" />
    <glyph glyph-name="zdotaccent" unicode="&#x17c;" 
d="M0 0h2560v512h-1536v512h-512v-512h-512v-512zM1024 1024h512v512h-512v-512zM1536 1536h512v512h512v512h-2560v-512h1536v-512zM1024 3072h512v512h-512v-512z" />
    <glyph glyph-name="Zcaron" unicode="&#x17d;" 
d="M0 0h2560v512h-2048v512h-512v-1024zM512 1024h512v512h-512v-512zM1024 1536h512v512h-512v-512zM1536 2048h512v512h-512v-512zM2048 2560h512v1024h-2560v-512h2048v-512zM1024 4096h512v512h-512v-512zM512 4608h512v512h-512v-512zM1536 4608h512v512h-512v-512z
" />
    <glyph glyph-name="zcaron" unicode="&#x17e;" 
d="M0 0h2560v512h-1536v512h-512v-512h-512v-512zM1024 1024h512v512h-512v-512zM1536 1536h512v512h512v512h-2560v-512h1536v-512zM1024 3072h512v512h-512v-512zM512 3584h512v512h-512v-512zM1536 3584h512v512h-512v-512z" />
    <glyph glyph-name="longs" unicode="&#x17f;" horiz-adv-x="2048" 
d="M0 0h512v3072h-512v-3072zM512 3072h1024v512h-1024v-512z" />
    <glyph glyph-name="uni180" unicode="&#x180;" horiz-adv-x="3584" 
d="M2560 512h512v1536h-512v-1536zM1536 2048h1024v512h-1024v-512zM512 0h2048v512h-1536v1024h512v512h-512v512h512v512h-512v512h-512v-512h-512v-512h512v-2560z" />
    <glyph glyph-name="uni181" unicode="&#x181;" 
d="M2048 512h512v1536h-512v-1536zM0 2560h512v512h-512v-512zM2048 2560h512v512h-512v-512zM1024 0h1024v512h-512v1536h512v512h-512v512h512v512h-1536v-512h512v-3072z" />
    <glyph glyph-name="uni182" unicode="&#x182;" 
d="M2048 512h512v1536h-512v-1536zM0 0h2048v512h-1536v1536h1536v512h-1536v512h2048v512h-2560v-3584z" />
    <glyph glyph-name="uni183" unicode="&#x183;" 
d="M2048 512h512v1536h-512v-1536zM1024 2048h1024v512h-1024v-512zM0 0h2048v512h-1536v1024h512v512h-512v1024h2048v512h-2560v-3584z" />
    <glyph glyph-name="uni184" unicode="&#x184;" 
d="M2048 512h512v1536h-512v-1536zM512 0h1536v512h-1024v1536h1024v512h-1024v1024h-512v-512h-512v-512h512v-2560z" />
    <glyph glyph-name="uni185" unicode="&#x185;" 
d="M2048 512h512v1536h-512v-1536zM1536 2048h512v512h-512v-512zM512 0h1536v512h-1024v1024h512v512h-512v1536h-512v-512h-512v-512h512v-2560z" />
    <glyph glyph-name="uni186" unicode="&#x186;" 
d="M512 0h1536v512h-1536v-512zM0 512h512v512h-512v-512zM0 2560h512v512h-512v-512zM2048 512h512v2560h-512v-2560zM512 3072h1536v512h-1536v-512z" />
    <glyph glyph-name="uni187" unicode="&#x187;" 
d="M512 0h1024v512h-1024v-512zM1536 512h512v512h-512v-512zM0 512h512v2560h-512v-2560zM512 3072h1536v1024h-512v-512h-1024v-512zM2048 4096h512v512h-512v-512z" />
    <glyph glyph-name="uni188" unicode="&#x188;" 
d="M512 0h1024v512h-1024v-512zM1536 512h512v512h-512v-512zM0 512h512v1536h-512v-1536zM512 2048h1536v1024h-512v-512h-1024v-512zM2048 3072h512v512h-512v-512z" />
    <glyph glyph-name="uni189" unicode="&#x189;" 
d="M2048 512h512v2560h-512v-2560zM512 0h1536v512h-1024v1024h512v512h-512v1024h1024v512h-1536v-1536h-512v-512h512v-1536z" />
    <glyph glyph-name="uni18A" unicode="&#x18a;" 
d="M0 2560h512v512h-512v-512zM2048 512h512v2560h-512v-2560zM1024 0h1024v512h-512v2560h512v512h-1536v-512h512v-3072z" />
    <glyph glyph-name="uni18B" unicode="&#x18b;" 
d="M0 512h512v1536h-512v-1536zM512 0h2048v3584h-2560v-512h2048v-512h-1536v-512h1536v-1536h-1536v-512z" />
    <glyph glyph-name="uni18C" unicode="&#x18c;" 
d="M0 512h512v1536h-512v-1536zM512 2048h1024v512h-1024v-512zM512 0h2048v3584h-2560v-512h2048v-1024h-512v-512h512v-1024h-1536v-512z" />
    <glyph glyph-name="uni18D" unicode="&#x18d;" 
d="M0 -1024h2048v1536h-1536v-512h1024v-512h-1536v-512zM0 512h512v1536h-512v-1536zM2048 512h512v1536h-512v-1536zM512 2048h1536v512h-1536v-512z" />
    <glyph glyph-name="uni18E" unicode="&#x18e;" 
d="M0 0h2560v3584h-2560v-512h2048v-512h-1024v-512h1024v-1536h-2048v-512z" />
    <glyph glyph-name="uni18F" unicode="&#x18f;" 
d="M512 0h1536v512h-1536v-512zM0 512h512v1536h1536v-1536h512v2560h-512v-512h-2048v-2048zM0 3072h2048v512h-2048v-512z" />
    <glyph glyph-name="uni190" unicode="&#x190;" 
d="M512 0h1536v512h-1536v-512zM2048 512h512v512h-512v-512zM0 512h512v1536h-512v-1536zM512 2048h1024v512h-1024v-512zM0 2560h512v512h-512v-512zM2048 2560h512v512h-512v-512zM512 3072h1536v512h-1536v-512z" />
    <glyph glyph-name="uni191" unicode="&#x191;" 
d="M512 -512h512v512h-512v-512zM0 0h512v512h-512v-512zM1024 0h512v2048h512v512h-512v512h1024v512h-1536v-3584z" />
    <glyph glyph-name="florin" unicode="&#x192;" 
d="M512 -512h512v512h-512v-512zM0 0h512v512h-512v-512zM1024 0h512v1536h512v512h-512v1024h-512v-1024h-512v-512h512v-1536zM2048 2560h512v512h-512v-512zM1536 3072h512v512h-512v-512z" />
    <glyph glyph-name="uni193" unicode="&#x193;" 
d="M512 0h1024v512h-1024v-512zM1536 512h512v2048h-1024v-512h512v-1536zM0 512h512v2560h-512v-2560zM512 3072h1536v1024h-512v-512h-1024v-512zM2048 4096h512v512h-512v-512z" />
    <glyph glyph-name="uni194" unicode="&#x194;" 
d="M1024 -512h512v512h-512v-512zM512 0h512v512h-512v-512zM1536 0h512v512h-512v-512zM1024 512h512v512h-512v-512zM512 1024h512v1024h-512v-1024zM1536 1024h512v1024h-512v-1024zM0 2048h512v1536h-512v-1536zM2048 2048h512v1536h-512v-1536z" />
    <glyph glyph-name="uni195" unicode="&#x195;" horiz-adv-x="3584" 
d="M2048 0h512v512h-512v-512zM1536 512h512v1536h-512v-1536zM1024 2048h512v512h-512v-512zM2560 512h512v2048h-512v-2048zM0 0h512v1536h512v512h-512v1536h-512v-3584z" />
    <glyph glyph-name="uni196" unicode="&#x196;" horiz-adv-x="2048" 
d="M1024 0h512v512h-512v-512zM512 512h512v2560h512v512h-1536v-512h512v-2560z" />
    <glyph glyph-name="uni197" unicode="&#x197;" horiz-adv-x="2048" 
d="M0 0h1536v512h-512v1024h512v512h-512v1024h512v512h-1536v-512h512v-1024h-512v-512h512v-1024h-512v-512z" />
    <glyph glyph-name="uni198" unicode="&#x198;" 
d="M2048 0h512v1024h-512v-1024zM1536 1024h512v512h-512v-512zM1024 1536h512v512h-512v-512zM1024 2560h512v512h-512v-512zM2048 2560h512v512h-512v-512zM0 0h512v2048h512v512h-512v1024h-512v-3584zM1536 3072h512v512h-512v-512z" />
    <glyph glyph-name="uni199" unicode="&#x199;" horiz-adv-x="2560" 
d="M1536 0h512v512h-512v-512zM1024 512h512v512h-512v-512zM1024 1536h512v512h-512v-512zM1536 2048h512v512h-512v-512zM0 0h512v1024h512v512h-512v1536h-512v-3072zM512 3072h512v512h-512v-512z" />
    <glyph glyph-name="uni19A" unicode="&#x19a;" horiz-adv-x="2048" 
d="M1024 0h512v512h-512v-512zM512 512h512v1024h512v512h-512v1536h-512v-1536h-512v-512h512v-1024z" />
    <glyph glyph-name="uni19B" unicode="&#x19b;" 
d="M0 0h512v1536h-512v-1536zM2048 0h512v1536h-512v-1536zM512 1536h512v512h-512v-512zM1536 1536h512v512h-512v-512zM0 2048h512v512h-512v-512zM1024 2048h512v512h-512v-512zM512 2560h512v512h-512v-512zM0 3072h512v512h-512v-512zM1024 3072h512v512h-512v-512z
" />
    <glyph glyph-name="uni19C" unicode="&#x19c;" 
d="M512 0h512v512h-512v-512zM0 512h512v3072h-512v-3072zM1024 512h512v3072h-512v-3072zM1536 0h1024v3584h-512v-3072h-512v-512z" />
    <glyph glyph-name="uni19D" unicode="&#x19d;" horiz-adv-x="3584" 
d="M512 -512h512v512h-512v-512zM0 0h512v512h-512v-512zM1024 0h512v2560h512v512h-512v512h-512v-3584zM2560 0h512v3584h-512v-1024h-512v-512h512v-2048z" />
    <glyph glyph-name="uni19E" unicode="&#x19e;" 
d="M2048 -512h512v2560h-512v-2560zM0 0h512v2048h1536v512h-2048v-2560z" />
    <glyph glyph-name="uni19F" unicode="&#x19f;" 
d="M512 0h1536v512h-1536v-512zM0 512h512v1536h1536v-1536h512v2560h-512v-512h-1536v512h-512v-2560zM512 3072h1536v512h-1536v-512z" />
    <glyph glyph-name="Ohorn" unicode="&#x1a0;" 
d="M512 0h1024v512h-1024v-512zM0 512h512v2560h-512v-2560zM1536 512h512v2560h-512v-2560zM512 3072h1024v512h-1024v-512zM2048 3072h512v512h-512v-512z" />
    <glyph glyph-name="ohorn" unicode="&#x1a1;" 
d="M512 0h1024v512h-1024v-512zM0 512h512v1536h-512v-1536zM1536 512h512v1536h-512v-1536zM512 2048h1024v512h-1024v-512zM2048 2048h512v512h-512v-512z" />
    <glyph glyph-name="uni1A2" unicode="&#x1a2;" 
d="M0 512h512v2560h-512v-2560zM2048 -512h512v4096h-512v-512h-512v512h-1024v-512h512v-2560h-512v-512h1024v2560h512v-3072z" />
    <glyph glyph-name="uni1A3" unicode="&#x1a3;" 
d="M0 512h512v1536h-512v-1536zM2048 -512h512v3072h-512v-512h-512v512h-1024v-512h512v-1536h-512v-512h1024v1536h512v-2048z" />
    <glyph glyph-name="uni1A4" unicode="&#x1a4;" 
d="M0 2560h512v512h-512v-512zM2048 2560h512v512h-512v-512zM1024 0h512v2048h512v512h-512v512h512v512h-1536v-512h512v-3072z" />
    <glyph glyph-name="uni1A5" unicode="&#x1a5;" 
d="M2048 1024h512v1024h-512v-1024zM1024 2048h1024v512h-1024v-512zM0 -512h512v1024h1536v512h-1536v512h512v512h-512v1024h-512v-3584zM512 3072h512v512h-512v-512z" />
    <glyph glyph-name="uni1A6" unicode="&#x1a6;" 
d="M2048 -512h512v2560h-512v-2560zM2048 2560h512v512h-512v-512zM0 0h512v2048h1536v512h-1536v512h1536v512h-1536v512h-512v-4096z" />
    <glyph glyph-name="uni1A7" unicode="&#x1a7;" 
d="M512 0h1536v512h-1536v-512zM2048 512h512v512h-512v-512zM0 512h512v1536h-512v-1536zM512 2048h1536v512h-1536v-512zM2048 2560h512v512h-512v-512zM0 3072h2048v512h-2048v-512z" />
    <glyph glyph-name="uni1A8" unicode="&#x1a8;" 
d="M512 0h2048v512h-2048v-512zM0 512h512v512h-512v-512zM512 1024h1536v512h-1536v-512zM2048 1536h512v512h-512v-512zM0 2048h2048v512h-2048v-512z" />
    <glyph glyph-name="uni1A9" unicode="&#x1a9;" 
d="M0 0h2560v512h-2048v512h-512v-1024zM512 1024h512v512h-512v-512zM1024 1536h512v512h-512v-512zM512 2048h512v512h-512v-512zM0 2560h512v512h2048v512h-2560v-1024z" />
    <glyph glyph-name="uni1AB" unicode="&#x1ab;" horiz-adv-x="2048" 
d="M512 -1024h512v512h-512v-512zM1024 -512h512v1024h-512v-1024zM512 512h512v1536h512v512h-512v1024h-512v-1024h-512v-512h512v-1536z" />
    <glyph glyph-name="uni1AC" unicode="&#x1ac;" 
d="M0 2560h512v512h-512v-512zM1024 0h512v3072h1024v512h-2048v-512h512v-3072z" />
    <glyph glyph-name="uni1AD" unicode="&#x1ad;" horiz-adv-x="2048" 
d="M1024 0h512v512h-512v-512zM512 512h512v1536h512v512h-512v512h-512v-512h-512v-512h512v-1536zM1024 3072h512v512h-512v-512z" />
    <glyph glyph-name="uni1AE" unicode="&#x1ae;" 
d="M1536 -512h512v512h-512v-512zM2048 0h512v512h-512v-512zM1024 0h512v3072h1024v512h-2560v-512h1024v-3072z" />
    <glyph glyph-name="Uhorn" unicode="&#x1af;" horiz-adv-x="3584" 
d="M512 0h1024v512h-1024v-512zM0 512h512v3072h-512v-3072zM1536 512h512v2048h512v512h-512v512h-512v-3072zM2560 3072h512v512h-512v-512z" />
    <glyph glyph-name="uhorn" unicode="&#x1b0;" horiz-adv-x="3584" 
d="M0 512h512v2048h-512v-2048zM512 0h1536v1536h512v512h-512v512h-512v-2048h-1024v-512zM2560 2048h512v512h-512v-512z" />
    <glyph glyph-name="uni1B1" unicode="&#x1b1;" 
d="M512 0h1536v512h-1536v-512zM0 512h512v2048h-512v-2048zM2048 512h512v2048h-512v-2048zM512 2560h512v1024h-1024v-512h512v-512zM1536 2560h512v512h512v512h-1024v-1024z" />
    <glyph glyph-name="uni1B2" unicode="&#x1b2;" 
d="M1024 0h512v512h-512v-512zM512 512h512v1024h-512v-1024zM1536 512h512v1024h-512v-1024zM2048 1536h512v1536h-512v-1536zM0 1536h512v2048h-512v-2048zM1536 3072h512v512h-512v-512z" />
    <glyph glyph-name="uni1B3" unicode="&#x1b3;" horiz-adv-x="3584" 
d="M1024 0h512v2560h-512v-2560zM512 2560h512v512h-512v-512zM1536 2560h512v512h-512v-512zM2560 2560h512v512h-512v-512zM0 3072h512v512h-512v-512zM2048 3072h512v512h-512v-512z" />
    <glyph glyph-name="uni1B4" unicode="&#x1b4;" 
d="M0 -512h1536v512h-1536v-512zM0 1024h512v1536h-512v-1536zM1536 0h512v3072h-512v-2048h-1024v-512h1024v-512zM2048 3072h512v512h-512v-512z" />
    <glyph glyph-name="uni1B5" unicode="&#x1b5;" 
d="M0 0h2560v512h-2048v512h-512v-1024zM512 1024h512v512h1536v512h-512v512h-512v-512h-1536v-512h512v-512zM2048 2560h512v1024h-2560v-512h2048v-512z" />
    <glyph glyph-name="uni1B6" unicode="&#x1b6;" 
d="M0 0h2560v512h-1536v512h1536v512h-512v512h512v512h-2560v-512h1536v-512h-1536v-512h512v-512h-512v-512z" />
    <glyph glyph-name="uni1B7" unicode="&#x1b7;" 
d="M512 -512h1536v512h-1536v-512zM0 0h512v512h-512v-512zM2048 0h512v1536h-512v-1536zM1024 1536h1024v1024h-512v-512h-512v-512zM2048 2560h512v1024h-2560v-512h2048v-512z" />
    <glyph glyph-name="uni1B8" unicode="&#x1b8;" 
d="M512 -512h1536v512h-1536v-512zM2048 0h512v512h-512v-512zM0 0h512v1536h-512v-1536zM512 1536h1024v512h-512v512h-512v-1024zM0 2560h512v512h2048v512h-2560v-1024z" />
    <glyph glyph-name="uni1B9" unicode="&#x1b9;" 
d="M512 -512h2048v512h-2048v-512zM0 0h512v1024h-512v-1024zM512 1024h1024v512h-512v512h1536v512h-2560v-512h512v-1024z" />
    <glyph glyph-name="uni1BA" unicode="&#x1ba;" 
d="M512 -1024h1536v512h-1536v-512zM0 -512h512v512h-512v-512zM512 0h1536v512h-1536v-512zM2048 512h512v512h-512v-512zM1024 1024h1024v1024h512v512h-2560v-512h1536v-512h-512v-512z" />
    <glyph glyph-name="uni1BB" unicode="&#x1bb;" 
d="M0 0h2560v1024h-512v-512h-1536v512h-512v-1024zM0 2560h512v512h-512v-512zM512 1024h512v512h1536v1536h-512v-1024h-2048v-512h512v-512zM512 3072h1536v512h-1536v-512z" />
    <glyph glyph-name="uni1BC" unicode="&#x1bc;" 
d="M512 0h1536v512h-1536v-512zM0 512h512v512h-512v-512zM2048 512h512v1536h-512v-1536zM512 2048h1536v512h-1024v512h1536v512h-2560v-512h512v-1024z" />
    <glyph glyph-name="uni1BD" unicode="&#x1bd;" 
d="M512 0h1536v512h-1536v-512zM2048 512h512v512h-512v-512zM512 1024h1536v512h-1024v512h1536v512h-2560v-512h512v-1024z" />
    <glyph glyph-name="uni1BE" unicode="&#x1be;" 
d="M512 0h1536v512h-1536v-512zM0 512h512v512h-512v-512zM2048 512h512v512h-512v-512zM1536 1024h512v512h-512v-512zM1024 1536h512v1024h512v512h-512v512h-512v-512h-512v-512h512v-1024z" />
    <glyph glyph-name="uni1BF" unicode="&#x1bf;" 
d="M1024 512h512v512h-512v-512zM1536 1024h512v512h-512v-512zM2048 1536h512v512h-512v-512zM0 -512h512v512h512v512h-512v1024h512v512h-512v512h-512v-3072zM1024 2048h1024v512h-1024v-512z" />
    <glyph glyph-name="uni1C0" unicode="&#x1c0;" horiz-adv-x="1024" 
d="M0 -512h512v4096h-512v-4096z" />
    <glyph glyph-name="uni1C1" unicode="&#x1c1;" horiz-adv-x="2048" 
d="M0 -512h512v4096h-512v-4096zM1024 -512h512v4096h-512v-4096z" />
    <glyph glyph-name="uni1C2" unicode="&#x1c2;" horiz-adv-x="2048" 
d="M512 -512h512v1536h512v512h-512v512h512v512h-512v1024h-512v-1024h-512v-512h512v-512h-512v-512h512v-1536z" />
    <glyph glyph-name="uni1C3" unicode="&#x1c3;" horiz-adv-x="1024" 
d="M0 0h512v512h-512v-512zM0 1024h512v2560h-512v-2560z" />
    <glyph glyph-name="uni1C4" unicode="&#x1c4;" horiz-adv-x="4096" 
d="M2048 0h1536v512h-1024v512h-512v-1024zM2560 1024h512v1536h-512v-1536zM1024 512h512v2560h-512v-2560zM0 0h1024v512h-512v2560h512v512h-1024v-3584zM3072 2560h512v1024h-1536v-512h1024v-512zM2560 4096h512v512h-512v-512zM2048 4608h512v512h-512v-512z
M3072 4608h512v512h-512v-512z" />
    <glyph glyph-name="uni1C5" unicode="&#x1c5;" horiz-adv-x="4096" 
d="M2048 0h1536v512h-1024v512h-512v-1024zM2560 1024h512v512h-512v-512zM3072 1536h512v1024h-1536v-512h1024v-512zM1024 512h512v2560h-512v-2560zM0 0h1024v512h-512v2560h512v512h-1024v-3584zM2560 3072h512v512h-512v-512zM2048 3584h512v512h-512v-512zM3072 3584
h512v512h-512v-512z" />
    <glyph glyph-name="uni1C6" unicode="&#x1c6;" horiz-adv-x="4096" 
d="M2048 0h1536v512h-1024v512h-512v-1024zM2560 1024h512v512h-512v-512zM0 512h512v1536h-512v-1536zM3072 1536h512v1024h-1536v-512h1024v-512zM512 0h1024v3584h-512v-1024h-512v-512h512v-1536h-512v-512zM2560 3072h512v512h-512v-512zM2048 3584h512v512h-512v-512z
M3072 3584h512v512h-512v-512z" />
    <glyph glyph-name="uni1C7" unicode="&#x1c7;" horiz-adv-x="4096" 
d="M2560 0h512v512h-512v-512zM2048 512h512v512h-512v-512zM0 0h1536v512h-1024v3072h-512v-3584zM3072 512h512v3072h-512v-3072z" />
    <glyph glyph-name="uni1C8" unicode="&#x1c8;" horiz-adv-x="4096" 
d="M2560 -512h512v512h-512v-512zM2048 0h512v512h-512v-512zM3072 0h512v2560h-512v-2560zM0 0h1536v512h-1024v3072h-512v-3584zM3072 3072h512v512h-512v-512z" />
    <glyph glyph-name="uni1C9" unicode="&#x1c9;" horiz-adv-x="3584" 
d="M2048 -512h512v512h-512v-512zM512 0h512v512h-512v-512zM1536 0h512v512h-512v-512zM2560 0h512v2560h-512v-2560zM0 512h512v3072h-512v-3072zM2560 3072h512v512h-512v-512z" />
    <glyph glyph-name="uni1CA" unicode="&#x1ca;" horiz-adv-x="4608" 
d="M3072 0h512v512h-512v-512zM2560 512h512v512h-512v-512zM0 0h512v2560h512v512h-512v512h-512v-3584zM1536 0h512v3584h-512v-1024h-512v-512h512v-2048zM3584 512h512v3072h-512v-3072z" />
    <glyph glyph-name="uni1CB" unicode="&#x1cb;" horiz-adv-x="4608" 
d="M3072 -512h512v512h-512v-512zM2560 0h512v512h-512v-512zM3584 0h512v2560h-512v-2560zM0 0h512v2560h512v512h-512v512h-512v-3584zM1536 0h512v3584h-512v-1024h-512v-512h512v-2048zM3584 3072h512v512h-512v-512z" />
    <glyph glyph-name="uni1CC" unicode="&#x1cc;" horiz-adv-x="4096" 
d="M2560 -512h512v512h-512v-512zM2048 0h512v512h-512v-512zM1024 0h512v2048h-512v-2048zM0 0h512v2048h512v512h-1024v-2560zM3072 0h512v2560h-512v-2560zM3072 3072h512v512h-512v-512z" />
    <glyph glyph-name="uni1CD" unicode="&#x1cd;" 
d="M0 0h512v2048h1536v-2048h512v3072h-512v-512h-1536v512h-512v-3072zM512 3072h1536v512h-1536v-512zM1024 4096h512v512h-512v-512zM512 4608h512v512h-512v-512zM1536 4608h512v512h-512v-512z" />
    <glyph glyph-name="uni1CE" unicode="&#x1ce;" 
d="M0 512h512v512h-512v-512zM512 0h2048v2048h-512v-512h-1536v-512h1536v-512h-1536v-512zM512 2048h1536v512h-1536v-512zM1024 3072h512v512h-512v-512zM512 3584h512v512h-512v-512zM1536 3584h512v512h-512v-512z" />
    <glyph glyph-name="uni1CF" unicode="&#x1cf;" horiz-adv-x="2048" 
d="M0 0h1536v512h-512v2560h512v512h-1536v-512h512v-2560h-512v-512zM512 4096h512v512h-512v-512zM0 4608h512v512h-512v-512zM1024 4608h512v512h-512v-512z" />
    <glyph glyph-name="uni1D0" unicode="&#x1d0;" horiz-adv-x="2048" 
d="M512 0h512v2560h-512v-2560zM512 3072h512v512h-512v-512zM0 3584h512v512h-512v-512zM1024 3584h512v512h-512v-512z" />
    <glyph glyph-name="uni1D1" unicode="&#x1d1;" 
d="M512 0h1536v512h-1536v-512zM0 512h512v2560h-512v-2560zM2048 512h512v2560h-512v-2560zM512 3072h1536v512h-1536v-512zM1024 4096h512v512h-512v-512zM512 4608h512v512h-512v-512zM1536 4608h512v512h-512v-512z" />
    <glyph glyph-name="uni1D2" unicode="&#x1d2;" 
d="M512 0h1536v512h-1536v-512zM0 512h512v1536h-512v-1536zM2048 512h512v1536h-512v-1536zM512 2048h1536v512h-1536v-512zM1024 3072h512v512h-512v-512zM512 3584h512v512h-512v-512zM1536 3584h512v512h-512v-512z" />
    <glyph glyph-name="uni1D3" unicode="&#x1d3;" 
d="M512 0h1536v512h-1536v-512zM0 512h512v3072h-512v-3072zM2048 512h512v3072h-512v-3072zM1024 4096h512v512h-512v-512zM512 4608h512v512h-512v-512zM1536 4608h512v512h-512v-512z" />
    <glyph glyph-name="uni1D4" unicode="&#x1d4;" 
d="M0 512h512v2048h-512v-2048zM512 0h2048v2560h-512v-2048h-1536v-512zM1024 3072h512v512h-512v-512zM512 3584h512v512h-512v-512zM1536 3584h512v512h-512v-512z" />
    <glyph glyph-name="uni1D5" unicode="&#x1d5;" 
d="M512 0h1536v512h-1536v-512zM0 512h512v2560h-512v-2560zM2048 512h512v2560h-512v-2560zM512 3584h512v512h-512v-512zM1536 3584h512v512h-512v-512zM512 4608h1536v512h-1536v-512z" />
    <glyph glyph-name="uni1D6" unicode="&#x1d6;" 
d="M0 512h512v2048h-512v-2048zM512 0h2048v2560h-512v-2048h-1536v-512zM512 3072h512v512h-512v-512zM1536 3072h512v512h-512v-512zM512 4096h1536v512h-1536v-512z" />
    <glyph glyph-name="uni1D7" unicode="&#x1d7;" 
d="M512 0h1536v512h-1536v-512zM0 512h512v2048h-512v-2048zM2048 512h512v2048h-512v-2048zM512 3072h512v512h-512v-512zM1536 3072h512v512h-512v-512zM1024 4096h512v512h-512v-512zM1536 4608h512v512h-512v-512z" />
    <glyph glyph-name="uni1D8" unicode="&#x1d8;" 
d="M0 512h512v2048h-512v-2048zM512 0h2048v2560h-512v-2048h-1536v-512zM512 3072h512v512h-512v-512zM1536 3072h512v512h-512v-512zM1024 4096h512v512h-512v-512zM1536 4608h512v512h-512v-512z" />
    <glyph glyph-name="uni1D9" unicode="&#x1d9;" 
d="M512 0h1536v512h-1536v-512zM0 512h512v2048h-512v-2048zM2048 512h512v2048h-512v-2048zM512 3072h512v512h-512v-512zM1536 3072h512v512h-512v-512zM1024 4096h512v512h-512v-512zM512 4608h512v512h-512v-512zM1536 4608h512v512h-512v-512z" />
    <glyph glyph-name="uni1DA" unicode="&#x1da;" 
d="M0 512h512v2048h-512v-2048zM512 0h2048v2560h-512v-2048h-1536v-512zM512 3072h512v512h-512v-512zM1536 3072h512v512h-512v-512zM1024 4096h512v512h-512v-512zM512 4608h512v512h-512v-512zM1536 4608h512v512h-512v-512z" />
    <glyph glyph-name="uni1DB" unicode="&#x1db;" 
d="M512 0h1536v512h-1536v-512zM0 512h512v2048h-512v-2048zM2048 512h512v2048h-512v-2048zM512 3072h512v512h-512v-512zM1536 3072h512v512h-512v-512zM1024 4096h512v512h-512v-512zM512 4608h512v512h-512v-512z" />
    <glyph glyph-name="uni1DC" unicode="&#x1dc;" 
d="M0 512h512v2048h-512v-2048zM512 0h2048v2560h-512v-2048h-1536v-512zM512 3072h512v512h-512v-512zM1536 3072h512v512h-512v-512zM1024 4096h512v512h-512v-512zM512 4608h512v512h-512v-512z" />
    <glyph glyph-name="uni1DD" unicode="&#x1dd;" 
d="M512 0h1536v512h-1536v-512zM0 512h512v512h1536v-512h512v1536h-512v-512h-2048v-1024zM0 2048h2048v512h-2048v-512z" />
    <glyph glyph-name="uni1DE" unicode="&#x1de;" 
d="M0 0h512v1536h1536v-1536h512v2560h-512v-512h-1536v512h-512v-2560zM512 2560h1536v512h-1536v-512zM512 3584h512v512h-512v-512zM1536 3584h512v512h-512v-512zM512 4608h1536v512h-1536v-512z" />
    <glyph glyph-name="uni1DF" unicode="&#x1df;" 
d="M0 512h512v512h-512v-512zM512 0h2048v2048h-512v-512h-1536v-512h1536v-512h-1536v-512zM512 2048h1536v512h-1536v-512zM512 3072h512v512h-512v-512zM1536 3072h512v512h-512v-512zM512 4096h1536v512h-1536v-512z" />
    <glyph glyph-name="uni1E0" unicode="&#x1e0;" 
d="M0 0h512v1536h1536v-1536h512v2560h-512v-512h-1536v512h-512v-2560zM512 2560h1536v512h-1536v-512zM1024 3584h512v512h-512v-512zM512 4608h1536v512h-1536v-512z" />
    <glyph glyph-name="uni1E1" unicode="&#x1e1;" 
d="M0 512h512v512h-512v-512zM512 0h2048v2048h-512v-512h-1536v-512h1536v-512h-1536v-512zM512 2048h1536v512h-1536v-512zM1024 3072h512v512h-512v-512zM512 4096h1536v512h-1536v-512z" />
    <glyph glyph-name="uni1E2" unicode="&#x1e2;" 
d="M0 0h512v2048h512v-2048h1536v512h-1024v1536h512v512h-512v512h1024v512h-2048v-512h512v-512h-512v512h-512v-3072zM512 4096h1536v512h-1536v-512z" />
    <glyph glyph-name="uni1E3" unicode="&#x1e3;" 
d="M0 512h512v512h-512v-512zM512 0h2048v512h-1024v512h1024v1024h-512v-512h-512v512h-512v-512h-512v-512h512v-512h-512v-512zM512 2048h512v512h-512v-512zM1536 2048h512v512h-512v-512zM512 3072h1536v512h-1536v-512z" />
    <glyph glyph-name="uni1E4" unicode="&#x1e4;" 
d="M512 0h1024v512h-1024v-512zM1536 512h512v512h512v512h-512v1024h-1024v-512h512v-512h-512v-512h512v-512zM0 512h512v2560h-512v-2560zM512 3072h1536v512h-1536v-512z" />
    <glyph glyph-name="uni1E5" unicode="&#x1e5;" 
d="M0 1024h512v1024h-512v-1024zM0 -512h1536v512h1024v512h-512v2048h-1536v-512h1024v-1024h-1024v-512h512v-512h-1024v-512z" />
    <glyph glyph-name="Gcaron" unicode="&#x1e6;" 
d="M512 0h1536v512h-1536v-512zM2048 512h512v2048h-1024v-512h512v-1536zM0 512h512v2560h-512v-2560zM512 3072h2048v512h-2048v-512zM1024 4096h512v512h-512v-512zM512 4608h512v512h-512v-512zM1536 4608h512v512h-512v-512z" />
    <glyph glyph-name="gcaron" unicode="&#x1e7;" 
d="M0 -512h2048v512h-2048v-512zM0 1024h512v1024h-512v-1024zM2048 0h512v2560h-2048v-512h1536v-1024h-1536v-512h1536v-512zM1024 3072h512v512h-512v-512zM512 3584h512v512h-512v-512zM1536 3584h512v512h-512v-512z" />
    <glyph glyph-name="uni1E8" unicode="&#x1e8;" 
d="M2048 0h512v1536h-512v-1536zM1536 1536h512v512h-512v-512zM1536 2560h512v512h-512v-512zM0 0h512v2048h1024v512h-1024v1024h-512v-3584zM2048 3072h512v512h-512v-512zM1024 4096h512v512h-512v-512zM512 4608h512v512h-512v-512zM1536 4608h512v512h-512v-512z" />
    <glyph glyph-name="uni1E9" unicode="&#x1e9;" horiz-adv-x="2560" 
d="M1536 0h512v512h-512v-512zM1024 512h512v512h-512v-512zM1024 1536h512v512h-512v-512zM1536 2048h512v512h-512v-512zM0 0h512v1024h512v512h-512v2048h-512v-3584zM512 4096h512v512h-512v-512zM0 4608h512v512h-512v-512zM1024 4608h512v512h-512v-512z" />
    <glyph glyph-name="uni1EA" unicode="&#x1ea;" 
d="M1024 -1024h1024v512h-512v512h512v512h-1536v-512h512v-1024zM0 512h512v2560h-512v-2560zM2048 512h512v2560h-512v-2560zM512 3072h1536v512h-1536v-512z" />
    <glyph glyph-name="uni1EB" unicode="&#x1eb;" 
d="M1024 -1024h1024v512h-512v512h512v512h-1536v-512h512v-1024zM0 512h512v1536h-512v-1536zM2048 512h512v1536h-512v-1536zM512 2048h1536v512h-1536v-512z" />
    <glyph glyph-name="uni1EC" unicode="&#x1ec;" 
d="M1024 -1024h1024v512h-512v512h512v512h-1536v-512h512v-1024zM0 512h512v2560h-512v-2560zM2048 512h512v2560h-512v-2560zM512 3072h1536v512h-1536v-512zM512 4096h1536v512h-1536v-512z" />
    <glyph glyph-name="uni1ED" unicode="&#x1ed;" 
d="M1024 -1024h1024v512h-512v512h512v512h-1536v-512h512v-1024zM0 512h512v1536h-512v-1536zM2048 512h512v1536h-512v-1536zM512 2048h1536v512h-1536v-512zM512 3072h1536v512h-1536v-512z" />
    <glyph glyph-name="uni1EE" unicode="&#x1ee;" 
d="M512 -512h1536v512h-1536v-512zM0 0h512v512h-512v-512zM2048 0h512v1536h-512v-1536zM1024 1536h1024v1024h-512v-512h-512v-512zM2048 2560h512v1024h-2560v-512h2048v-512zM1024 4096h512v512h-512v-512zM512 4608h512v512h-512v-512zM1536 4608h512v512h-512v-512z
" />
    <glyph glyph-name="uni1EF" unicode="&#x1ef;" 
d="M0 -512h2048v512h-2048v-512zM2048 0h512v1024h-512v-1024zM1024 1024h1024v1024h512v512h-2560v-512h1536v-512h-512v-512zM1024 3072h512v512h-512v-512zM512 3584h512v512h-512v-512zM1536 3584h512v512h-512v-512z" />
    <glyph glyph-name="uni1F0" unicode="&#x1f0;" 
d="M512 -512h1536v512h-1536v-512zM0 0h512v1024h-512v-1024zM2048 0h512v2560h-512v-2560zM1024 3072h512v512h-512v-512zM512 3584h512v512h-512v-512zM1536 3584h512v512h-512v-512z" />
    <glyph glyph-name="uni1F1" unicode="&#x1f1;" horiz-adv-x="4096" 
d="M2048 0h1536v512h-1024v512h-512v-1024zM2560 1024h512v1536h-512v-1536zM1024 512h512v2560h-512v-2560zM0 0h1024v512h-512v2560h512v512h-1024v-3584zM3072 2560h512v1024h-1536v-512h1024v-512z" />
    <glyph glyph-name="uni1F2" unicode="&#x1f2;" horiz-adv-x="4096" 
d="M2048 0h1536v512h-1024v512h-512v-1024zM2560 1024h512v512h-512v-512zM3072 1536h512v1024h-1536v-512h1024v-512zM1024 512h512v2560h-512v-2560zM0 0h1024v512h-512v2560h512v512h-1024v-3584z" />
    <glyph glyph-name="uni1F3" unicode="&#x1f3;" horiz-adv-x="4096" 
d="M2048 0h1536v512h-1024v512h-512v-1024zM2560 1024h512v512h-512v-512zM0 512h512v1536h-512v-1536zM3072 1536h512v1024h-1536v-512h1024v-512zM512 0h1024v3584h-512v-1024h-512v-512h512v-1536h-512v-512z" />
    <glyph glyph-name="uni1F4" unicode="&#x1f4;" 
d="M512 0h1536v512h-1536v-512zM2048 512h512v2048h-1024v-512h512v-1536zM0 512h512v2560h-512v-2560zM512 3072h2048v512h-2048v-512zM1024 4096h512v512h-512v-512zM1536 4608h512v512h-512v-512z" />
    <glyph glyph-name="uni1F5" unicode="&#x1f5;" 
d="M0 -512h2048v512h-2048v-512zM0 1024h512v1024h-512v-1024zM2048 0h512v2560h-2048v-512h1536v-1024h-1536v-512h1536v-512zM1024 3072h512v512h-512v-512zM1536 3584h512v512h-512v-512z" />
    <glyph glyph-name="uni1F6" unicode="&#x1f6;" 
d="M1536 0h512v512h-512v-512zM2048 512h512v2048h-512v-2048zM0 0h512v2048h512v-1536h512v3072h-512v-1024h-512v1024h-512v-3584z" />
    <glyph glyph-name="uni1F7" unicode="&#x1f7;" 
d="M1024 1024h512v512h-512v-512zM1536 1536h512v512h-512v-512zM2048 2048h512v1024h-512v-1024zM0 -512h512v1024h512v512h-512v1536h512v512h-512v512h-512v-4096zM1024 3072h1024v512h-1024v-512z" />
    <glyph glyph-name="uni1F8" unicode="&#x1f8;" 
d="M1024 2048h512v512h-512v-512zM0 0h512v2560h512v512h-512v512h-512v-3584zM2048 0h512v3584h-512v-1536h-512v-512h512v-1536zM1024 4096h512v512h-512v-512zM512 4608h512v512h-512v-512z" />
    <glyph glyph-name="uni1F9" unicode="&#x1f9;" 
d="M2048 0h512v2048h-512v-2048zM0 0h512v2048h1536v512h-2048v-2560zM1024 3072h512v512h-512v-512zM512 3584h512v512h-512v-512z" />
    <glyph glyph-name="Aringacute" unicode="&#x1fa;" 
d="M0 0h512v1024h1536v-1024h512v2048h-512v-512h-1536v512h-512v-2048zM512 2048h1536v512h-512v512h-512v-512h-512v-512zM512 3072h512v512h-512v-512zM1536 3072h512v512h-512v-512zM1024 3584h512v1024h-512v-1024zM1536 4608h512v512h-512v-512z" />
    <glyph glyph-name="aringacute" unicode="&#x1fb;" 
d="M0 512h512v512h-512v-512zM512 0h2048v2048h-512v-512h-1536v-512h1536v-512h-1536v-512zM512 2048h1536v512h-512v512h-512v-512h-512v-512zM512 3072h512v512h-512v-512zM1536 3072h512v512h-512v-512zM1024 3584h512v1024h-512v-1024zM1536 4608h512v512h-512v-512z
" />
    <glyph glyph-name="AEacute" unicode="&#x1fc;" 
d="M0 0h512v2048h512v-2048h1536v512h-1024v1536h512v512h-512v512h1024v512h-2048v-512h512v-512h-512v512h-512v-3072zM1024 4096h512v512h-512v-512zM1536 4608h512v512h-512v-512z" />
    <glyph glyph-name="aeacute" unicode="&#x1fd;" 
d="M0 512h512v512h-512v-512zM512 0h2048v512h-1024v512h1024v1024h-512v-512h-512v512h-512v-512h-512v-512h512v-512h-512v-512zM512 2048h512v512h-512v-512zM1536 2048h512v512h-512v-512zM1024 3072h512v512h-512v-512zM1536 3584h512v512h-512v-512z" />
    <glyph glyph-name="Oslashacute" unicode="&#x1fe;" 
d="M512 0h1536v512h-1536v-512zM1024 1536h512v512h-512v-512zM0 512h512v512h512v512h-512v1536h-512v-2560zM2048 512h512v2560h-512v-512h-512v-512h512v-1536zM512 3072h1536v512h-1536v-512zM1024 4096h512v512h-512v-512zM1536 4608h512v512h-512v-512z" />
    <glyph glyph-name="oslashacute" unicode="&#x1ff;" 
d="M1024 1024h512v512h-512v-512zM512 0h1536v512h-1024v512h-512v1024h-512v-1536h512v-512zM2048 512h512v1536h-512v512h-1536v-512h1024v-512h512v-1024zM1024 3072h512v512h-512v-512zM1536 3584h512v512h-512v-512z" />
    <glyph glyph-name="uni200" unicode="&#x200;" 
d="M0 0h512v2048h1536v-2048h512v3072h-512v-512h-1536v512h-512v-3072zM512 3072h1536v512h-1536v-512zM512 4096h512v512h-512v-512zM2048 4096h512v512h-512v-512zM0 4608h512v512h-512v-512zM1536 4608h512v512h-512v-512z" />
    <glyph glyph-name="uni201" unicode="&#x201;" 
d="M0 512h512v512h-512v-512zM512 0h2048v2048h-512v-512h-1536v-512h1536v-512h-1536v-512zM512 2048h1536v512h-1536v-512zM512 3072h512v512h-512v-512zM2048 3072h512v512h-512v-512zM0 3584h512v512h-512v-512zM1536 3584h512v512h-512v-512z" />
    <glyph glyph-name="uni202" unicode="&#x202;" 
d="M0 0h512v2048h1536v-2048h512v3072h-512v-512h-1536v512h-512v-3072zM512 3072h1536v512h-1536v-512zM0 4096h512v512h-512v-512zM2048 4096h512v512h-512v-512zM512 4608h1536v512h-1536v-512z" />
    <glyph glyph-name="uni203" unicode="&#x203;" 
d="M0 512h512v512h-512v-512zM512 0h2048v2048h-512v-512h-1536v-512h1536v-512h-1536v-512zM512 2048h1536v512h-1536v-512zM0 3072h512v512h-512v-512zM2048 3072h512v512h-512v-512zM512 3584h1536v512h-1536v-512z" />
    <glyph glyph-name="uni204" unicode="&#x204;" 
d="M0 0h2560v512h-2048v1536h1024v512h-1024v512h2048v512h-2560v-3584zM512 4096h512v512h-512v-512zM2048 4096h512v512h-512v-512zM0 4608h512v512h-512v-512zM1536 4608h512v512h-512v-512z" />
    <glyph glyph-name="uni205" unicode="&#x205;" 
d="M512 0h2048v512h-2048v-512zM0 512h512v512h2048v1024h-512v-512h-1536v512h-512v-1536zM512 2048h1536v512h-1536v-512zM512 3072h512v512h-512v-512zM2048 3072h512v512h-512v-512zM0 3584h512v512h-512v-512zM1536 3584h512v512h-512v-512z" />
    <glyph glyph-name="uni206" unicode="&#x206;" 
d="M0 0h2560v512h-2048v1536h1024v512h-1024v512h2048v512h-2560v-3584zM0 4096h512v512h-512v-512zM2048 4096h512v512h-512v-512zM512 4608h1536v512h-1536v-512z" />
    <glyph glyph-name="uni207" unicode="&#x207;" 
d="M512 0h2048v512h-2048v-512zM0 512h512v512h2048v1024h-512v-512h-1536v512h-512v-1536zM512 2048h1536v512h-1536v-512zM0 3072h512v512h-512v-512zM2048 3072h512v512h-512v-512zM512 3584h1536v512h-1536v-512z" />
    <glyph glyph-name="uni208" unicode="&#x208;" 
d="M512 0h1536v512h-512v2560h512v512h-1536v-512h512v-2560h-512v-512zM512 4096h512v512h-512v-512zM2048 4096h512v512h-512v-512zM0 4608h512v512h-512v-512zM1536 4608h512v512h-512v-512z" />
    <glyph glyph-name="uni209" unicode="&#x209;" 
d="M1024 0h512v2560h-512v-2560zM512 3072h512v512h-512v-512zM2048 3072h512v512h-512v-512zM0 3584h512v512h-512v-512zM1536 3584h512v512h-512v-512z" />
    <glyph glyph-name="uni20A" unicode="&#x20a;" 
d="M512 0h1536v512h-512v2560h512v512h-1536v-512h512v-2560h-512v-512zM0 4096h512v512h-512v-512zM2048 4096h512v512h-512v-512zM512 4608h1536v512h-1536v-512z" />
    <glyph glyph-name="uni20B" unicode="&#x20b;" 
d="M1024 0h512v2560h-512v-2560zM0 3072h512v512h-512v-512zM2048 3072h512v512h-512v-512zM512 3584h1536v512h-1536v-512z" />
    <glyph glyph-name="uni20C" unicode="&#x20c;" 
d="M512 0h1536v512h-1536v-512zM0 512h512v2560h-512v-2560zM2048 512h512v2560h-512v-2560zM512 3072h1536v512h-1536v-512zM512 4096h512v512h-512v-512zM2048 4096h512v512h-512v-512zM0 4608h512v512h-512v-512zM1536 4608h512v512h-512v-512z" />
    <glyph glyph-name="uni20D" unicode="&#x20d;" 
d="M512 0h1536v512h-1536v-512zM0 512h512v1536h-512v-1536zM2048 512h512v1536h-512v-1536zM512 2048h1536v512h-1536v-512zM512 3072h512v512h-512v-512zM2048 3072h512v512h-512v-512zM0 3584h512v512h-512v-512zM1536 3584h512v512h-512v-512z" />
    <glyph glyph-name="uni20E" unicode="&#x20e;" 
d="M512 0h1536v512h-1536v-512zM0 512h512v2560h-512v-2560zM2048 512h512v2560h-512v-2560zM512 3072h1536v512h-1536v-512zM0 4096h512v512h-512v-512zM2048 4096h512v512h-512v-512zM512 4608h1536v512h-1536v-512z" />
    <glyph glyph-name="uni20F" unicode="&#x20f;" 
d="M512 0h1536v512h-1536v-512zM0 512h512v1536h-512v-1536zM2048 512h512v1536h-512v-1536zM512 2048h1536v512h-1536v-512zM0 3072h512v512h-512v-512zM2048 3072h512v512h-512v-512zM512 3584h1536v512h-1536v-512z" />
    <glyph glyph-name="uni210" unicode="&#x210;" 
d="M2048 0h512v2048h-512v-2048zM2048 2560h512v512h-512v-512zM0 0h512v2048h1536v512h-1536v512h1536v512h-2048v-3584zM512 4096h512v512h-512v-512zM2048 4096h512v512h-512v-512zM0 4608h512v512h-512v-512zM1536 4608h512v512h-512v-512z" />
    <glyph glyph-name="uni211" unicode="&#x211;" 
d="M2048 1536h512v512h-512v-512zM0 0h512v1536h512v512h-512v512h-512v-2560zM1024 2048h1024v512h-1024v-512zM512 3072h512v512h-512v-512zM2048 3072h512v512h-512v-512zM0 3584h512v512h-512v-512zM1536 3584h512v512h-512v-512z" />
    <glyph glyph-name="uni212" unicode="&#x212;" 
d="M2048 0h512v2048h-512v-2048zM2048 2560h512v512h-512v-512zM0 0h512v2048h1536v512h-1536v512h1536v512h-2048v-3584zM0 4096h512v512h-512v-512zM2048 4096h512v512h-512v-512zM512 4608h1536v512h-1536v-512z" />
    <glyph glyph-name="uni213" unicode="&#x213;" 
d="M2048 1536h512v512h-512v-512zM0 0h512v1536h512v512h-512v512h-512v-2560zM1024 2048h1024v512h-1024v-512zM0 3072h512v512h-512v-512zM2048 3072h512v512h-512v-512zM512 3584h1536v512h-1536v-512z" />
    <glyph glyph-name="uni214" unicode="&#x214;" 
d="M512 0h1536v512h-1536v-512zM0 512h512v3072h-512v-3072zM2048 512h512v3072h-512v-3072zM512 4096h512v512h-512v-512zM2048 4096h512v512h-512v-512zM0 4608h512v512h-512v-512zM1536 4608h512v512h-512v-512z" />
    <glyph glyph-name="uni215" unicode="&#x215;" 
d="M0 512h512v2048h-512v-2048zM512 0h2048v2560h-512v-2048h-1536v-512zM512 3072h512v512h-512v-512zM2048 3072h512v512h-512v-512zM0 3584h512v512h-512v-512zM1536 3584h512v512h-512v-512z" />
    <glyph glyph-name="uni216" unicode="&#x216;" 
d="M512 0h1536v512h-1536v-512zM0 512h512v3072h-512v-3072zM2048 512h512v3072h-512v-3072zM0 4096h512v512h-512v-512zM2048 4096h512v512h-512v-512zM512 4608h1536v512h-1536v-512z" />
    <glyph glyph-name="uni217" unicode="&#x217;" 
d="M0 512h512v2048h-512v-2048zM512 0h2048v2560h-512v-2048h-1536v-512zM0 3072h512v512h-512v-512zM2048 3072h512v512h-512v-512zM512 3584h1536v512h-1536v-512z" />
    <glyph glyph-name="uni218" unicode="&#x218;" 
d="M512 -1024h512v512h-512v-512zM1024 -512h512v512h512v512h-1536v-512h512v-512zM0 512h512v512h-512v-512zM2048 512h512v1536h-512v-1536zM512 2048h1536v512h-1536v-512zM0 2560h512v512h-512v-512zM512 3072h2048v512h-2048v-512z" />
    <glyph glyph-name="uni219" unicode="&#x219;" 
d="M512 -1024h512v512h-512v-512zM1024 -512h512v512h512v512h-2048v-512h1024v-512zM2048 512h512v512h-512v-512zM512 1024h1536v512h-1536v-512zM0 1536h512v512h-512v-512zM512 2048h2048v512h-2048v-512z" />
    <glyph glyph-name="uni21A" unicode="&#x21a;" 
d="M512 -1024h512v512h-512v-512zM1024 -512h512v3584h1024v512h-2560v-512h1024v-3584z" />
    <glyph glyph-name="uni21B" unicode="&#x21b;" horiz-adv-x="2048" 
d="M0 -1024h512v512h-512v-512zM512 -512h512v512h-512v-512zM1024 0h512v512h-512v-512zM512 512h512v1536h512v512h-512v1024h-512v-1024h-512v-512h512v-1536z" />
    <glyph glyph-name="uni21C" unicode="&#x21c;" 
d="M512 -512h1024v512h-1024v-512zM1536 0h512v512h-512v-512zM512 1024h1024v512h-1024v-512zM2048 512h512v1024h-512v-1024zM1536 1536h512v512h-512v-512zM0 2560h512v512h-512v-512zM2048 2048h512v1024h-512v-1024zM512 3072h1536v512h-1536v-512z" />
    <glyph glyph-name="uni21D" unicode="&#x21d;" 
d="M512 -512h1024v512h-1024v-512zM1536 0h512v512h-512v-512zM512 512h512v512h-512v-512zM2048 512h512v512h-512v-512zM1024 1024h1024v512h-1024v-512zM0 1536h512v512h-512v-512zM2048 1536h512v512h-512v-512zM512 2048h1536v512h-1536v-512z" />
    <glyph glyph-name="uni21E" unicode="&#x21e;" 
d="M0 0h512v2048h1536v-2048h512v3584h-512v-1024h-1536v1024h-512v-3584zM1024 4096h512v512h-512v-512zM512 4608h512v512h-512v-512zM1536 4608h512v512h-512v-512z" />
    <glyph glyph-name="uni21F" unicode="&#x21f;" 
d="M2048 0h512v2048h-512v-2048zM1024 2048h1024v512h-1024v-512zM0 0h512v1536h512v512h-512v1536h-512v-3584zM1024 4096h512v512h-512v-512zM512 4608h512v512h-512v-512zM1536 4608h512v512h-512v-512z" />
    <glyph glyph-name="uni220" unicode="&#x220;" 
d="M2048 -512h512v3584h-512v-3584zM0 0h512v3072h1536v512h-2048v-3584z" />
    <glyph glyph-name="uni224" unicode="&#x224;" 
d="M2048 -512h512v512h-512v-512zM0 0h2048v512h-1536v512h-512v-1024zM512 1024h512v512h-512v-512zM1024 1536h512v512h-512v-512zM1536 2048h512v512h-512v-512zM2048 2560h512v1024h-2560v-512h2048v-512z" />
    <glyph glyph-name="uni225" unicode="&#x225;" 
d="M2048 -512h512v512h-512v-512zM0 0h2048v512h-1024v512h-512v-512h-512v-512zM1024 1024h512v512h-512v-512zM1536 1536h512v512h512v512h-2560v-512h1536v-512z" />
    <glyph glyph-name="uni226" unicode="&#x226;" 
d="M0 0h512v2048h1536v-2048h512v3072h-512v-512h-1536v512h-512v-3072zM512 3072h1536v512h-1536v-512zM1024 4096h512v512h-512v-512z" />
    <glyph glyph-name="uni227" unicode="&#x227;" 
d="M0 512h512v512h-512v-512zM512 0h2048v2048h-512v-512h-1536v-512h1536v-512h-1536v-512zM512 2048h1536v512h-1536v-512zM1024 3072h512v512h-512v-512z" />
    <glyph glyph-name="uni228" unicode="&#x228;" 
d="M512 -1024h1024v1024h1024v512h-2048v1536h1024v512h-1024v512h2048v512h-2560v-3584h1024v-512h-512v-512z" />
    <glyph glyph-name="uni229" unicode="&#x229;" 
d="M512 -1024h1024v1024h1024v512h-2048v-512h512v-512h-512v-512zM0 512h512v512h2048v1024h-512v-512h-1536v512h-512v-1536zM512 2048h1536v512h-1536v-512z" />
    <glyph glyph-name="uni22A" unicode="&#x22a;" 
d="M512 0h1536v512h-1536v-512zM0 512h512v2048h-512v-2048zM2048 512h512v2048h-512v-2048zM512 2560h1536v512h-1536v-512zM512 3584h512v512h-512v-512zM1536 3584h512v512h-512v-512zM512 4608h1536v512h-1536v-512z" />
    <glyph glyph-name="uni22B" unicode="&#x22b;" 
d="M512 0h1536v512h-1536v-512zM0 512h512v1536h-512v-1536zM2048 512h512v1536h-512v-1536zM512 2048h1536v512h-1536v-512zM512 3072h512v512h-512v-512zM1536 3072h512v512h-512v-512zM512 4096h1536v512h-1536v-512z" />
    <glyph glyph-name="uni22C" unicode="&#x22c;" 
d="M512 0h1536v512h-1536v-512zM0 512h512v2048h-512v-2048zM2048 512h512v2048h-512v-2048zM512 2560h1536v1024h-512v-512h-512v512h-512v-1024zM1024 3584h512v512h-512v-512zM2048 3584h512v512h-512v-512zM512 4608h1536v512h-1536v-512z" />
    <glyph glyph-name="uni22D" unicode="&#x22d;" 
d="M512 0h1536v512h-1536v-512zM0 512h512v1536h-512v-1536zM2048 512h512v1536h-512v-1536zM512 2048h1536v512h-1536v-512zM512 3072h512v512h-512v-512zM1536 3072h512v512h-512v-512zM1024 3584h512v512h-512v-512zM2048 3584h512v512h-512v-512zM512 4608h1536v512
h-1536v-512z" />
    <glyph glyph-name="uni22E" unicode="&#x22e;" 
d="M512 0h1536v512h-1536v-512zM0 512h512v2560h-512v-2560zM2048 512h512v2560h-512v-2560zM512 3072h1536v512h-1536v-512zM1024 4096h512v512h-512v-512z" />
    <glyph glyph-name="uni22F" unicode="&#x22f;" 
d="M512 0h1536v512h-1536v-512zM0 512h512v1536h-512v-1536zM2048 512h512v1536h-512v-1536zM512 2048h1536v512h-1536v-512zM1024 3072h512v512h-512v-512z" />
    <glyph glyph-name="uni230" unicode="&#x230;" 
d="M512 0h1536v512h-1536v-512zM0 512h512v2048h-512v-2048zM2048 512h512v2048h-512v-2048zM512 2560h1536v512h-1536v-512zM1024 3584h512v512h-512v-512zM512 4608h1536v512h-1536v-512z" />
    <glyph glyph-name="uni231" unicode="&#x231;" 
d="M512 0h1536v512h-1536v-512zM0 512h512v1536h-512v-1536zM2048 512h512v1536h-512v-1536zM512 2048h1536v512h-1536v-512zM1024 3072h512v512h-512v-512zM512 4096h1536v512h-1536v-512z" />
    <glyph glyph-name="uni232" unicode="&#x232;" 
d="M1024 0h512v2560h-512v-2560zM512 2560h512v512h-512v-512zM1536 2560h512v512h-512v-512zM0 3072h512v512h-512v-512zM2048 3072h512v512h-512v-512zM512 4096h1536v512h-1536v-512z" />
    <glyph glyph-name="uni233" unicode="&#x233;" 
d="M0 -512h2048v512h-2048v-512zM0 1024h512v1536h-512v-1536zM2048 0h512v2560h-512v-1536h-1536v-512h1536v-512zM512 3072h1536v512h-1536v-512z" />
    <glyph glyph-name="uni238" unicode="&#x238;" 
d="M0 512h512v1536h-512v-1536zM2048 512h512v1536h-512v-1536zM512 0h1536v512h-512v1536h512v512h-512v1024h-512v-1024h-512v-512h512v-1536h-512v-512z" />
    <glyph glyph-name="uni239" unicode="&#x239;" 
d="M0 1024h512v1024h-512v-1024zM2048 1024h512v1024h-512v-1024zM1024 -512h512v1024h512v512h-512v1024h512v512h-1536v-512h512v-1024h-512v-512h512v-1024z" />
    <glyph glyph-name="uni248" unicode="&#x248;" 
d="M512 0h1024v512h-1024v-512zM0 512h512v512h-512v-512zM1536 512h512v1536h512v512h-512v1024h-512v-1024h-512v-512h512v-1536z" />
    <glyph glyph-name="uni249" unicode="&#x249;" 
d="M512 -512h1024v512h-1024v-512zM0 0h512v1024h-512v-1024zM1536 0h512v1536h512v512h-512v512h-512v-512h-512v-512h512v-1536zM1536 3072h512v512h-512v-512z" />
    <glyph glyph-name="uni24C" unicode="&#x24c;" 
d="M2048 0h512v2048h-512v-2048zM2048 2560h512v512h-512v-512zM512 0h512v2048h1024v512h-1024v512h1024v512h-1536v-1024h-512v-512h512v-2048z" />
    <glyph glyph-name="uni24D" unicode="&#x24d;" 
d="M2048 1536h512v512h-512v-512zM512 0h512v512h512v512h-512v512h512v512h-512v512h-512v-1536h-512v-512h512v-512zM1536 2048h512v512h-512v-512z" />
    <glyph glyph-name="uni250" unicode="&#x250;" 
d="M512 0h1536v512h-1536v-512zM2048 1536h512v512h-512v-512zM0 512h512v512h1536v512h-1536v512h1536v512h-2048v-2048z" />
    <glyph glyph-name="uni251" unicode="&#x251;" 
d="M512 0h1024v512h-1024v-512zM0 512h512v1536h-512v-1536zM2048 0h512v2560h-2048v-512h1536v-1024h-512v-512h512v-512z" />
    <glyph glyph-name="uni252" unicode="&#x252;" 
d="M2048 512h512v1536h-512v-1536zM0 0h2048v512h-1536v1024h512v512h-512v512h-512v-2560zM1024 2048h1024v512h-1024v-512z" />
    <glyph glyph-name="uni253" unicode="&#x253;" 
d="M2048 512h512v1536h-512v-1536zM1024 2048h1024v512h-1024v-512zM0 0h2048v512h-1536v1024h512v512h-512v1024h-512v-3072zM512 3072h512v512h-512v-512z" />
    <glyph glyph-name="uni254" unicode="&#x254;" 
d="M512 0h1536v512h-1536v-512zM0 512h512v512h-512v-512zM0 1536h512v512h-512v-512zM2048 512h512v1536h-512v-1536zM512 2048h1536v512h-1536v-512z" />
    <glyph glyph-name="uni255" unicode="&#x255;" 
d="M1024 -512h512v512h512v512h-512v512h-512v-512h-512v-512h512v-512zM2048 512h512v512h-512v-512zM1536 1024h512v512h-512v-512zM0 512h512v1536h-512v-1536zM2048 1536h512v512h-512v-512zM512 2048h1536v512h-1536v-512z" />
    <glyph glyph-name="uni256" unicode="&#x256;" 
d="M2048 -512h512v512h-512v-512zM0 1024h512v1024h-512v-1024zM512 2048h512v512h-512v-512zM1536 0h512v3584h-512v-1536h-512v-512h512v-512h-1024v-512h1024v-512z" />
    <glyph glyph-name="uni257" unicode="&#x257;" 
d="M0 512h512v1536h-512v-1536zM512 2048h512v512h-512v-512zM512 0h1536v3072h-512v-1024h-512v-512h512v-1024h-1024v-512zM2048 3072h512v512h-512v-512z" />
    <glyph glyph-name="uni258" unicode="&#x258;" 
d="M0 0h2048v512h-2048v-512zM2048 512h512v1536h-512v-512h-1536v512h-512v-1024h2048v-512zM512 2048h1536v512h-1536v-512z" />
    <glyph glyph-name="uni259" unicode="&#x259;" 
d="M512 0h1536v512h-1536v-512zM0 512h512v512h1536v-512h512v1536h-512v-512h-2048v-1024zM0 2048h2048v512h-2048v-512z" />
    <glyph glyph-name="uni25A" unicode="&#x25a;" horiz-adv-x="3584" 
d="M512 0h1024v512h-1024v-512zM2560 1024h512v512h-512v-512zM0 512h512v512h1024v-512h512v1024h512v512h-1024v-512h-1536v-1024zM0 2048h1536v512h-1536v-512z" />
    <glyph glyph-name="uni25B" unicode="&#x25b;" horiz-adv-x="2560" 
d="M512 0h1536v512h-1536v-512zM0 512h512v512h-512v-512zM512 1024h1024v512h-1024v-512zM0 1536h512v512h-512v-512zM512 2048h1536v512h-1536v-512z" />
    <glyph glyph-name="uni25C" unicode="&#x25c;" horiz-adv-x="2560" 
d="M0 0h1536v512h-1536v-512zM1536 512h512v512h-512v-512zM512 1024h1024v512h-1024v-512zM1536 1536h512v512h-512v-512zM0 2048h1536v512h-1536v-512z" />
    <glyph glyph-name="uni25D" unicode="&#x25d;" 
d="M0 0h1024v512h-1024v-512zM1024 512h512v512h-512v-512zM512 1024h512v512h-512v-512zM1024 1536h512v512h-512v-512zM2048 1536h512v512h-512v-512zM0 2048h1024v512h-1024v-512zM1536 2048h512v512h-512v-512z" />
    <glyph glyph-name="uni25E" unicode="&#x25e;" 
d="M512 0h1536v512h-1536v-512zM2048 512h512v512h-512v-512zM1024 1024h1024v512h-1024v-512zM0 512h512v1536h-512v-1536zM2048 1536h512v512h-512v-512zM512 2048h1536v512h-1536v-512z" />
    <glyph glyph-name="uni25F" unicode="&#x25f;" horiz-adv-x="2560" 
d="M0 -512h1024v512h-1024v-512zM1024 0h512v512h512v512h-512v1536h-512v-1536h-1024v-512h1024v-512z" />
    <glyph glyph-name="uni260" unicode="&#x260;" 
d="M0 -512h1536v512h-1536v-512zM0 1024h512v1024h-512v-1024zM1536 0h512v3072h-512v-512h-1024v-512h1024v-1024h-1024v-512h1024v-512zM2048 3072h512v512h-512v-512z" />
    <glyph glyph-name="uni261" unicode="&#x261;" 
d="M0 -512h2048v512h-2048v-512zM0 1024h512v1024h-512v-1024zM2048 0h512v2560h-2048v-512h1536v-1024h-1536v-512h1536v-512z" />
    <glyph glyph-name="uni262" unicode="&#x262;" 
d="M512 0h2048v1536h-1024v-512h512v-512h-1536v-512zM0 512h512v1536h-512v-1536zM512 2048h2048v512h-2048v-512z" />
    <glyph glyph-name="uni263" unicode="&#x263;" 
d="M1024 -512h512v512h-512v-512zM512 0h512v512h-512v-512zM1536 0h512v512h-512v-512zM1024 512h512v512h-512v-512zM512 1024h512v512h-512v-512zM1536 1024h512v512h-512v-512zM0 1536h512v1024h-512v-1024zM2048 1536h512v1024h-512v-1024z" />
    <glyph glyph-name="uni264" unicode="&#x264;" 
d="M1024 0h512v512h-512v-512zM512 512h512v512h-512v-512zM1536 512h512v512h-512v-512zM1024 1024h512v512h-512v-512zM512 1536h512v512h-512v-512zM1536 1536h512v512h-512v-512zM0 2048h512v512h-512v-512zM2048 2048h512v512h-512v-512z" />
    <glyph glyph-name="uni265" unicode="&#x265;" 
d="M512 512h1024v512h-1024v-512zM0 1024h512v1536h-512v-1536zM2048 -512h512v3072h-512v-1024h-512v-512h512v-1536z" />
    <glyph glyph-name="uni266" unicode="&#x266;" 
d="M2048 0h512v2048h-512v-2048zM1024 2048h1024v512h-1024v-512zM0 0h512v1536h512v512h-512v1024h-512v-3072zM512 3072h512v512h-512v-512z" />
    <glyph glyph-name="uni267" unicode="&#x267;" 
d="M1536 -512h512v512h-512v-512zM2048 0h512v2048h-512v-2048zM1024 2048h1024v512h-1024v-512zM0 0h512v1536h512v512h-512v1024h-512v-3072zM512 3072h512v512h-512v-512z" />
    <glyph glyph-name="uni268" unicode="&#x268;" horiz-adv-x="2048" 
d="M512 0h512v1024h512v512h-512v1024h-512v-1024h-512v-512h512v-1024zM512 3072h512v512h-512v-512z" />
    <glyph glyph-name="uni269" unicode="&#x269;" horiz-adv-x="1536" 
d="M512 0h512v512h-512v-512zM0 512h512v2048h-512v-2048z" />
    <glyph glyph-name="uni26A" unicode="&#x26a;" horiz-adv-x="2048" 
d="M0 0h1536v512h-512v1536h512v512h-1536v-512h512v-1536h-512v-512z" />
    <glyph glyph-name="uni26B" unicode="&#x26b;" 
d="M1536 0h512v512h-512v-512zM0 1536h512v512h-512v-512zM2048 2048h512v512h-512v-512zM1024 512h512v1024h512v512h-512v1536h-512v-1024h-512v-512h512v-1536z" />
    <glyph glyph-name="uni26C" unicode="&#x26c;" horiz-adv-x="2560" 
d="M1536 0h512v512h-512v-512zM0 1536h512v512h-512v-512zM1024 512h512v512h512v512h-512v2048h-512v-1024h-512v-512h512v-512h-512v-512h512v-512z" />
    <glyph glyph-name="uni26D" unicode="&#x26d;" horiz-adv-x="2048" 
d="M512 -512h512v512h-512v-512zM1024 0h512v512h-512v-512zM0 0h512v3584h-512v-3584z" />
    <glyph glyph-name="uni26E" unicode="&#x26e;" 
d="M1024 -512h1024v512h-1024v-512zM2048 0h512v1024h-512v-1024zM0 0h512v2048h1024v-512h-512v-512h1024v1024h512v512h-2048v1024h-512v-3584z" />
    <glyph glyph-name="uni26F" unicode="&#x26f;" 
d="M512 0h512v512h-512v-512zM1024 512h512v1024h-512v-1024zM0 512h512v2048h-512v-2048zM1536 0h1024v2560h-512v-2048h-512v-512z" />
    <glyph glyph-name="uni270" unicode="&#x270;" 
d="M512 512h512v512h-512v-512zM1024 1024h512v1024h-512v-1024zM0 1024h512v1536h-512v-1536zM2048 -512h512v3072h-512v-1536h-512v-512h512v-1024z" />
    <glyph glyph-name="uni271" unicode="&#x271;" 
d="M1536 -512h512v512h-512v-512zM1024 1024h512v1024h-512v-1024zM2048 0h512v2048h-512v-2048zM0 0h512v2048h512v512h-1024v-2560zM1536 2048h512v512h-512v-512z" />
    <glyph glyph-name="uni272" unicode="&#x272;" 
d="M512 -512h512v512h-512v-512zM0 0h512v512h-512v-512zM2048 0h512v2048h-512v-2048zM1024 0h512v2048h512v512h-1024v-2560z" />
    <glyph glyph-name="uni273" unicode="&#x273;" 
d="M1536 -512h512v512h-512v-512zM2048 0h512v512h-512v-512zM1024 0h512v2048h-512v-2048zM0 0h512v2048h512v512h-1024v-2560z" />
    <glyph glyph-name="uni274" unicode="&#x274;" 
d="M1024 1024h512v512h-512v-512zM0 0h512v1536h512v512h-512v512h-512v-2560zM2048 0h512v2560h-512v-1536h-512v-512h512v-512z" />
    <glyph glyph-name="uni275" unicode="&#x275;" 
d="M512 0h1536v512h-1536v-512zM0 512h512v512h1536v-512h512v1536h-512v-512h-1536v512h-512v-1536zM512 2048h1536v512h-1536v-512z" />
    <glyph glyph-name="uni276" unicode="&#x276;" 
d="M0 512h512v1536h-512v-1536zM512 0h2048v512h-1024v512h512v512h-512v512h1024v512h-2048v-512h512v-1536h-512v-512z" />
    <glyph glyph-name="uni277" unicode="&#x277;" 
d="M512 0h512v512h-512v-512zM1536 0h512v512h-512v-512zM1024 512h512v1024h-512v-1024zM0 512h512v1536h-512v-1536zM2048 512h512v1536h-512v-1536zM512 2048h1536v512h-1536v-512z" />
    <glyph glyph-name="uni278" unicode="&#x278;" 
d="M0 1024h512v1024h-512v-1024zM2048 1024h512v1024h-512v-1024zM1024 -512h512v1024h512v512h-512v1024h512v512h-512v1024h-512v-1024h-512v-512h512v-1024h-512v-512h512v-1024z" />
    <glyph glyph-name="uni279" unicode="&#x279;" 
d="M512 0h1024v512h-1024v-512zM0 512h512v512h-512v-512zM2048 0h512v2560h-512v-1536h-512v-512h512v-512z" />
    <glyph glyph-name="uni27A" unicode="&#x27a;" 
d="M512 0h1024v512h-1024v-512zM0 512h512v512h-512v-512zM2048 0h512v3584h-512v-2560h-512v-512h512v-512z" />
    <glyph glyph-name="uni27B" unicode="&#x27b;" 
d="M1536 -512h512v512h-512v-512zM2048 0h512v512h-512v-512zM0 512h512v512h-512v-512zM512 0h1024v2560h-512v-2048h-512v-512z" />
    <glyph glyph-name="uni27C" unicode="&#x27c;" 
d="M2048 1536h512v512h-512v-512zM0 -512h512v2048h512v512h-512v512h-512v-3072zM1024 2048h1024v512h-1024v-512z" />
    <glyph glyph-name="uni27D" unicode="&#x27d;" 
d="M512 -512h512v512h-512v-512zM2048 1536h512v512h-512v-512zM0 0h512v1536h512v512h-512v512h-512v-2560zM1024 2048h1024v512h-1024v-512z" />
    <glyph glyph-name="uni27E" unicode="&#x27e;" horiz-adv-x="2560" 
d="M0 0h512v2048h-512v-2048zM1536 1536h512v512h-512v-512zM512 2048h1024v512h-1024v-512z" />
    <glyph glyph-name="uni27F" unicode="&#x27f;" horiz-adv-x="2560" 
d="M0 1536h512v512h-512v-512zM1536 -512h512v2560h-512v-2560zM512 2048h1024v512h-1024v-512z" />
    <glyph glyph-name="uni280" unicode="&#x280;" 
d="M2048 0h512v1024h-512v-1024zM2048 1536h512v512h-512v-512zM0 0h512v1024h1536v512h-1536v512h1536v512h-2048v-2560z" />
    <glyph glyph-name="uni281" unicode="&#x281;" 
d="M2048 512h512v512h-512v-512zM0 0h2048v512h-1536v512h1536v512h-1536v1024h-512v-2560zM2048 1536h512v1024h-512v-1024z" />
    <glyph glyph-name="uni282" unicode="&#x282;" 
d="M512 -1024h512v512h-512v-512zM0 -512h512v512h1536v512h-2048v-1024zM2048 512h512v512h-512v-512zM512 1024h1536v512h-1536v-512zM0 1536h512v512h-512v-512zM512 2048h2048v512h-2048v-512z" />
    <glyph glyph-name="uni283" unicode="&#x283;" horiz-adv-x="2048" 
d="M0 -512h512v512h-512v-512zM512 0h512v3072h-512v-3072zM1024 3072h512v512h-512v-512z" />
    <glyph glyph-name="uni284" unicode="&#x284;" horiz-adv-x="2560" 
d="M512 -512h512v512h-512v-512zM0 0h512v512h-512v-512zM1024 0h512v1024h512v512h-512v1536h-512v-1536h-512v-512h512v-1024zM1536 3072h512v512h-512v-512z" />
    <glyph glyph-name="uni285" unicode="&#x285;" 
d="M1536 -512h512v512h-512v-512zM2048 0h512v512h-512v-512zM0 1536h512v512h-512v-512zM1024 0h512v2048h-512v-2048zM512 2048h512v512h-512v-512z" />
    <glyph glyph-name="uni286" unicode="&#x286;" horiz-adv-x="2560" 
d="M512 -512h512v512h-512v-512zM0 0h512v512h-512v-512zM1024 0h512v512h512v512h-512v2048h-512v-2048h-512v-512h512v-512zM1536 3072h512v512h-512v-512z" />
    <glyph glyph-name="uni287" unicode="&#x287;" horiz-adv-x="2048" 
d="M512 -1024h512v1024h512v512h-512v1536h-512v-1536h-512v-512h512v-1024zM0 2048h512v512h-512v-512z" />
    <glyph glyph-name="uni288" unicode="&#x288;" horiz-adv-x="2560" 
d="M1024 -512h512v512h-512v-512zM1536 0h512v512h-512v-512zM512 0h512v2048h512v512h-512v1024h-512v-1024h-512v-512h512v-2048z" />
    <glyph glyph-name="uni289" unicode="&#x289;" horiz-adv-x="3584" 
d="M1024 0h1536v1024h512v512h-512v1024h-512v-1024h-1024v1024h-512v-1024h-512v-512h512v-512h512v512h1024v-512h-1024v-512z" />
    <glyph glyph-name="uni28A" unicode="&#x28a;" 
d="M512 0h1536v512h-1536v-512zM0 512h512v1024h-512v-1024zM2048 512h512v1024h-512v-1024zM512 1536h512v1024h-1024v-512h512v-512zM1536 1536h512v512h512v512h-1024v-1024z" />
    <glyph glyph-name="uni28B" unicode="&#x28b;" 
d="M1024 0h512v512h-512v-512zM512 512h512v512h-512v-512zM1536 512h512v512h-512v-512zM2048 1024h512v1024h-512v-1024zM0 1024h512v1536h-512v-1536zM1024 2048h1024v512h-1024v-512z" />
    <glyph glyph-name="uni28C" unicode="&#x28c;" 
d="M0 0h512v1536h-512v-1536zM2048 0h512v1536h-512v-1536zM512 1536h512v512h-512v-512zM1536 1536h512v512h-512v-512zM1024 2048h512v512h-512v-512z" />
    <glyph glyph-name="uni28D" unicode="&#x28d;" 
d="M2048 0h512v2048h-512v-2048zM0 0h512v2048h512v-1024h512v1024h512v512h-2048v-2560z" />
    <glyph glyph-name="uni28E" unicode="&#x28e;" 
d="M2048 0h512v1536h-512v-1536zM0 0h512v1536h1536v512h-1536v512h-512v-2560zM512 2560h2048v512h-2048v-512z" />
    <glyph glyph-name="uni28F" unicode="&#x28f;" 
d="M1024 0h512v1536h-512v-1536zM512 1536h512v512h-512v-512zM1536 1536h512v512h-512v-512zM0 2048h512v512h-512v-512zM2048 2048h512v512h-512v-512z" />
    <glyph glyph-name="uni290" unicode="&#x290;" 
d="M2048 -1024h512v512h-512v-512zM1536 -512h512v1024h-1536v512h-512v-1024h1536v-512zM512 1024h512v512h-512v-512zM1024 1536h512v512h512v512h-2048v-512h1024v-512z" />
    <glyph glyph-name="uni291" unicode="&#x291;" 
d="M1024 -512h512v512h512v512h-512v512h-512v-512h-512v512h-512v-1024h1024v-512zM2048 512h512v512h-512v-512zM512 1024h512v512h-512v-512zM1536 1024h512v512h-512v-512zM1024 1536h512v512h512v512h-2048v-512h1024v-512z" />
    <glyph glyph-name="uni292" unicode="&#x292;" 
d="M0 -512h2048v512h-2048v-512zM2048 0h512v1024h-512v-1024zM1024 1024h1024v1024h512v512h-2560v-512h1536v-512h-512v-512z" />
    <glyph glyph-name="uni293" unicode="&#x293;" 
d="M0 0h512v512h-512v-512zM1024 -1024h512v512h512v512h-512v512h-512v-512h-512v-512h512v-512zM512 512h512v512h-512v-512zM2048 0h512v1024h-512v-1024zM1024 1024h1024v1024h512v512h-2560v-512h1536v-512h-512v-512z" />
    <glyph glyph-name="uni294" unicode="&#x294;" 
d="M1024 0h512v1536h512v512h-1024v-2048zM2048 2048h512v1024h-512v-1024zM0 3072h2048v512h-2048v-512z" />
    <glyph glyph-name="uni295" unicode="&#x295;" 
d="M1024 0h512v2048h-1024v-512h512v-1536zM0 2048h512v1024h-512v-1024zM512 3072h2048v512h-2048v-512z" />
    <glyph glyph-name="uni296" unicode="&#x296;" 
d="M0 0h2048v512h-2048v-512zM2048 512h512v1024h-512v-1024zM1024 1536h1024v512h-512v1536h-512v-2048z" />
    <glyph glyph-name="uni297" unicode="&#x297;" 
d="M512 -512h1536v512h-1536v-512zM2048 0h512v512h-512v-512zM0 0h512v2048h-512v-2048zM2048 1536h512v512h-512v-512zM512 2048h1536v512h-1536v-512z" />
    <glyph glyph-name="uni298" unicode="&#x298;" 
d="M512 0h1536v512h-1536v-512zM1024 1536h512v512h-512v-512zM0 512h512v2560h-512v-2560zM2048 512h512v2560h-512v-2560zM512 3072h1536v512h-1536v-512z" />
    <glyph glyph-name="uni299" unicode="&#x299;" 
d="M2048 512h512v512h-512v-512zM2048 1536h512v512h-512v-512zM0 0h2048v512h-1536v512h1536v512h-1536v512h1536v512h-2048v-2560z" />
    <glyph glyph-name="uni29A" unicode="&#x29a;" 
d="M512 0h1536v512h-1536v-512zM0 512h512v512h-512v-512zM512 1024h1024v512h-1024v-512zM0 1536h512v512h-512v-512zM2048 512h512v1536h-512v-1536zM512 2048h1536v512h-1536v-512z" />
    <glyph glyph-name="uni29B" unicode="&#x29b;" 
d="M512 0h1536v1536h-1024v-512h512v-512h-1024v-512zM0 512h512v1536h-512v-1536zM512 2048h1536v1024h-512v-512h-1024v-512zM2048 3072h512v512h-512v-512z" />
    <glyph glyph-name="uni29C" unicode="&#x29c;" 
d="M0 0h512v1024h1536v-1024h512v2560h-512v-1024h-1536v1024h-512v-2560z" />
    <glyph glyph-name="uni29D" unicode="&#x29d;" 
d="M512 -512h1024v512h-1024v-512zM0 0h512v512h-512v-512zM1536 0h512v512h512v512h-512v1536h-512v-1536h-1024v-512h1024v-512zM1536 3072h512v512h-512v-512z" />
    <glyph glyph-name="uni29E" unicode="&#x29e;" horiz-adv-x="2560" 
d="M0 0h512v512h-512v-512zM512 512h512v512h-512v-512zM512 1536h512v512h-512v-512zM0 2048h512v512h-512v-512zM1536 -1024h512v3584h-512v-1024h-512v-512h512v-2048z" />
    <glyph glyph-name="uni29F" unicode="&#x29f;" 
d="M0 0h2560v512h-2048v2048h-512v-2560z" />
    <glyph glyph-name="uni2A0" unicode="&#x2a0;" 
d="M0 1024h512v1024h-512v-1024zM512 2048h512v512h-512v-512zM1536 -512h512v3584h-512v-1024h-512v-512h512v-512h-1024v-512h1024v-1024zM2048 3072h512v512h-512v-512z" />
    <glyph glyph-name="uni2A1" unicode="&#x2a1;" 
d="M1024 0h512v512h1024v512h-1024v512h512v512h-1024v-1024h-1024v-512h1024v-512zM2048 2048h512v1024h-512v-1024zM0 3072h2048v512h-2048v-512z" />
    <glyph glyph-name="uni2A2" unicode="&#x2a2;" 
d="M1024 0h512v512h1024v512h-1024v1024h-1024v-512h512v-512h-1024v-512h1024v-512zM0 2048h512v1024h-512v-1024zM512 3072h2048v512h-2048v-512z" />
    <glyph glyph-name="uni374" unicode="&#x374;" horiz-adv-x="2048" 
d="M0 2048h512v512h-512v-512zM512 2560h512v512h-512v-512zM1024 3072h512v512h-512v-512z" />
    <glyph glyph-name="uni375" unicode="&#x375;" horiz-adv-x="2048" 
d="M0 -512h512v512h-512v-512zM512 0h512v512h-512v-512zM1024 512h512v512h-512v-512z" />
    <glyph glyph-name="tonos" unicode="&#x384;" horiz-adv-x="1536" 
d="M0 2560h512v512h-512v-512zM512 3072h512v512h-512v-512z" />
    <glyph glyph-name="Alphatonos" unicode="&#x386;" 
d="M0 0h512v2048h1536v-2048h512v3072h-512v-512h-1536v512h-512v-3072zM512 3072h1536v512h-1536v-512zM1024 4096h512v512h-512v-512zM1536 4608h512v512h-512v-512z" />
    <glyph glyph-name="anoteleia" unicode="&#x387;" horiz-adv-x="1024" 
d="M0 1536h512v512h-512v-512z" />
    <glyph glyph-name="Epsilontonos" unicode="&#x388;" 
d="M0 0h2560v512h-2048v1536h1024v512h-1024v512h2048v512h-2560v-3584zM1024 4096h512v512h-512v-512zM1536 4608h512v512h-512v-512z" />
    <glyph glyph-name="Etatonos" unicode="&#x389;" 
d="M0 0h512v2048h1536v-2048h512v3584h-512v-1024h-1536v1024h-512v-3584zM1024 4096h512v512h-512v-512zM1536 4608h512v512h-512v-512z" />
    <glyph glyph-name="Iotatonos" unicode="&#x38a;" horiz-adv-x="2048" 
d="M0 0h1536v512h-512v2560h512v512h-1536v-512h512v-2560h-512v-512zM512 4096h512v512h-512v-512zM1024 4608h512v512h-512v-512z" />
    <glyph glyph-name="Omicrontonos" unicode="&#x38c;" 
d="M512 0h1536v512h-1536v-512zM0 512h512v2560h-512v-2560zM2048 512h512v2560h-512v-2560zM512 3072h1536v512h-1536v-512zM1024 4096h512v512h-512v-512zM1536 4608h512v512h-512v-512z" />
    <glyph glyph-name="Upsilontonos" unicode="&#x38e;" 
d="M1024 0h512v2560h-512v-2560zM512 2560h512v512h-512v-512zM1536 2560h512v512h-512v-512zM0 3072h512v512h-512v-512zM2048 3072h512v512h-512v-512zM1024 4096h512v512h-512v-512zM1536 4608h512v512h-512v-512z" />
    <glyph glyph-name="Omegatonos" unicode="&#x38f;" 
d="M0 0h1024v1024h-512v-512h-512v-512zM1536 0h1024v512h-512v512h-512v-1024zM0 1024h512v2048h-512v-2048zM2048 1024h512v2048h-512v-2048zM512 3072h1536v512h-1536v-512zM1024 4096h512v512h-512v-512zM1536 4608h512v512h-512v-512z" />
    <glyph glyph-name="iotadieresistonos" unicode="&#x390;" horiz-adv-x="2048" 
d="M1024 0h512v512h-512v-512zM512 512h512v2048h-512v-2048zM0 3072h512v512h-512v-512zM1024 3072h512v512h-512v-512zM512 4096h512v512h-512v-512zM1024 4608h512v512h-512v-512z" />
    <glyph glyph-name="Alpha" unicode="&#x391;" 
d="M0 0h512v2048h1536v-2048h512v3072h-512v-512h-1536v512h-512v-3072zM512 3072h1536v512h-1536v-512z" />
    <glyph glyph-name="Beta" unicode="&#x392;" 
d="M2048 512h512v1536h-512v-1536zM2048 2560h512v512h-512v-512zM0 0h2048v512h-1536v1536h1536v512h-1536v512h1536v512h-2048v-3584z" />
    <glyph glyph-name="Gamma" unicode="&#x393;" 
d="M0 0h512v3072h2048v512h-2560v-3584z" />
    <glyph glyph-name="uni394" unicode="&#x394;" 
d="M0 0h2560v2048h-512v-1536h-1536v1536h-512v-2048zM512 2048h512v1024h-512v-1024zM1536 2048h512v1024h-512v-1024zM1024 3072h512v512h-512v-512z" />
    <glyph glyph-name="Epsilon" unicode="&#x395;" 
d="M0 0h2560v512h-2048v1536h1024v512h-1024v512h2048v512h-2560v-3584z" />
    <glyph glyph-name="Zeta" unicode="&#x396;" 
d="M0 0h2560v512h-2048v512h-512v-1024zM512 1024h512v512h-512v-512zM1024 1536h512v512h-512v-512zM1536 2048h512v512h-512v-512zM2048 2560h512v1024h-2560v-512h2048v-512z" />
    <glyph glyph-name="Eta" unicode="&#x397;" 
d="M0 0h512v2048h1536v-2048h512v3584h-512v-1024h-1536v1024h-512v-3584z" />
    <glyph glyph-name="Theta" unicode="&#x398;" 
d="M512 0h1536v512h-1536v-512zM0 512h512v1536h1536v-1536h512v2560h-512v-512h-1536v512h-512v-2560zM512 3072h1536v512h-1536v-512z" />
    <glyph glyph-name="Iota" unicode="&#x399;" horiz-adv-x="2048" 
d="M0 0h1536v512h-512v2560h512v512h-1536v-512h512v-2560h-512v-512z" />
    <glyph glyph-name="Kappa" unicode="&#x39a;" 
d="M2048 0h512v1536h-512v-1536zM1536 1536h512v512h-512v-512zM1536 2560h512v512h-512v-512zM0 0h512v2048h1024v512h-1024v1024h-512v-3584zM2048 3072h512v512h-512v-512z" />
    <glyph glyph-name="Lambda" unicode="&#x39b;" 
d="M0 0h512v2048h-512v-2048zM2048 0h512v2048h-512v-2048zM512 2048h512v1024h-512v-1024zM1536 2048h512v1024h-512v-1024zM1024 3072h512v512h-512v-512z" />
    <glyph glyph-name="Mu" unicode="&#x39c;" 
d="M1024 2048h512v512h-512v-512zM0 0h512v2560h512v512h-512v512h-512v-3584zM2048 0h512v3584h-512v-512h-512v-512h512v-2560z" />
    <glyph glyph-name="Nu" unicode="&#x39d;" 
d="M1024 2048h512v512h-512v-512zM0 0h512v2560h512v512h-512v512h-512v-3584zM2048 0h512v3584h-512v-1536h-512v-512h512v-1536z" />
    <glyph glyph-name="Xi" unicode="&#x39e;" 
d="M0 0h2560v512h-2560v-512zM512 2048h1536v512h-1536v-512zM0 3072h2560v512h-2560v-512z" />
    <glyph glyph-name="Omicron" unicode="&#x39f;" 
d="M512 0h1536v512h-1536v-512zM0 512h512v2560h-512v-2560zM2048 512h512v2560h-512v-2560zM512 3072h1536v512h-1536v-512z" />
    <glyph glyph-name="Pi" unicode="&#x3a0;" 
d="M0 0h512v3072h1536v-3072h512v3584h-2560v-3584z" />
    <glyph glyph-name="Rho" unicode="&#x3a1;" 
d="M2048 2560h512v512h-512v-512zM0 0h512v2048h1536v512h-1536v512h1536v512h-2048v-3584z" />
    <glyph glyph-name="Sigma" unicode="&#x3a3;" 
d="M0 0h2560v512h-2048v512h-512v-1024zM512 1024h512v512h-512v-512zM1024 1536h512v512h-512v-512zM512 2048h512v512h-512v-512zM0 2560h512v512h2048v512h-2560v-1024z" />
    <glyph glyph-name="Tau" unicode="&#x3a4;" 
d="M1024 0h512v3072h1024v512h-2560v-512h1024v-3072z" />
    <glyph glyph-name="Upsilon" unicode="&#x3a5;" 
d="M1024 0h512v2560h-512v-2560zM512 2560h512v512h-512v-512zM1536 2560h512v512h-512v-512zM0 3072h512v512h-512v-512zM2048 3072h512v512h-512v-512z" />
    <glyph glyph-name="Phi" unicode="&#x3a6;" 
d="M0 1024h512v1536h-512v-1536zM2048 1024h512v1536h-512v-1536zM1024 0h512v512h512v512h-512v1536h512v512h-512v512h-512v-512h-512v-512h512v-1536h-512v-512h512v-512z" />
    <glyph glyph-name="Chi" unicode="&#x3a7;" 
d="M0 0h512v1536h-512v-1536zM2048 0h512v1536h-512v-1536zM512 1536h512v512h-512v-512zM1536 1536h512v512h-512v-512zM1024 2048h512v512h-512v-512zM512 2560h512v512h-512v-512zM1536 2560h512v512h-512v-512zM0 3072h512v512h-512v-512zM2048 3072h512v512h-512v-512z
" />
    <glyph glyph-name="Psi" unicode="&#x3a8;" 
d="M0 2048h512v1536h-512v-1536zM1024 0h512v1536h512v512h-512v1536h-512v-1536h-512v-512h512v-1536zM2048 2048h512v1536h-512v-1536z" />
    <glyph glyph-name="uni3A9" unicode="&#x3a9;" 
d="M0 0h1024v1024h-512v-512h-512v-512zM1536 0h1024v512h-512v512h-512v-1024zM0 1024h512v2048h-512v-2048zM2048 1024h512v2048h-512v-2048zM512 3072h1536v512h-1536v-512z" />
    <glyph glyph-name="Iotadieresis" unicode="&#x3aa;" horiz-adv-x="2048" 
d="M0 0h1536v512h-512v2560h512v512h-1536v-512h512v-2560h-512v-512zM0 4096h512v512h-512v-512zM1024 4096h512v512h-512v-512z" />
    <glyph glyph-name="Upsilondieresis" unicode="&#x3ab;" 
d="M1024 0h512v2560h-512v-2560zM512 2560h512v512h-512v-512zM1536 2560h512v512h-512v-512zM0 3072h512v512h-512v-512zM2048 3072h512v512h-512v-512zM512 4096h512v512h-512v-512zM1536 4096h512v512h-512v-512z" />
    <glyph glyph-name="alphatonos" unicode="&#x3ac;" 
d="M512 0h1024v512h-1024v-512zM2048 0h512v512h-512v-512zM0 512h512v1536h-512v-1536zM1536 512h512v1536h-512v-1536zM512 2048h1024v512h-1024v-512zM2048 2048h512v512h-512v-512zM1024 3072h512v512h-512v-512zM1536 3584h512v512h-512v-512z" />
    <glyph glyph-name="epsilontonos" unicode="&#x3ad;" 
d="M512 0h2048v512h-2048v-512zM0 512h512v512h-512v-512zM512 1024h1024v512h-1024v-512zM0 1536h512v512h-512v-512zM512 2048h2048v512h-2048v-512zM1024 3072h512v512h-512v-512zM1536 3584h512v512h-512v-512z" />
    <glyph glyph-name="etatonos" unicode="&#x3ae;" 
d="M2048 -512h512v2560h-512v-2560zM0 0h512v2048h1536v512h-2048v-2560zM1024 3072h512v512h-512v-512zM1536 3584h512v512h-512v-512z" />
    <glyph glyph-name="iotatonos" unicode="&#x3af;" horiz-adv-x="1536" 
d="M512 0h512v512h-512v-512zM0 512h512v2048h-512v-2048zM0 3072h512v512h-512v-512zM512 3584h512v512h-512v-512z" />
    <glyph glyph-name="upsilondieresistonos" unicode="&#x3b0;" 
d="M512 0h1536v512h-1536v-512zM0 512h512v2048h-512v-2048zM2048 512h512v2048h-512v-2048zM512 3072h512v512h-512v-512zM1536 3072h512v512h-512v-512zM1024 4096h512v512h-512v-512zM1536 4608h512v512h-512v-512z" />
    <glyph glyph-name="alpha" unicode="&#x3b1;" 
d="M512 0h1024v512h-1024v-512zM2048 0h512v512h-512v-512zM0 512h512v1536h-512v-1536zM1536 512h512v1536h-512v-1536zM512 2048h1024v512h-1024v-512zM2048 2048h512v512h-512v-512z" />
    <glyph glyph-name="beta" unicode="&#x3b2;" 
d="M2048 512h512v1536h-512v-1536zM1024 2048h1024v512h-1024v-512zM0 -512h512v512h1536v512h-1536v2560h-512v-3584zM2048 2560h512v512h-512v-512zM512 3072h1536v512h-1536v-512z" />
    <glyph glyph-name="gamma" unicode="&#x3b3;" 
d="M1024 -512h512v2048h-512v-2048zM512 1536h512v512h-512v-512zM1536 1536h512v512h-512v-512zM0 2048h512v512h-512v-512zM2048 2048h512v512h-512v-512z" />
    <glyph glyph-name="delta" unicode="&#x3b4;" 
d="M512 0h1536v512h-1536v-512zM0 512h512v1024h-512v-1024zM2048 512h512v1024h-512v-1024zM512 1536h1536v512h-512v512h-512v-512h-512v-512zM512 2560h512v512h1024v512h-1536v-1024z" />
    <glyph glyph-name="epsilon" unicode="&#x3b5;" 
d="M512 0h2048v512h-2048v-512zM0 512h512v512h-512v-512zM512 1024h1024v512h-1024v-512zM0 1536h512v512h-512v-512zM512 2048h2048v512h-2048v-512z" />
    <glyph glyph-name="zeta" unicode="&#x3b6;" 
d="M1536 -512h512v512h-512v-512zM2048 0h512v512h-512v-512zM512 512h1536v512h-1536v-512zM0 1024h512v1536h-512v-1536zM512 2560h512v512h1536v512h-2560v-512h512v-512z" />
    <glyph glyph-name="eta" unicode="&#x3b7;" 
d="M2048 -512h512v2560h-512v-2560zM0 0h512v2048h1536v512h-2048v-2560z" />
    <glyph glyph-name="theta" unicode="&#x3b8;" horiz-adv-x="2560" 
d="M512 0h1024v512h-1024v-512zM0 512h512v1024h1024v-1024h512v2560h-512v-1024h-1024v1024h-512v-2560zM512 3072h1024v512h-1024v-512z" />
    <glyph glyph-name="iota" unicode="&#x3b9;" horiz-adv-x="1536" 
d="M512 0h512v512h-512v-512zM0 512h512v2048h-512v-2048z" />
    <glyph glyph-name="kappa" unicode="&#x3ba;" horiz-adv-x="2560" 
d="M1536 0h512v512h-512v-512zM1024 512h512v512h-512v-512zM1024 1536h512v512h-512v-512zM0 0h512v1024h512v512h-512v1024h-512v-2560zM1536 2048h512v512h-512v-512z" />
    <glyph glyph-name="lambda" unicode="&#x3bb;" 
d="M0 0h512v1536h-512v-1536zM2048 0h512v1536h-512v-1536zM512 1536h512v512h-512v-512zM1536 1536h512v512h-512v-512zM1024 2048h512v512h-512v-512zM512 2560h512v512h-512v-512zM0 3072h512v512h-512v-512z" />
    <glyph glyph-name="uni3BC" unicode="&#x3bc;" 
d="M0 -512h512v512h1024v512h-1024v2048h-512v-3072zM2048 0h512v2560h-512v-1536h-512v-512h512v-512z" />
    <glyph glyph-name="nu" unicode="&#x3bd;" 
d="M1024 0h512v512h-512v-512zM512 512h512v512h-512v-512zM1536 512h512v512h-512v-512zM0 1024h512v1536h-512v-1536zM2048 1024h512v1536h-512v-1536z" />
    <glyph glyph-name="xi" unicode="&#x3be;" 
d="M1536 -512h512v512h-512v-512zM2048 0h512v512h-512v-512zM1024 512h1024v512h-1024v-512zM512 1024h512v1024h-512v-1024zM1024 2048h1024v512h-1024v-512zM512 2560h512v512h1536v512h-2560v-512h512v-512z" />
    <glyph glyph-name="omicron" unicode="&#x3bf;" 
d="M512 0h1536v512h-1536v-512zM0 512h512v1536h-512v-1536zM2048 512h512v1536h-512v-1536zM512 2048h1536v512h-1536v-512z" />
    <glyph glyph-name="pi" unicode="&#x3c0;" 
d="M512 0h512v2048h512v-2048h512v2048h512v512h-2560v-512h512v-2048z" />
    <glyph glyph-name="rho" unicode="&#x3c1;" 
d="M0 -512h512v1024h1536v512h-1536v1024h-512v-2560zM2048 1024h512v1024h-512v-1024zM512 2048h1536v512h-1536v-512z" />
    <glyph glyph-name="sigma1" unicode="&#x3c2;" 
d="M1536 -512h512v512h-512v-512zM2048 0h512v512h-512v-512zM512 512h1536v512h-1536v-512zM0 1024h512v1024h-512v-1024zM512 2048h2048v512h-2048v-512z" />
    <glyph glyph-name="sigma" unicode="&#x3c3;" 
d="M512 0h1024v512h-1024v-512zM0 512h512v1536h-512v-1536zM1536 512h512v1536h512v512h-2048v-512h1024v-1536z" />
    <glyph glyph-name="tau" unicode="&#x3c4;" 
d="M1536 0h512v512h-512v-512zM1024 512h512v1536h1024v512h-2560v-512h1024v-1536z" />
    <glyph glyph-name="upsilon" unicode="&#x3c5;" 
d="M512 0h1536v512h-1536v-512zM0 512h512v2048h-512v-2048zM2048 512h512v2048h-512v-2048z" />
    <glyph glyph-name="phi" unicode="&#x3c6;" 
d="M0 1024h512v1024h-512v-1024zM2048 1024h512v1024h-512v-1024zM1024 -512h512v1024h512v512h-512v1024h512v512h-512v1024h-512v-1024h-512v-512h512v-1024h-512v-512h512v-1024z" />
    <glyph glyph-name="chi" unicode="&#x3c7;" 
d="M0 -512h512v1024h-512v-1024zM2048 -512h512v1024h-512v-1024zM512 512h512v512h-512v-512zM1536 512h512v512h-512v-512zM1024 1024h512v512h-512v-512zM512 1536h512v512h-512v-512zM1536 1536h512v512h-512v-512zM0 2048h512v512h-512v-512zM2048 2048h512v512h-512
v-512z" />
    <glyph glyph-name="psi" unicode="&#x3c8;" 
d="M0 1024h512v1536h-512v-1536zM1024 -512h512v1024h512v512h-512v1536h-512v-1536h-512v-512h512v-1024zM2048 1024h512v1536h-512v-1536z" />
    <glyph glyph-name="omega" unicode="&#x3c9;" 
d="M512 0h512v512h-512v-512zM1536 0h512v512h-512v-512zM1024 512h512v1024h-512v-1024zM0 512h512v2048h-512v-2048zM2048 512h512v2048h-512v-2048z" />
    <glyph glyph-name="iotadieresis" unicode="&#x3ca;" horiz-adv-x="2048" 
d="M1024 0h512v512h-512v-512zM512 512h512v2048h-512v-2048zM0 3072h512v512h-512v-512zM1024 3072h512v512h-512v-512z" />
    <glyph glyph-name="upsilondieresis" unicode="&#x3cb;" 
d="M512 0h1536v512h-1536v-512zM0 512h512v2048h-512v-2048zM2048 512h512v2048h-512v-2048zM512 3072h512v512h-512v-512zM1536 3072h512v512h-512v-512z" />
    <glyph glyph-name="omicrontonos" unicode="&#x3cc;" 
d="M512 0h1536v512h-1536v-512zM0 512h512v1536h-512v-1536zM2048 512h512v1536h-512v-1536zM512 2048h1536v512h-1536v-512zM1024 3072h512v512h-512v-512zM1536 3584h512v512h-512v-512z" />
    <glyph glyph-name="upsilontonos" unicode="&#x3cd;" 
d="M512 0h1536v512h-1536v-512zM0 512h512v2048h-512v-2048zM2048 512h512v2048h-512v-2048zM1024 3072h512v512h-512v-512zM1536 3584h512v512h-512v-512z" />
    <glyph glyph-name="omegatonos" unicode="&#x3ce;" 
d="M512 0h512v512h-512v-512zM1536 0h512v512h-512v-512zM1024 512h512v1024h-512v-1024zM0 512h512v2048h-512v-2048zM2048 512h512v2048h-512v-2048zM1024 3072h512v512h-512v-512zM1536 3584h512v512h-512v-512z" />
    <glyph glyph-name="uni400" unicode="&#x400;" 
d="M0 0h2560v512h-2048v1536h1024v512h-1024v512h2048v512h-2560v-3584zM1024 4096h512v512h-512v-512zM512 4608h512v512h-512v-512z" />
    <glyph glyph-name="uni401" unicode="&#x401;" 
d="M0 0h2560v512h-2048v1536h1024v512h-1024v512h2048v512h-2560v-3584zM512 4096h512v512h-512v-512zM1536 4096h512v512h-512v-512z" />
    <glyph glyph-name="uni402" unicode="&#x402;" 
d="M1536 0h512v512h-512v-512zM2048 512h512v1536h-512v-1536zM512 0h512v2048h1024v512h-1024v512h1024v512h-2048v-512h512v-3072z" />
    <glyph glyph-name="uni403" unicode="&#x403;" 
d="M0 0h512v3072h2048v512h-2560v-3584zM1024 4096h512v512h-512v-512zM1536 4608h512v512h-512v-512z" />
    <glyph glyph-name="uni404" unicode="&#x404;" 
d="M512 0h1536v512h-1536v-512zM2048 512h512v512h-512v-512zM0 512h512v1024h1024v512h-1024v1024h-512v-2560zM2048 2560h512v512h-512v-512zM512 3072h1536v512h-1536v-512z" />
    <glyph glyph-name="uni405" unicode="&#x405;" 
d="M512 0h1536v512h-1536v-512zM0 512h512v512h-512v-512zM2048 512h512v1536h-512v-1536zM512 2048h1536v512h-1536v-512zM0 2560h512v512h-512v-512zM512 3072h2048v512h-2048v-512z" />
    <glyph glyph-name="uni406" unicode="&#x406;" horiz-adv-x="2048" 
d="M0 0h1536v512h-512v2560h512v512h-1536v-512h512v-2560h-512v-512z" />
    <glyph glyph-name="uni407" unicode="&#x407;" horiz-adv-x="2048" 
d="M0 0h1536v512h-512v2560h512v512h-1536v-512h512v-2560h-512v-512zM0 4096h512v512h-512v-512zM1024 4096h512v512h-512v-512z" />
    <glyph glyph-name="uni408" unicode="&#x408;" 
d="M512 0h1536v512h-1536v-512zM0 512h512v512h-512v-512zM2048 512h512v3072h-512v-3072z" />
    <glyph glyph-name="uni409" unicode="&#x409;" horiz-adv-x="3584" 
d="M0 0h512v512h-512v-512zM2560 512h512v1536h-512v-1536zM1536 0h1024v512h-512v1536h512v512h-512v1024h-1536v-3072h512v2560h512v-3072z" />
    <glyph glyph-name="uni40A" unicode="&#x40a;" 
d="M2048 512h512v1536h-512v-1536zM0 0h512v2048h512v-2048h1024v512h-512v1536h512v512h-512v1024h-512v-1024h-512v1024h-512v-3584z" />
    <glyph glyph-name="uni40B" unicode="&#x40b;" 
d="M2048 0h512v2048h-512v-2048zM512 0h512v2048h1024v512h-1024v512h1024v512h-2048v-512h512v-3072z" />
    <glyph glyph-name="uni40C" unicode="&#x40c;" 
d="M2048 0h512v1536h-512v-1536zM1536 1536h512v512h-512v-512zM1536 2560h512v512h-512v-512zM0 0h512v2048h1024v512h-1024v1024h-512v-3584zM2048 3072h512v512h-512v-512zM1024 4096h512v512h-512v-512zM1536 4608h512v512h-512v-512z" />
    <glyph glyph-name="uni40D" unicode="&#x40d;" 
d="M1024 1024h512v512h-512v-512zM0 0h512v512h512v512h-512v2560h-512v-3584zM2048 0h512v3584h-512v-1536h-512v-512h512v-1536zM1024 4096h512v512h-512v-512zM512 4608h512v512h-512v-512z" />
    <glyph glyph-name="uni40E" unicode="&#x40e;" 
d="M0 0h2048v512h-2048v-512zM0 1536h512v2048h-512v-2048zM2048 512h512v3072h-512v-2048h-1536v-512h1536v-512zM512 4096h1536v512h-1536v-512zM0 4608h512v512h-512v-512zM2048 4608h512v512h-512v-512z" />
    <glyph glyph-name="uni40F" unicode="&#x40f;" 
d="M1024 -512h512v512h1024v3584h-512v-3072h-1536v3072h-512v-3584h1024v-512z" />
    <glyph glyph-name="uni410" unicode="&#x410;" 
d="M0 0h512v2048h1536v-2048h512v3072h-512v-512h-1536v512h-512v-3072zM512 3072h1536v512h-1536v-512z" />
    <glyph glyph-name="uni411" unicode="&#x411;" 
d="M2048 512h512v1536h-512v-1536zM0 0h2048v512h-1536v1536h1536v512h-1536v512h2048v512h-2560v-3584z" />
    <glyph glyph-name="uni412" unicode="&#x412;" 
d="M2048 512h512v1536h-512v-1536zM2048 2560h512v512h-512v-512zM0 0h2048v512h-1536v1536h1536v512h-1536v512h1536v512h-2048v-3584z" />
    <glyph glyph-name="uni413" unicode="&#x413;" 
d="M0 0h512v3072h2048v512h-2560v-3584z" />
    <glyph glyph-name="uni414" unicode="&#x414;" 
d="M0 -512h512v512h1536v-512h512v1024h-512v3072h-1536v-2560h512v2048h512v-2560h-1024v512h-512v-1536z" />
    <glyph glyph-name="uni415" unicode="&#x415;" 
d="M0 0h2560v512h-2048v1536h1024v512h-1024v512h2048v512h-2560v-3584z" />
    <glyph glyph-name="uni416" unicode="&#x416;" 
d="M0 0h512v1536h-512v-1536zM2048 0h512v1536h-512v-1536zM0 2048h512v1536h-512v-1536zM1024 0h512v1536h512v512h-512v1536h-512v-1536h-512v-512h512v-1536zM2048 2048h512v1536h-512v-1536z" />
    <glyph glyph-name="uni417" unicode="&#x417;" 
d="M512 0h1536v512h-1536v-512zM0 512h512v512h-512v-512zM2048 512h512v1536h-512v-1536zM1024 2048h1024v512h-1024v-512zM0 2560h512v512h-512v-512zM2048 2560h512v512h-512v-512zM512 3072h1536v512h-1536v-512z" />
    <glyph glyph-name="uni418" unicode="&#x418;" 
d="M1024 1024h512v512h-512v-512zM0 0h512v512h512v512h-512v2560h-512v-3584zM2048 0h512v3584h-512v-1536h-512v-512h512v-1536z" />
    <glyph glyph-name="uni419" unicode="&#x419;" 
d="M1024 1024h512v512h-512v-512zM0 0h512v512h512v512h-512v2560h-512v-3584zM2048 0h512v3584h-512v-1536h-512v-512h512v-1536zM512 4096h1536v512h-1536v-512zM0 4608h512v512h-512v-512zM2048 4608h512v512h-512v-512z" />
    <glyph glyph-name="uni41A" unicode="&#x41a;" 
d="M2048 0h512v1536h-512v-1536zM1536 1536h512v512h-512v-512zM1536 2560h512v512h-512v-512zM0 0h512v2048h1024v512h-1024v1024h-512v-3584zM2048 3072h512v512h-512v-512z" />
    <glyph glyph-name="uni41B" unicode="&#x41b;" 
d="M0 0h512v512h-512v-512zM2048 0h512v3584h-2048v-3072h512v2560h1024v-3072z" />
    <glyph glyph-name="uni41C" unicode="&#x41c;" 
d="M1024 2048h512v512h-512v-512zM0 0h512v2560h512v512h-512v512h-512v-3584zM2048 0h512v3584h-512v-512h-512v-512h512v-2560z" />
    <glyph glyph-name="uni41D" unicode="&#x41d;" 
d="M0 0h512v2048h1536v-2048h512v3584h-512v-1024h-1536v1024h-512v-3584z" />
    <glyph glyph-name="uni41E" unicode="&#x41e;" 
d="M512 0h1536v512h-1536v-512zM0 512h512v2560h-512v-2560zM2048 512h512v2560h-512v-2560zM512 3072h1536v512h-1536v-512z" />
    <glyph glyph-name="uni41F" unicode="&#x41f;" 
d="M0 0h512v3072h1536v-3072h512v3584h-2560v-3584z" />
    <glyph glyph-name="uni420" unicode="&#x420;" 
d="M2048 2560h512v512h-512v-512zM0 0h512v2048h1536v512h-1536v512h1536v512h-2048v-3584z" />
    <glyph glyph-name="uni421" unicode="&#x421;" 
d="M512 0h1536v512h-1536v-512zM2048 512h512v512h-512v-512zM0 512h512v2560h-512v-2560zM2048 2560h512v512h-512v-512zM512 3072h1536v512h-1536v-512z" />
    <glyph glyph-name="uni422" unicode="&#x422;" 
d="M1024 0h512v3072h1024v512h-2560v-512h1024v-3072z" />
    <glyph glyph-name="uni423" unicode="&#x423;" 
d="M0 0h2048v512h-2048v-512zM0 1536h512v2048h-512v-2048zM2048 512h512v3072h-512v-2048h-1536v-512h1536v-512z" />
    <glyph glyph-name="uni424" unicode="&#x424;" 
d="M0 1024h512v1536h-512v-1536zM2048 1024h512v1536h-512v-1536zM1024 0h512v512h512v512h-512v1536h512v512h-512v512h-512v-512h-512v-512h512v-1536h-512v-512h512v-512z" />
    <glyph glyph-name="uni425" unicode="&#x425;" 
d="M0 0h512v1536h-512v-1536zM2048 0h512v1536h-512v-1536zM512 1536h512v512h-512v-512zM1536 1536h512v512h-512v-512zM1024 2048h512v512h-512v-512zM512 2560h512v512h-512v-512zM1536 2560h512v512h-512v-512zM0 3072h512v512h-512v-512zM2048 3072h512v512h-512v-512z
" />
    <glyph glyph-name="uni426" unicode="&#x426;" 
d="M2048 -512h512v1024h-512v3072h-512v-3072h-1024v3072h-512v-3584h2048v-512z" />
    <glyph glyph-name="uni427" unicode="&#x427;" 
d="M0 2048h512v1536h-512v-1536zM2048 0h512v3584h-512v-1536h-1536v-512h1536v-1536z" />
    <glyph glyph-name="uni428" unicode="&#x428;" 
d="M0 0h2560v3584h-512v-3072h-512v3072h-512v-3072h-512v3072h-512v-3584z" />
    <glyph glyph-name="uni429" unicode="&#x429;" horiz-adv-x="3584" 
d="M2560 -512h512v1024h-512v3072h-512v-3072h-512v3072h-512v-3072h-512v3072h-512v-3584h2560v-512z" />
    <glyph glyph-name="uni42A" unicode="&#x42a;" 
d="M2048 512h512v1536h-512v-1536zM512 0h1536v512h-1024v1536h1024v512h-1024v1024h-1024v-512h512v-3072z" />
    <glyph glyph-name="uni42B" unicode="&#x42b;" 
d="M1024 512h512v1536h-512v-1536zM0 0h1024v512h-512v1536h512v512h-512v1024h-512v-3584zM2048 0h512v3584h-512v-3584z" />
    <glyph glyph-name="uni42C" unicode="&#x42c;" 
d="M2048 512h512v1536h-512v-1536zM0 0h2048v512h-1536v1536h1536v512h-1536v1024h-512v-3584z" />
    <glyph glyph-name="uni42D" unicode="&#x42d;" 
d="M512 0h1536v512h-1536v-512zM0 512h512v512h-512v-512zM0 2560h512v512h-512v-512zM2048 512h512v2560h-512v-1024h-1024v-512h1024v-1024zM512 3072h1536v512h-1536v-512z" />
    <glyph glyph-name="uni42E" unicode="&#x42e;" 
d="M1536 0h512v512h-512v-512zM2048 512h512v2560h-512v-2560zM0 0h512v1536h512v-1024h512v2560h-512v-1024h-512v1536h-512v-3584zM1536 3072h512v512h-512v-512z" />
    <glyph glyph-name="uni42F" unicode="&#x42f;" 
d="M0 0h512v2048h-512v-2048zM0 2560h512v512h-512v-512zM2048 0h512v3584h-2048v-512h1536v-512h-1536v-512h1536v-2048z" />
    <glyph glyph-name="uni430" unicode="&#x430;" 
d="M0 512h512v512h-512v-512zM512 0h2048v2048h-512v-512h-1536v-512h1536v-512h-1536v-512zM512 2048h1536v512h-1536v-512z" />
    <glyph glyph-name="uni431" unicode="&#x431;" 
d="M512 0h1536v512h-1536v-512zM2048 512h512v1536h-512v-1536zM1024 2048h1024v512h-1024v-512zM0 512h512v1024h512v512h-512v1024h-512v-2560zM512 3072h2048v512h-2048v-512z" />
    <glyph glyph-name="uni432" unicode="&#x432;" 
d="M2048 512h512v512h-512v-512zM2048 1536h512v512h-512v-512zM0 0h2048v512h-1536v512h1536v512h-1536v512h1536v512h-2048v-2560z" />
    <glyph glyph-name="uni433" unicode="&#x433;" 
d="M0 0h512v2048h2048v512h-2560v-2560z" />
    <glyph glyph-name="uni434" unicode="&#x434;" 
d="M0 -512h512v512h1536v-512h512v1024h-512v2048h-1536v-1536h512v1024h512v-1536h-1024v512h-512v-1536z" />
    <glyph glyph-name="uni435" unicode="&#x435;" 
d="M512 0h2048v512h-2048v-512zM0 512h512v512h2048v1024h-512v-512h-1536v512h-512v-1536zM512 2048h1536v512h-1536v-512z" />
    <glyph glyph-name="uni436" unicode="&#x436;" 
d="M0 0h512v1024h-512v-1024zM2048 0h512v1024h-512v-1024zM0 1536h512v1024h-512v-1024zM1024 0h512v1024h512v512h-512v1024h-512v-1024h-512v-512h512v-1024zM2048 1536h512v1024h-512v-1024z" />
    <glyph glyph-name="uni437" unicode="&#x437;" 
d="M0 0h2048v512h-2048v-512zM2048 512h512v512h-512v-512zM1024 1024h1024v512h-1024v-512zM2048 1536h512v512h-512v-512zM0 2048h2048v512h-2048v-512z" />
    <glyph glyph-name="uni438" unicode="&#x438;" 
d="M1024 1024h512v512h-512v-512zM0 0h512v512h512v512h-512v1536h-512v-2560zM2048 0h512v2560h-512v-512h-512v-512h512v-1536z" />
    <glyph glyph-name="uni439" unicode="&#x439;" 
d="M1024 1024h512v512h-512v-512zM0 0h512v512h512v512h-512v1536h-512v-2560zM2048 0h512v2560h-512v-512h-512v-512h512v-1536zM512 3072h1536v512h-1536v-512zM0 3584h512v512h-512v-512zM2048 3584h512v512h-512v-512z" />
    <glyph glyph-name="uni43A" unicode="&#x43a;" horiz-adv-x="2560" 
d="M1536 0h512v512h-512v-512zM1024 512h512v512h-512v-512zM1024 1536h512v512h-512v-512zM0 0h512v1024h512v512h-512v1024h-512v-2560zM1536 2048h512v512h-512v-512z" />
    <glyph glyph-name="uni43B" unicode="&#x43b;" 
d="M0 0h512v512h-512v-512zM2048 0h512v2560h-2048v-2048h512v1536h1024v-2048z" />
    <glyph glyph-name="uni43C" unicode="&#x43c;" 
d="M1024 1024h512v512h-512v-512zM0 0h512v1536h512v512h-512v512h-512v-2560zM2048 0h512v2560h-512v-512h-512v-512h512v-1536z" />
    <glyph glyph-name="uni43D" unicode="&#x43d;" 
d="M0 0h512v1024h1536v-1024h512v2560h-512v-1024h-1536v1024h-512v-2560z" />
    <glyph glyph-name="uni43E" unicode="&#x43e;" 
d="M512 0h1536v512h-1536v-512zM0 512h512v1536h-512v-1536zM2048 512h512v1536h-512v-1536zM512 2048h1536v512h-1536v-512z" />
    <glyph glyph-name="uni43F" unicode="&#x43f;" 
d="M0 0h512v2048h1536v-2048h512v2560h-2560v-2560z" />
    <glyph glyph-name="uni440" unicode="&#x440;" 
d="M2048 1024h512v1024h-512v-1024zM0 -512h512v1024h1536v512h-1536v512h512v512h-512v512h-512v-3072zM1024 2048h1024v512h-1024v-512z" />
    <glyph glyph-name="uni441" unicode="&#x441;" 
d="M512 0h1536v512h-1536v-512zM2048 512h512v512h-512v-512zM0 512h512v1536h-512v-1536zM2048 1536h512v512h-512v-512zM512 2048h1536v512h-1536v-512z" />
    <glyph glyph-name="uni442" unicode="&#x442;" 
d="M1024 0h512v2048h1024v512h-2560v-512h1024v-2048z" />
    <glyph glyph-name="uni443" unicode="&#x443;" 
d="M0 -512h2048v512h-2048v-512zM0 1024h512v1536h-512v-1536zM2048 0h512v2560h-512v-1536h-1536v-512h1536v-512z" />
    <glyph glyph-name="uni444" unicode="&#x444;" 
d="M0 1024h512v1024h-512v-1024zM2048 1024h512v1024h-512v-1024zM1024 -512h512v1024h512v512h-512v1024h512v512h-512v1024h-512v-1024h-512v-512h512v-1024h-512v-512h512v-1024z" />
    <glyph glyph-name="uni445" unicode="&#x445;" 
d="M0 0h512v512h-512v-512zM2048 0h512v512h-512v-512zM512 512h512v512h-512v-512zM1536 512h512v512h-512v-512zM1024 1024h512v512h-512v-512zM512 1536h512v512h-512v-512zM1536 1536h512v512h-512v-512zM0 2048h512v512h-512v-512zM2048 2048h512v512h-512v-512z" />
    <glyph glyph-name="uni446" unicode="&#x446;" 
d="M2048 -512h512v1024h-512v2048h-512v-2048h-1024v2048h-512v-2560h2048v-512z" />
    <glyph glyph-name="uni447" unicode="&#x447;" 
d="M0 1536h512v1024h-512v-1024zM2048 0h512v2560h-512v-1024h-1536v-512h1536v-1024z" />
    <glyph glyph-name="uni448" unicode="&#x448;" 
d="M0 0h2560v2560h-512v-2048h-512v2048h-512v-2048h-512v2048h-512v-2560z" />
    <glyph glyph-name="uni449" unicode="&#x449;" horiz-adv-x="3584" 
d="M2560 -512h512v1024h-512v2048h-512v-2048h-512v2048h-512v-2048h-512v2048h-512v-2560h2560v-512z" />
    <glyph glyph-name="uni44A" unicode="&#x44a;" 
d="M2048 512h512v512h-512v-512zM512 0h1536v512h-1024v512h1024v512h-1024v1024h-1024v-512h512v-2048z" />
    <glyph glyph-name="uni44B" unicode="&#x44b;" 
d="M1024 512h512v512h-512v-512zM0 0h1024v512h-512v512h512v512h-512v1024h-512v-2560zM2048 0h512v2560h-512v-2560z" />
    <glyph glyph-name="uni44C" unicode="&#x44c;" 
d="M2048 512h512v512h-512v-512zM0 0h2048v512h-1536v512h1536v512h-1536v1024h-512v-2560z" />
    <glyph glyph-name="uni44D" unicode="&#x44d;" 
d="M0 0h2048v512h-2048v-512zM2048 512h512v1536h-512v-512h-1024v-512h1024v-512zM0 2048h2048v512h-2048v-512z" />
    <glyph glyph-name="uni44E" unicode="&#x44e;" 
d="M1536 0h512v512h-512v-512zM2048 512h512v1536h-512v-1536zM0 0h512v1024h512v-512h512v1536h-512v-512h-512v1024h-512v-2560zM1536 2048h512v512h-512v-512z" />
    <glyph glyph-name="uni44F" unicode="&#x44f;" 
d="M0 0h512v1024h-512v-1024zM0 1536h512v512h-512v-512zM2048 0h512v2560h-2048v-512h1536v-512h-1536v-512h1536v-1024z" />
    <glyph glyph-name="uni450" unicode="&#x450;" 
d="M512 0h2048v512h-2048v-512zM0 512h512v512h2048v1024h-512v-512h-1536v512h-512v-1536zM512 2048h1536v512h-1536v-512zM1024 3072h512v512h-512v-512zM512 3584h512v512h-512v-512z" />
    <glyph glyph-name="uni451" unicode="&#x451;" 
d="M512 0h2048v512h-2048v-512zM0 512h512v512h2048v1024h-512v-512h-1536v512h-512v-1536zM512 2048h1536v512h-1536v-512zM512 3072h512v512h-512v-512zM1536 3072h512v512h-512v-512z" />
    <glyph glyph-name="uni452" unicode="&#x452;" 
d="M1536 -512h512v512h-512v-512zM2048 0h512v2048h-512v-2048zM1536 2048h512v512h-512v-512zM512 0h512v1536h512v512h-512v512h512v512h-512v512h-512v-512h-512v-512h512v-2560z" />
    <glyph glyph-name="uni453" unicode="&#x453;" 
d="M0 0h512v2048h2048v512h-2560v-2560zM1024 3072h512v512h-512v-512zM1536 3584h512v512h-512v-512z" />
    <glyph glyph-name="uni454" unicode="&#x454;" 
d="M512 0h2048v512h-2048v-512zM0 512h512v512h1024v512h-1024v512h-512v-1536zM512 2048h2048v512h-2048v-512z" />
    <glyph glyph-name="uni455" unicode="&#x455;" 
d="M0 0h2048v512h-2048v-512zM2048 512h512v512h-512v-512zM512 1024h1536v512h-1536v-512zM0 1536h512v512h-512v-512zM512 2048h2048v512h-2048v-512z" />
    <glyph glyph-name="uni456" unicode="&#x456;" horiz-adv-x="1024" 
d="M0 0h512v2560h-512v-2560zM0 3072h512v512h-512v-512z" />
    <glyph glyph-name="uni457" unicode="&#x457;" horiz-adv-x="2048" 
d="M512 0h512v2560h-512v-2560zM0 3072h512v512h-512v-512zM1024 3072h512v512h-512v-512z" />
    <glyph glyph-name="uni458" unicode="&#x458;" 
d="M512 -512h1536v512h-1536v-512zM0 0h512v1024h-512v-1024zM2048 0h512v2560h-512v-2560zM2048 3072h512v512h-512v-512z" />
    <glyph glyph-name="uni459" unicode="&#x459;" horiz-adv-x="3584" 
d="M0 0h512v512h-512v-512zM2560 512h512v512h-512v-512zM1536 0h1024v512h-512v512h512v512h-512v1024h-1536v-2048h512v1536h512v-2048z" />
    <glyph glyph-name="uni45A" unicode="&#x45a;" 
d="M2048 512h512v512h-512v-512zM0 0h512v1024h512v-1024h1024v512h-512v512h512v512h-512v1024h-512v-1024h-512v1024h-512v-2560z" />
    <glyph glyph-name="uni45B" unicode="&#x45b;" 
d="M2048 0h512v2048h-512v-2048zM1536 2048h512v512h-512v-512zM512 0h512v1536h512v512h-512v512h512v512h-512v512h-512v-512h-512v-512h512v-2560z" />
    <glyph glyph-name="uni45C" unicode="&#x45c;" horiz-adv-x="2560" 
d="M1536 0h512v512h-512v-512zM1024 512h512v512h-512v-512zM1024 1536h512v512h-512v-512zM0 0h512v1024h512v512h-512v1024h-512v-2560zM1536 2048h512v512h-512v-512zM512 3072h512v512h-512v-512zM1024 3584h512v512h-512v-512z" />
    <glyph glyph-name="uni45D" unicode="&#x45d;" 
d="M1024 1024h512v512h-512v-512zM0 0h512v512h512v512h-512v1536h-512v-2560zM2048 0h512v2560h-512v-512h-512v-512h512v-1536zM1024 3072h512v512h-512v-512zM512 3584h512v512h-512v-512z" />
    <glyph glyph-name="uni45E" unicode="&#x45e;" 
d="M0 -512h2048v512h-2048v-512zM0 1024h512v1536h-512v-1536zM2048 0h512v2560h-512v-1536h-1536v-512h1536v-512zM512 3072h1536v512h-1536v-512zM0 3584h512v512h-512v-512zM2048 3584h512v512h-512v-512z" />
    <glyph glyph-name="uni45F" unicode="&#x45f;" 
d="M1024 -512h512v512h1024v2560h-512v-2048h-1536v2048h-512v-2560h1024v-512z" />
    <glyph glyph-name="uni490" unicode="&#x490;" 
d="M0 0h512v3072h2048v1024h-512v-512h-2048v-3584z" />
    <glyph glyph-name="uni491" unicode="&#x491;" 
d="M0 0h512v2048h2048v1024h-512v-512h-2048v-2560z" />
    <glyph glyph-name="uni492" unicode="&#x492;" 
d="M512 0h512v2048h512v512h-512v512h1536v512h-2048v-1024h-512v-512h512v-2048z" />
    <glyph glyph-name="uni493" unicode="&#x493;" 
d="M512 0h512v1024h512v512h-512v512h1536v512h-2048v-1024h-512v-512h512v-1024z" />
    <glyph glyph-name="uni494" unicode="&#x494;" 
d="M1536 -512h512v512h-512v-512zM2048 0h512v2048h-512v-2048zM0 0h512v2048h1536v512h-1536v512h2048v512h-2560v-3584z" />
    <glyph glyph-name="uni495" unicode="&#x495;" 
d="M1536 -512h512v512h-512v-512zM2048 0h512v1024h-512v-1024zM0 0h512v1024h1536v512h-1536v512h2048v512h-2560v-2560z" />
    <glyph glyph-name="uni496" unicode="&#x496;" horiz-adv-x="3584" 
d="M0 0h512v1536h-512v-1536zM2560 -512h512v1024h-512v1024h-512v-1536h512v-512zM0 2048h512v1536h-512v-1536zM1024 0h512v1536h512v512h-512v1536h-512v-1536h-512v-512h512v-1536zM2048 2048h512v1536h-512v-1536z" />
    <glyph glyph-name="uni497" unicode="&#x497;" horiz-adv-x="3584" 
d="M0 0h512v1024h-512v-1024zM2560 -512h512v1024h-512v512h-512v-1024h512v-512zM0 1536h512v1024h-512v-1024zM1024 0h512v1024h512v512h-512v1024h-512v-1024h-512v-512h512v-1024zM2048 1536h512v1024h-512v-1024z" />
    <glyph glyph-name="uni498" unicode="&#x498;" 
d="M1024 -512h512v512h512v512h-1536v-512h512v-512zM0 512h512v512h-512v-512zM2048 512h512v1536h-512v-1536zM1024 2048h1024v512h-1024v-512zM0 2560h512v512h-512v-512zM2048 2560h512v512h-512v-512zM512 3072h1536v512h-1536v-512z" />
    <glyph glyph-name="uni499" unicode="&#x499;" 
d="M1024 -512h512v512h512v512h-2048v-512h1024v-512zM2048 512h512v512h-512v-512zM1024 1024h1024v512h-1024v-512zM2048 1536h512v512h-512v-512zM0 2048h2048v512h-2048v-512z" />
    <glyph glyph-name="uni49A" unicode="&#x49a;" 
d="M2048 -512h512v1024h-512v1024h-512v-1536h512v-512zM1024 1536h512v512h-512v-512zM1024 2560h512v512h-512v-512zM0 0h512v2048h512v512h-512v1024h-512v-3584zM1536 3072h512v512h-512v-512z" />
    <glyph glyph-name="uni49B" unicode="&#x49b;" 
d="M2048 -512h512v1024h-1024v-512h512v-512zM1024 512h512v512h-512v-512zM1024 1536h512v512h-512v-512zM0 0h512v1024h512v512h-512v1024h-512v-2560zM1536 2048h512v512h-512v-512z" />
    <glyph glyph-name="uni4A0" unicode="&#x4a0;" 
d="M2048 0h512v1536h-512v-1536zM1536 1536h512v512h-512v-512zM1536 2560h512v512h-512v-512zM512 0h512v2048h512v512h-512v1024h-1024v-512h512v-3072zM2048 3072h512v512h-512v-512z" />
    <glyph glyph-name="uni4A1" unicode="&#x4a1;" 
d="M2048 0h512v512h-512v-512zM1536 512h512v512h-512v-512zM1536 1536h512v512h-512v-512zM512 0h512v1024h512v512h-512v1024h-1024v-512h512v-2048zM2048 2048h512v512h-512v-512z" />
    <glyph glyph-name="uni4A2" unicode="&#x4a2;" 
d="M2048 -512h512v1024h-512v3072h-512v-1024h-1024v1024h-512v-3584h512v2048h1024v-2048h512v-512z" />
    <glyph glyph-name="uni4A3" unicode="&#x4a3;" 
d="M2048 -512h512v1024h-512v2048h-512v-1024h-1024v1024h-512v-2560h512v1024h1024v-1024h512v-512z" />
    <glyph glyph-name="uni4A4" unicode="&#x4a4;" 
d="M0 0h512v2048h512v-2048h512v3072h1024v512h-1536v-1024h-512v1024h-512v-3584z" />
    <glyph glyph-name="uni4A5" unicode="&#x4a5;" 
d="M0 0h512v1024h512v-1024h512v2048h1024v512h-1536v-1024h-512v1024h-512v-2560z" />
    <glyph glyph-name="uni4AA" unicode="&#x4aa;" 
d="M1024 -512h512v512h512v512h-1536v-512h512v-512zM2048 512h512v512h-512v-512zM0 512h512v2560h-512v-2560zM2048 2560h512v512h-512v-512zM512 3072h1536v512h-1536v-512z" />
    <glyph glyph-name="uni4AB" unicode="&#x4ab;" 
d="M1024 -512h512v512h512v512h-1536v-512h512v-512zM2048 512h512v512h-512v-512zM0 512h512v1536h-512v-1536zM2048 1536h512v512h-512v-512zM512 2048h1536v512h-1536v-512z" />
    <glyph glyph-name="uni4AE" unicode="&#x4ae;" 
d="M1024 0h512v2560h-512v-2560zM512 2560h512v512h-512v-512zM1536 2560h512v512h-512v-512zM0 3072h512v512h-512v-512zM2048 3072h512v512h-512v-512z" />
    <glyph glyph-name="uni4AF" unicode="&#x4af;" 
d="M1024 -512h512v2048h-512v-2048zM512 1536h512v512h-512v-512zM1536 1536h512v512h-512v-512zM0 2048h512v512h-512v-512zM2048 2048h512v512h-512v-512z" />
    <glyph glyph-name="uni4B0" unicode="&#x4b0;" 
d="M1024 0h512v1536h512v512h-512v512h-512v-512h-512v-512h512v-1536zM512 2560h512v512h-512v-512zM1536 2560h512v512h-512v-512zM0 3072h512v512h-512v-512zM2048 3072h512v512h-512v-512z" />
    <glyph glyph-name="uni4B1" unicode="&#x4b1;" 
d="M1024 -512h512v1024h512v512h-512v512h-512v-512h-512v-512h512v-1024zM512 1536h512v512h-512v-512zM1536 1536h512v512h-512v-512zM0 2048h512v512h-512v-512zM2048 2048h512v512h-512v-512z" />
    <glyph glyph-name="uni4B2" unicode="&#x4b2;" horiz-adv-x="3584" 
d="M0 0h512v1536h-512v-1536zM2560 -512h512v1024h-512v1024h-512v-1536h512v-512zM512 1536h512v512h-512v-512zM1536 1536h512v512h-512v-512zM1024 2048h512v512h-512v-512zM512 2560h512v512h-512v-512zM1536 2560h512v512h-512v-512zM0 3072h512v512h-512v-512z
M2048 3072h512v512h-512v-512z" />
    <glyph glyph-name="uni4B3" unicode="&#x4b3;" horiz-adv-x="3584" 
d="M0 0h512v512h-512v-512zM2560 -512h512v1024h-1024v-512h512v-512zM512 512h512v512h-512v-512zM1536 512h512v512h-512v-512zM1024 1024h512v512h-512v-512zM512 1536h512v512h-512v-512zM1536 1536h512v512h-512v-512zM0 2048h512v512h-512v-512zM2048 2048h512v512
h-512v-512z" />
    <glyph glyph-name="uni4B6" unicode="&#x4b6;" 
d="M0 2048h512v1536h-512v-1536zM2048 -512h512v1024h-512v3072h-512v-1536h-1024v-512h1024v-1536h512v-512z" />
    <glyph glyph-name="uni4B7" unicode="&#x4b7;" 
d="M0 1536h512v1024h-512v-1024zM2048 -512h512v1024h-512v2048h-512v-1024h-1024v-512h1024v-1024h512v-512z" />
    <glyph glyph-name="uni4BA" unicode="&#x4ba;" 
d="M2048 0h512v1536h-512v-1536zM0 0h512v1536h1536v512h-1536v1536h-512v-3584z" />
    <glyph glyph-name="uni4BB" unicode="&#x4bb;" 
d="M2048 0h512v1024h-512v-1024zM0 0h512v1024h1536v512h-1536v1024h-512v-2560z" />
    <glyph glyph-name="uni4C0" unicode="&#x4c0;" horiz-adv-x="1024" 
d="M0 0h512v3584h-512v-3584z" />
    <glyph glyph-name="uni4C7" unicode="&#x4c7;" 
d="M1536 -512h512v512h-512v-512zM0 0h512v2048h1536v-2048h512v3584h-512v-1024h-1536v1024h-512v-3584z" />
    <glyph glyph-name="uni4C8" unicode="&#x4c8;" 
d="M1536 -512h512v512h-512v-512zM0 0h512v1024h1536v-1024h512v2560h-512v-1024h-1536v1024h-512v-2560z" />
    <glyph glyph-name="uni4CF" unicode="&#x4cf;" horiz-adv-x="1024" 
d="M0 0h512v2560h-512v-2560z" />
    <glyph glyph-name="uni4D0" unicode="&#x4d0;" 
d="M0 0h512v2048h1536v-2048h512v3072h-512v-512h-1536v512h-512v-3072zM512 3072h1536v512h-1536v-512zM512 4096h1536v512h-1536v-512zM0 4608h512v512h-512v-512zM2048 4608h512v512h-512v-512z" />
    <glyph glyph-name="uni4D1" unicode="&#x4d1;" 
d="M0 512h512v512h-512v-512zM512 0h2048v2048h-512v-512h-1536v-512h1536v-512h-1536v-512zM512 2048h1536v512h-1536v-512zM512 3072h1536v512h-1536v-512zM0 3584h512v512h-512v-512zM2048 3584h512v512h-512v-512z" />
    <glyph glyph-name="uni4D2" unicode="&#x4d2;" 
d="M0 0h512v2048h1536v-2048h512v3072h-512v-512h-1536v512h-512v-3072zM512 3072h1536v512h-1536v-512zM512 4096h512v512h-512v-512zM1536 4096h512v512h-512v-512z" />
    <glyph glyph-name="uni4D3" unicode="&#x4d3;" 
d="M0 512h512v512h-512v-512zM512 0h2048v2048h-512v-512h-1536v-512h1536v-512h-1536v-512zM512 2048h1536v512h-1536v-512zM512 3072h512v512h-512v-512zM1536 3072h512v512h-512v-512z" />
    <glyph glyph-name="uni4D4" unicode="&#x4d4;" 
d="M0 0h512v2048h512v-2048h1536v512h-1024v1536h512v512h-512v512h1024v512h-2048v-512h512v-512h-512v512h-512v-3072z" />
    <glyph glyph-name="uni4D5" unicode="&#x4d5;" 
d="M0 512h512v512h-512v-512zM512 0h2048v512h-1024v512h1024v1024h-512v-512h-512v512h-512v-512h-512v-512h512v-512h-512v-512zM512 2048h512v512h-512v-512zM1536 2048h512v512h-512v-512z" />
    <glyph glyph-name="uni4D6" unicode="&#x4d6;" 
d="M0 0h2560v512h-2048v1536h1024v512h-1024v512h2048v512h-2560v-3584zM512 4096h1536v512h-1536v-512zM0 4608h512v512h-512v-512zM2048 4608h512v512h-512v-512z" />
    <glyph glyph-name="uni4D7" unicode="&#x4d7;" 
d="M512 0h2048v512h-2048v-512zM0 512h512v512h2048v1024h-512v-512h-1536v512h-512v-1536zM512 2048h1536v512h-1536v-512zM512 3072h1536v512h-1536v-512zM0 3584h512v512h-512v-512zM2048 3584h512v512h-512v-512z" />
    <glyph glyph-name="uni4D8" unicode="&#x4d8;" 
d="M512 0h1536v512h-1536v-512zM0 512h512v1536h1536v-1536h512v2560h-512v-512h-2048v-2048zM0 3072h2048v512h-2048v-512z" />
    <glyph glyph-name="uni4D9" unicode="&#x4d9;" 
d="M512 0h1536v512h-1536v-512zM0 512h512v512h1536v-512h512v1536h-512v-512h-2048v-1024zM0 2048h2048v512h-2048v-512z" />
    <glyph glyph-name="uni4DA" unicode="&#x4da;" 
d="M512 0h1536v512h-1536v-512zM0 512h512v1536h1536v-1536h512v2560h-512v-512h-2048v-2048zM0 3072h2048v512h-2048v-512zM512 4096h512v512h-512v-512zM1536 4096h512v512h-512v-512z" />
    <glyph glyph-name="uni4DB" unicode="&#x4db;" 
d="M512 0h1536v512h-1536v-512zM0 512h512v512h1536v-512h512v1536h-512v-512h-2048v-1024zM0 2048h2048v512h-2048v-512zM512 3072h512v512h-512v-512zM1536 3072h512v512h-512v-512z" />
    <glyph glyph-name="uni4E2" unicode="&#x4e2;" 
d="M1024 1024h512v512h-512v-512zM0 0h512v512h512v512h-512v2560h-512v-3584zM2048 0h512v3584h-512v-1536h-512v-512h512v-1536zM512 4096h1536v512h-1536v-512z" />
    <glyph glyph-name="uni4E3" unicode="&#x4e3;" 
d="M1024 1024h512v512h-512v-512zM0 0h512v512h512v512h-512v1536h-512v-2560zM2048 0h512v2560h-512v-512h-512v-512h512v-1536zM512 3072h1536v512h-1536v-512z" />
    <glyph glyph-name="uni4E4" unicode="&#x4e4;" 
d="M1024 1024h512v512h-512v-512zM0 0h512v512h512v512h-512v2560h-512v-3584zM2048 0h512v3584h-512v-1536h-512v-512h512v-1536zM512 4096h512v512h-512v-512zM1536 4096h512v512h-512v-512z" />
    <glyph glyph-name="uni4E5" unicode="&#x4e5;" 
d="M1024 1024h512v512h-512v-512zM0 0h512v512h512v512h-512v1536h-512v-2560zM2048 0h512v2560h-512v-512h-512v-512h512v-1536zM512 3072h512v512h-512v-512zM1536 3072h512v512h-512v-512z" />
    <glyph glyph-name="uni4E6" unicode="&#x4e6;" 
d="M512 0h1536v512h-1536v-512zM0 512h512v2560h-512v-2560zM2048 512h512v2560h-512v-2560zM512 3072h1536v512h-1536v-512zM512 4096h512v512h-512v-512zM1536 4096h512v512h-512v-512z" />
    <glyph glyph-name="uni4E7" unicode="&#x4e7;" 
d="M512 0h1536v512h-1536v-512zM0 512h512v1536h-512v-1536zM2048 512h512v1536h-512v-1536zM512 2048h1536v512h-1536v-512zM512 3072h512v512h-512v-512zM1536 3072h512v512h-512v-512z" />
    <glyph glyph-name="uni4E8" unicode="&#x4e8;" 
d="M512 0h1536v512h-1536v-512zM0 512h512v1536h1536v-1536h512v2560h-512v-512h-1536v512h-512v-2560zM512 3072h1536v512h-1536v-512z" />
    <glyph glyph-name="uni4E9" unicode="&#x4e9;" 
d="M512 0h1536v512h-1536v-512zM0 512h512v512h1536v-512h512v1536h-512v-512h-1536v512h-512v-1536zM512 2048h1536v512h-1536v-512z" />
    <glyph glyph-name="uni4EA" unicode="&#x4ea;" 
d="M512 0h1536v512h-1536v-512zM0 512h512v1536h1536v-1536h512v2560h-512v-512h-1536v512h-512v-2560zM512 3072h1536v512h-1536v-512zM512 4096h512v512h-512v-512zM1536 4096h512v512h-512v-512z" />
    <glyph glyph-name="uni4EB" unicode="&#x4eb;" 
d="M512 0h1536v512h-1536v-512zM0 512h512v512h1536v-512h512v1536h-512v-512h-1536v512h-512v-1536zM512 2048h1536v512h-1536v-512zM512 3072h512v512h-512v-512zM1536 3072h512v512h-512v-512z" />
    <glyph glyph-name="uni4EC" unicode="&#x4ec;" 
d="M512 0h1536v512h-1536v-512zM0 512h512v512h-512v-512zM0 2560h512v512h-512v-512zM2048 512h512v2560h-512v-1024h-1024v-512h1024v-1024zM512 3072h1536v512h-1536v-512zM512 4096h512v512h-512v-512zM1536 4096h512v512h-512v-512z" />
    <glyph glyph-name="uni4ED" unicode="&#x4ed;" 
d="M0 0h2048v512h-2048v-512zM2048 512h512v1536h-512v-512h-1024v-512h1024v-512zM0 2048h2048v512h-2048v-512zM512 3072h512v512h-512v-512zM1536 3072h512v512h-512v-512z" />
    <glyph glyph-name="uni4EE" unicode="&#x4ee;" 
d="M0 0h2048v512h-2048v-512zM0 1536h512v2048h-512v-2048zM2048 512h512v3072h-512v-2048h-1536v-512h1536v-512zM512 4096h1536v512h-1536v-512z" />
    <glyph glyph-name="uni4EF" unicode="&#x4ef;" 
d="M0 -512h2048v512h-2048v-512zM0 1024h512v1536h-512v-1536zM2048 0h512v2560h-512v-1536h-1536v-512h1536v-512zM512 3072h1536v512h-1536v-512z" />
    <glyph glyph-name="uni4F0" unicode="&#x4f0;" 
d="M0 0h2048v512h-2048v-512zM0 1536h512v2048h-512v-2048zM2048 512h512v3072h-512v-2048h-1536v-512h1536v-512zM512 4096h512v512h-512v-512zM1536 4096h512v512h-512v-512z" />
    <glyph glyph-name="uni4F1" unicode="&#x4f1;" 
d="M0 -512h2048v512h-2048v-512zM0 1024h512v1536h-512v-1536zM2048 0h512v2560h-512v-1536h-1536v-512h1536v-512zM512 3072h512v512h-512v-512zM1536 3072h512v512h-512v-512z" />
    <glyph glyph-name="uni4F2" unicode="&#x4f2;" 
d="M0 0h2048v512h-2048v-512zM0 1536h512v2048h-512v-2048zM2048 512h512v3072h-512v-2048h-1536v-512h1536v-512zM0 4096h512v512h-512v-512zM1536 4096h512v512h-512v-512zM512 4608h512v512h-512v-512zM2048 4608h512v512h-512v-512z" />
    <glyph glyph-name="uni4F3" unicode="&#x4f3;" 
d="M0 -512h2048v512h-2048v-512zM0 1024h512v1536h-512v-1536zM2048 0h512v2560h-512v-1536h-1536v-512h1536v-512zM0 3072h512v512h-512v-512zM1536 3072h512v512h-512v-512zM512 3584h512v512h-512v-512zM2048 3584h512v512h-512v-512z" />
    <glyph glyph-name="uni4F6" unicode="&#x4f6;" 
d="M512 -512h512v1024h-512v2560h2048v512h-2560v-3584h512v-512z" />
    <glyph glyph-name="uni4F7" unicode="&#x4f7;" 
d="M512 -512h512v1024h-512v1536h2048v512h-2560v-2560h512v-512z" />
    <glyph glyph-name="uni4F8" unicode="&#x4f8;" 
d="M1024 512h512v1536h-512v-1536zM0 0h1024v512h-512v1536h512v512h-512v1024h-512v-3584zM2048 0h512v3584h-512v-3584zM512 4096h512v512h-512v-512zM1536 4096h512v512h-512v-512z" />
    <glyph glyph-name="uni4F9" unicode="&#x4f9;" 
d="M1024 512h512v512h-512v-512zM0 0h1024v512h-512v512h512v512h-512v1024h-512v-2560zM2048 0h512v2560h-512v-2560zM512 3072h512v512h-512v-512zM1536 3072h512v512h-512v-512z" />
    <glyph glyph-name="uni4FC" unicode="&#x4fc;" 
d="M1536 -512h512v512h-512v-512zM0 0h512v1536h-512v-1536zM2048 0h512v1536h-512v-1536zM512 1536h512v512h-512v-512zM1536 1536h512v512h-512v-512zM1024 2048h512v512h-512v-512zM512 2560h512v512h-512v-512zM1536 2560h512v512h-512v-512zM0 3072h512v512h-512v-512z
M2048 3072h512v512h-512v-512z" />
    <glyph glyph-name="uni4FD" unicode="&#x4fd;" 
d="M1536 -512h512v512h-512v-512zM0 0h512v512h-512v-512zM2048 0h512v512h-512v-512zM512 512h512v512h-512v-512zM1536 512h512v512h-512v-512zM1024 1024h512v512h-512v-512zM512 1536h512v512h-512v-512zM1536 1536h512v512h-512v-512zM0 2048h512v512h-512v-512z
M2048 2048h512v512h-512v-512z" />
    <glyph glyph-name="uniE01" unicode="&#xe01;" 
d="M0 0h512v1536h-512v-1536zM512 1536h512v512h-512v-512zM0 2048h512v512h-512v-512zM2048 0h512v2560h-512v-2560zM512 2560h1536v512h-1536v-512z" />
    <glyph glyph-name="uniE02" unicode="&#xe02;" horiz-adv-x="2560" 
d="M512 0h1024v512h-1024v-512zM0 512h512v1536h-512v-1536zM512 2048h512v1024h-1024v-512h512v-512zM1536 512h512v2560h-512v-2560z" />
    <glyph glyph-name="uniE03" unicode="&#xe03;" 
d="M1024 0h1024v512h-1024v-512zM512 512h512v1024h-512v-1024zM0 2560h512v512h-512v-512zM1024 1536h512v1536h-512v-512h-512v-512h512v-512zM2048 512h512v2560h-512v-2560z" />
    <glyph glyph-name="uniE04" unicode="&#xe04;" 
d="M0 0h512v1024h1024v512h-1024v1024h-512v-2560zM2048 0h512v2560h-512v-2560zM512 2560h1536v512h-1536v-512z" />
    <glyph glyph-name="uniE05" unicode="&#xe05;" 
d="M0 0h512v1024h1024v512h-1024v1024h-512v-2560zM1024 2048h512v512h-512v-512zM2048 0h512v2560h-512v-2560zM512 2560h512v512h-512v-512zM1536 2560h512v512h-512v-512z" />
    <glyph glyph-name="uniE06" unicode="&#xe06;" horiz-adv-x="3584" 
d="M0 512h512v512h-512v-512zM0 2560h512v512h-512v-512zM512 0h1024v1024h512v512h-512v1536h-512v-512h-512v-512h512v-512h-512v-512h512v-512h-512v-512zM2560 0h512v3072h-512v-2048h-512v-512h512v-512z" />
    <glyph glyph-name="uniE07" unicode="&#xe07;" horiz-adv-x="2560" 
d="M0 512h512v1024h-512v-1024zM512 0h1536v3072h-1024v-512h512v-2048h-1024v-512z" />
    <glyph glyph-name="uniE08" unicode="&#xe08;" horiz-adv-x="2560" 
d="M1024 0h512v512h-512v-512zM512 512h512v1536h-1024v-512h512v-1024zM1536 512h512v2048h-512v-2048zM0 2560h1536v512h-1536v-512z" />
    <glyph glyph-name="uniE09" unicode="&#xe09;" horiz-adv-x="3584" 
d="M2048 0h512v512h-512v-512zM512 0h512v512h1024v512h-1024v512h-1024v-512h512v-1024zM0 2048h512v512h-512v-512zM2560 512h512v1024h-512v1024h-512v-1536h512v-512zM512 2560h1536v512h-1536v-512z" />
    <glyph glyph-name="uniE0A" unicode="&#xe0a;" 
d="M1024 0h1024v512h-1024v-512zM2048 512h512v1536h-512v-1536zM1536 2048h512v512h-512v-512zM512 512h512v2560h-1024v-512h512v-2048zM2048 2560h512v1024h-512v-1024z" />
    <glyph glyph-name="uniE0B" unicode="&#xe0b;" horiz-adv-x="3584" 
d="M1536 0h1024v512h-1024v-512zM2560 512h512v1536h-512v-1536zM2048 2048h512v512h-512v-512zM0 2560h512v512h-512v-512zM1024 512h512v2560h-512v-512h-512v-512h512v-1536zM2560 2560h512v1024h-512v-1024z" />
    <glyph glyph-name="uniE0C" unicode="&#xe0c;" horiz-adv-x="4096" 
d="M1024 512h512v512h-512v-512zM0 0h512v1536h-512v-1536zM512 1536h512v512h-512v-512zM0 2048h512v512h-512v-512zM512 2560h1536v512h-1536v-512zM1536 0h1024v512h512v-512h512v3072h-512v-2048h-512v1536h-512v-1024h-512v-512h512v-512h-512v-512z" />
    <glyph glyph-name="uniE0D" unicode="&#xe0d;" horiz-adv-x="4096" 
d="M2048 0h1024v512h-1024v-512zM0 0h1024v512h-512v1024h-512v-1536zM512 1536h512v512h-512v-512zM0 2048h512v512h-512v-512zM512 2560h1536v512h-1536v-512zM3072 512h512v2560h-512v-1536h-512v1024h-512v-1536h1024v-512z" />
    <glyph glyph-name="uniE0E" unicode="&#xe0e;" 
d="M512 -1024h1024v512h-1024v-512zM0 0h1024v2048h-512v-1536h-512v-512zM0 2048h512v512h-512v-512zM2048 -1024h512v3584h-512v-2560h-512v-512h512v-512zM512 2560h1536v512h-1536v-512z" />
    <glyph glyph-name="uniE0F" unicode="&#xe0f;" 
d="M0 -1024h1024v512h-1024v-512zM1024 -512h512v512h-512v-512zM0 0h1024v2048h-512v-1536h-512v-512zM0 2048h512v512h-512v-512zM1536 -1024h1024v3584h-512v-3072h-512v-512zM512 2560h1536v512h-1536v-512z" />
    <glyph glyph-name="uniE10" unicode="&#xe10;" horiz-adv-x="2560" 
d="M0 -1024h512v512h-512v-512zM1024 -1024h1024v512h-1024v-512zM512 -512h512v512h-512v-512zM1536 0h512v2048h-1536v512h-512v-1024h1536v-512h-1024v-512h1024v-512zM512 2560h1536v512h-1536v-512z" />
    <glyph glyph-name="uniE11" unicode="&#xe11;" horiz-adv-x="4096" 
d="M2048 2048h512v512h-512v-512zM3072 0h512v2560h-512v-2560zM0 2560h512v512h-512v-512zM1024 0h512v1536h512v512h-512v1024h-512v-512h-512v-512h512v-2048zM2560 2560h512v512h-512v-512z" />
    <glyph glyph-name="uniE12" unicode="&#xe12;" horiz-adv-x="4096" 
d="M1024 512h512v512h-512v-512zM0 0h512v2560h-512v-2560zM1024 2048h512v512h-512v-512zM512 2560h512v512h-512v-512zM1536 2560h512v512h-512v-512zM1536 0h1024v512h512v-512h512v3072h-512v-2048h-512v1536h-512v-1024h-512v-512h512v-512h-512v-512z" />
    <glyph glyph-name="uniE13" unicode="&#xe13;" horiz-adv-x="5120" 
d="M4096 512h512v512h-512v-512zM0 0h1024v512h-512v1024h-512v-1536zM512 1536h512v512h-512v-512zM0 2048h512v512h-512v-512zM512 2560h1536v512h-1536v-512zM2048 0h512v1024h512v-1024h1024v512h-512v512h512v2048h-512v-1536h-1024v1024h-512v-2560z" />
    <glyph glyph-name="uniE14" unicode="&#xe14;" 
d="M0 0h1024v512h-512v512h512v-512h512v1024h-1024v1024h-512v-2560zM2048 0h512v2560h-512v-2560zM512 2560h1536v512h-1536v-512z" />
    <glyph glyph-name="uniE15" unicode="&#xe15;" 
d="M0 0h1024v512h-512v512h512v-512h512v1024h-1024v1024h-512v-2560zM1024 2048h512v512h-512v-512zM2048 0h512v2560h-512v-2560zM512 2560h512v512h-512v-512zM1536 2560h512v512h-512v-512z" />
    <glyph glyph-name="uniE16" unicode="&#xe16;" 
d="M0 0h1024v512h-512v1024h-512v-1536zM512 1536h512v512h-512v-512zM0 2048h512v512h-512v-512zM2048 0h512v2560h-512v-2560zM512 2560h1536v512h-1536v-512z" />
    <glyph glyph-name="uniE17" unicode="&#xe17;" horiz-adv-x="3584" 
d="M1536 2048h512v512h-512v-512zM2560 0h512v2560h-512v-2560zM512 0h512v1536h512v512h-512v1024h-1024v-512h512v-2560zM2048 2560h512v512h-512v-512z" />
    <glyph glyph-name="uniE18" unicode="&#xe18;" 
d="M0 0h2560v2048h-2048v-512h1536v-1024h-1536v1024h-512v-1536zM0 2048h512v512h-512v-512zM512 2560h2048v512h-2048v-512z" />
    <glyph glyph-name="uniE19" unicode="&#xe19;" horiz-adv-x="4096" 
d="M3072 512h512v512h-512v-512zM512 0h512v512h512v512h-512v2048h-1024v-512h512v-2560zM2048 0h1024v512h-512v512h512v2048h-512v-1536h-1024v-512h512v-1024z" />
    <glyph glyph-name="uniE1A" unicode="&#xe1a;" 
d="M512 2048h512v1024h-1024v-512h512v-512zM0 0h2560v3072h-512v-2560h-1536v1536h-512v-2048z" />
    <glyph glyph-name="uniE1B" unicode="&#xe1b;" 
d="M512 2048h512v1024h-1024v-512h512v-512zM0 0h2560v4096h-512v-3584h-1536v1536h-512v-2048z" />
    <glyph glyph-name="uniE1C" unicode="&#xe1c;" 
d="M512 0h512v512h-512v-512zM1536 0h512v512h-512v-512zM1024 512h512v1024h-512v-1024zM0 512h512v2048h512v512h-1024v-2560zM2048 512h512v2560h-512v-2560z" />
    <glyph glyph-name="uniE1D" unicode="&#xe1d;" 
d="M512 0h512v512h-512v-512zM1536 0h512v512h-512v-512zM1024 512h512v1024h-512v-1024zM0 512h512v2048h512v512h-1024v-2560zM2048 512h512v3584h-512v-3584z" />
    <glyph glyph-name="uniE1E" unicode="&#xe1e;" 
d="M512 0h512v512h-512v-512zM1536 0h512v512h-512v-512zM1024 512h512v1024h-512v-1024zM0 512h512v1536h-512v-1536zM512 2048h512v1024h-1024v-512h512v-512zM2048 512h512v2560h-512v-2560z" />
    <glyph glyph-name="uniE1F" unicode="&#xe1f;" 
d="M512 0h512v512h-512v-512zM1536 0h512v512h-512v-512zM1024 512h512v1024h-512v-1024zM0 512h512v1536h-512v-1536zM512 2048h512v1024h-1024v-512h512v-512zM2048 512h512v3584h-512v-3584z" />
    <glyph glyph-name="uniE20" unicode="&#xe20;" 
d="M0 0h1024v2048h-512v-1536h-512v-512zM0 2048h512v512h-512v-512zM2048 0h512v2560h-512v-2560zM512 2560h1536v512h-1536v-512z" />
    <glyph glyph-name="uniE21" unicode="&#xe21;" horiz-adv-x="3584" 
d="M0 512h512v512h-512v-512zM512 0h1024v1024h512v512h-512v1536h-1024v-512h512v-1024h-512v-512h512v-512h-512v-512zM2560 0h512v3072h-512v-2048h-512v-512h512v-512z" />
    <glyph glyph-name="uniE22" unicode="&#xe22;" 
d="M0 512h512v1024h-512v-1024zM512 1536h1024v512h-1024v-512zM0 2048h512v512h-512v-512zM512 2560h1024v512h-1024v-512zM512 0h2048v3072h-512v-2560h-1536v-512z" />
    <glyph glyph-name="uniE23" unicode="&#xe23;" horiz-adv-x="2560" 
d="M512 0h1024v512h-1024v-512zM1536 512h512v1024h-512v-1024zM0 1536h1536v512h-1024v512h-512v-1024zM512 2560h1536v512h-1536v-512z" />
    <glyph glyph-name="uniE24" unicode="&#xe24;" 
d="M0 0h1024v512h-512v1024h-512v-1536zM512 1536h512v512h-512v-512zM0 2048h512v512h-512v-512zM2048 -1024h512v3584h-512v-3584zM512 2560h1536v512h-1536v-512z" />
    <glyph glyph-name="uniE25" unicode="&#xe25;" 
d="M0 0h1024v512h-512v512h-512v-1024zM0 2048h512v512h-512v-512zM2048 0h512v2560h-512v-1024h-1536v-512h1536v-1024zM512 2560h1536v512h-1536v-512z" />
    <glyph glyph-name="uniE26" unicode="&#xe26;" 
d="M0 0h1024v2048h-512v-1536h-512v-512zM0 2048h512v512h-512v-512zM2048 -1024h512v3584h-512v-3584zM512 2560h1536v512h-1536v-512z" />
    <glyph glyph-name="uniE27" unicode="&#xe27;" 
d="M1024 0h1024v512h-1024v-512zM0 2048h512v512h-512v-512zM2048 512h512v2048h-512v-2048zM512 2560h1536v512h-1536v-512z" />
    <glyph glyph-name="uniE28" unicode="&#xe28;" 
d="M0 0h512v1024h1024v512h-1024v1024h-512v-2560zM2048 0h512v2560h-512v-2560zM512 2560h1536v512h-1536v-512zM2048 3072h512v512h-512v-512z" />
    <glyph glyph-name="uniE29" unicode="&#xe29;" horiz-adv-x="3584" 
d="M512 2048h512v1024h-1024v-512h512v-512zM0 0h2560v1024h512v512h-512v1536h-512v-1536h-1024v-512h1024v-512h-1536v1536h-512v-2048z" />
    <glyph glyph-name="uniE2A" unicode="&#xe2a;" 
d="M0 0h1024v512h-512v512h-512v-1024zM0 2048h512v512h-512v-512zM2048 0h512v2560h-512v-1024h-1536v-512h1536v-1024zM512 2560h1536v512h-1536v-512zM2048 3072h512v512h-512v-512z" />
    <glyph glyph-name="uniE2B" unicode="&#xe2b;" horiz-adv-x="3584" 
d="M2560 0h512v1536h-512v-1536zM2560 2048h512v512h-512v-512zM512 0h512v1536h1536v512h-512v512h512v512h-1024v-1024h-512v1024h-1024v-512h512v-2560z" />
    <glyph glyph-name="uniE2C" unicode="&#xe2c;" 
d="M512 0h512v512h-512v-512zM1536 0h512v512h-512v-512zM1024 512h512v1024h-512v-1024zM0 512h512v1536h-512v-1536zM2048 512h512v1536h-512v-1536zM1536 2048h512v512h-512v-512zM512 2048h512v1024h-1024v-512h512v-512zM2048 2560h512v512h-512v-512z" />
    <glyph glyph-name="uniE2D" unicode="&#xe2d;" 
d="M512 0h1536v512h-1536v-512zM0 512h512v512h512v512h-1024v-1024zM0 2048h512v512h-512v-512zM2048 512h512v2048h-512v-2048zM512 2560h1536v512h-1536v-512z" />
    <glyph glyph-name="uniE2E" unicode="&#xe2e;" 
d="M512 0h1536v512h-1536v-512zM0 512h512v512h512v512h-1024v-1024zM0 2048h512v512h-512v-512zM2048 512h512v2048h-512v-2048zM512 2560h1536v512h-1536v-512zM2048 3072h512v512h-512v-512z" />
    <glyph glyph-name="uniE2F" unicode="&#xe2f;" horiz-adv-x="2560" 
d="M0 2048h512v512h-512v-512zM1536 0h512v2560h-512v-512h-1024v-512h1024v-1536z" />
    <glyph glyph-name="uniE30" unicode="&#xe30;" horiz-adv-x="2048" 
d="M0 0h1024v512h-512v512h-512v-1024zM1024 512h512v512h-512v-512zM0 1536h1024v512h-512v512h-512v-1024zM1024 2048h512v512h-512v-512z" />
    <glyph glyph-name="uniE31" unicode="&#xe31;" horiz-adv-x="0" 
d="M-3072 3584h512v1024h-1024v512h-512v-1024h1024v-512zM-2560 4608h512v512h-512v-512z" />
    <glyph glyph-name="uniE32" unicode="&#xe32;" horiz-adv-x="2560" 
d="M0 2048h512v512h-512v-512zM1536 0h512v2560h-512v-2560zM512 2560h1024v512h-1024v-512z" />
    <glyph glyph-name="uniE33" unicode="&#xe33;" horiz-adv-x="2560" 
d="M-1536 2048h512v512h-512v-512zM0 0h512v2560h-512v-2560zM-1024 2560h1024v512h-1024v-512zM-2560 3584h512v512h-512v-512zM-3072 4096h512v512h-512v-512zM-2048 4096h512v512h-512v-512zM-2560 4608h512v512h-512v-512z" />
    <glyph glyph-name="uniE34" unicode="&#xe34;" horiz-adv-x="0" 
d="M-6144 3584h2560v512h-2560v-512z" />
    <glyph glyph-name="uniE35" unicode="&#xe35;" horiz-adv-x="0" 
d="M-6144 3584h2560v1024h-512v-512h-2048v-512z" />
    <glyph glyph-name="uniE36" unicode="&#xe36;" horiz-adv-x="0" 
d="M-6144 3584h2560v1024h-1024v-512h-1536v-512z" />
    <glyph glyph-name="uniE37" unicode="&#xe37;" horiz-adv-x="0" 
d="M-6144 3584h2560v1024h-512v-512h-512v512h-512v-512h-1024v-512z" />
    <glyph glyph-name="uniE38" unicode="&#xe38;" horiz-adv-x="0" 
d="M-2560 -1536h512v1024h-1024v-512h512v-512z" />
    <glyph glyph-name="uniE39" unicode="&#xe39;" horiz-adv-x="0" 
d="M-4096 -1024h512v512h-512v-512zM-3584 -1536h1024v1024h-512v-512h-512v-512z" />
    <glyph glyph-name="uniE3A" unicode="&#xe3a;" horiz-adv-x="0" 
d="M-2048 -1024h512v512h-512v-512z" />
    <glyph glyph-name="uniE3F" unicode="&#xe3f;" 
d="M1024 512h-512v1536h512v-1536zM2048 512h512v1536h-512v-1536zM1024 2560h-512v512h512v-512zM2048 2560h512v512h-512v-512zM1024 -512h512v512h512v512h-512v1536h512v512h-512v512h512v512h-512v512h-512v-512h-1024v-3584h1024v-512z" />
    <glyph glyph-name="uniE40" unicode="&#xe40;" horiz-adv-x="1536" 
d="M512 0h512v512h-512v-512zM0 512h512v2560h-512v-2560z" />
    <glyph glyph-name="uniE41" unicode="&#xe41;" horiz-adv-x="2560" 
d="M512 0h512v512h-512v-512zM1536 0h512v512h-512v-512zM0 512h512v2560h-512v-2560zM1024 512h512v2560h-512v-2560z" />
    <glyph glyph-name="uniE42" unicode="&#xe42;" horiz-adv-x="2048" 
d="M0 0h512v512h-512v-512zM-512 512h512v2560h-512v-2560zM-1024 3072h512v512h-512v-512zM-512 3584h1536v512h-1536v-512z" />
    <glyph glyph-name="uniE43" unicode="&#xe43;" horiz-adv-x="2048" 
d="M512 0h512v512h-512v-512zM0 512h512v2048h-512v-2048zM-1024 3072h512v512h-512v-512zM512 2560h512v1024h-512v-1024zM-512 3584h1024v512h-1024v-512z" />
    <glyph glyph-name="uniE44" unicode="&#xe44;" horiz-adv-x="2048" 
d="M0 0h512v512h-512v-512zM-512 512h512v2048h-512v-2048zM-2048 3072h512v512h-512v-512zM-1024 3072h512v512h-512v-512zM0 2560h512v1024h-512v-1024zM-1536 3584h512v512h-512v-512zM-512 3584h512v512h-512v-512z" />
    <glyph glyph-name="uniE45" unicode="&#xe45;" horiz-adv-x="2560" 
d="M0 2048h512v512h-512v-512zM1536 -1024h512v3584h-512v-3584zM512 2560h1024v512h-1024v-512z" />
    <glyph glyph-name="uniE46" unicode="&#xe46;" horiz-adv-x="2560" 
d="M512 2048h512v512h-512v-512zM1536 -1024h512v3584h-512v-3584zM0 2560h512v512h-512v-512zM1024 2560h512v512h-512v-512z" />
    <glyph glyph-name="uniE47" unicode="&#xe47;" horiz-adv-x="0" 
d="M-3072 3584h512v512h-512v-512zM-4096 3584h512v512h512v512h-1024v-1024zM-3072 4608h512v512h-512v-512z" />
    <glyph glyph-name="uniE48" unicode="&#xe48;" horiz-adv-x="0" 
d="M-2048 3584h512v1024h-512v-1024z" />
    <glyph glyph-name="uniE49" unicode="&#xe49;" horiz-adv-x="0" 
d="M-4608 3584h1024v512h-512v512h-1024v-512h512v-512zM-3584 4096h512v512h-512v-512z" />
    <glyph glyph-name="uniE4A" unicode="&#xe4a;" horiz-adv-x="0" 
d="M-4096 3584h512v512h-512v-512zM-3072 3584h512v512h-512v-512zM-2048 3584h512v512h-512v-512zM-3584 4096h512v512h-512v-512zM-2560 4096h512v512h-512v-512z" />
    <glyph glyph-name="uniE4B" unicode="&#xe4b;" horiz-adv-x="0" 
d="M-3584 3584h512v512h512v512h-512v512h-512v-512h-512v-512h512v-512z" />
    <glyph glyph-name="uniE4C" unicode="&#xe4c;" horiz-adv-x="0" 
d="M-3072 3584h512v512h-512v-512zM-2560 4096h1024v512h-1024v-512z" />
    <glyph glyph-name="uniE4D" unicode="&#xe4d;" horiz-adv-x="0" 
d="M-2560 3584h512v512h-512v-512zM-3072 4096h512v512h-512v-512zM-2048 4096h512v512h-512v-512zM-2560 4608h512v512h-512v-512z" />
    <glyph glyph-name="uniE4F" unicode="&#xe4f;" horiz-adv-x="2048" 
d="M1024 1536h-512v512h512v-512zM0 1024h1536v1536h-1536v-1536z" />
    <glyph glyph-name="uniE50" unicode="&#xe50;" 
d="M512 0h1536v512h-1536v-512zM0 512h512v1536h-512v-1536zM2048 512h512v1536h-512v-1536zM512 2048h1536v512h-1536v-512z" />
    <glyph glyph-name="uniE51" unicode="&#xe51;" 
d="M512 0h1536v512h-1536v-512zM512 1024h1024v512h-1024v-512zM0 1536h512v512h-512v-512zM2048 512h512v1536h-512v-1536zM512 2048h1536v512h-1536v-512z" />
    <glyph glyph-name="uniE52" unicode="&#xe52;" 
d="M512 0h1536v512h-1536v-512zM1024 2048h512v512h-512v-512zM2048 512h512v2048h-512v-512h-512v-512h512v-1024zM0 512h512v2560h-512v-2560z" />
    <glyph glyph-name="uniE53" unicode="&#xe53;" 
d="M0 0h1024v512h-512v1536h-512v-2048zM1024 1536h512v512h-512v-512zM2048 0h512v2048h-512v-2048zM512 2048h512v512h-512v-512zM1536 2048h512v512h-512v-512z" />
    <glyph glyph-name="uniE54" unicode="&#xe54;" 
d="M512 0h512v512h-512v-512zM1536 0h1024v512h-1024v-512zM1024 512h512v512h512v512h-1024v-1024zM0 512h512v1536h-512v-1536zM512 2048h1536v512h-1536v-512zM2048 2560h512v512h-512v-512z" />
    <glyph glyph-name="uniE55" unicode="&#xe55;" 
d="M512 0h512v512h-512v-512zM1536 0h1024v512h-1024v-512zM1024 512h512v512h512v512h-1024v-1024zM0 512h512v1536h-512v-1536zM512 2048h1536v512h-512v512h-512v-512h-512v-512zM2048 2560h512v512h-512v-512z" />
    <glyph glyph-name="uniE56" unicode="&#xe56;" 
d="M512 0h1536v512h-1024v512h-512v-1024zM2048 512h512v1536h-512v-1536zM512 2048h1536v512h-1536v-512zM0 2560h512v512h-512v-512z" />
    <glyph glyph-name="uniE57" unicode="&#xe57;" horiz-adv-x="4096" 
d="M0 0h1024v512h-512v1536h-512v-2048zM1024 1536h512v512h-512v-512zM2048 0h1024v512h-512v1536h-512v-2048zM512 2048h512v512h-512v-512zM1536 2048h512v512h-512v-512zM3072 512h512v2048h-512v-2048z" />
    <glyph glyph-name="uniE58" unicode="&#xe58;" 
d="M512 0h512v512h-512v-512zM1024 512h512v512h-512v-512zM1536 0h1024v1024h-512v-512h-512v-512zM0 512h512v1536h-512v-1536zM512 2048h1536v512h-1536v-512zM2048 2560h512v512h-512v-512z" />
    <glyph glyph-name="uniE59" unicode="&#xe59;" 
d="M2048 0h512v512h-512v-512zM0 0h1024v512h-512v512h-512v-1024zM1536 512h512v512h-512v-512zM512 1024h1024v512h-1024v-512zM0 1536h512v512h-512v-512zM512 2048h1536v512h-1536v-512zM2048 2560h512v512h-512v-512z" />
    <glyph glyph-name="uniE5A" unicode="&#xe5a;" 
d="M0 2048h512v512h-512v-512zM1024 0h512v2560h-512v-512h-512v-512h512v-1536zM2048 0h512v2560h-512v-2560z" />
    <glyph glyph-name="uniE5B" unicode="&#xe5b;" horiz-adv-x="3584" 
d="M512 1024h512v512h-512v-512zM1536 1024h512v512h-512v-512zM1024 1536h512v512h-512v-512zM2048 1536h1024v512h-1024v-512zM0 1536h512v1024h-512v-1024zM512 2560h512v512h-512v-512z" />
    <glyph glyph-name="uni1E04" unicode="&#x1e04;" 
d="M1024 -1024h512v512h-512v-512zM2048 512h512v1536h-512v-1536zM2048 2560h512v512h-512v-512zM0 0h2048v512h-1536v1536h1536v512h-1536v512h1536v512h-2048v-3584z" />
    <glyph glyph-name="uni1E05" unicode="&#x1e05;" 
d="M1024 -1024h512v512h-512v-512zM2048 512h512v1536h-512v-1536zM1024 2048h1024v512h-1024v-512zM0 0h2048v512h-1536v1024h512v512h-512v1536h-512v-3584z" />
    <glyph glyph-name="uni1E06" unicode="&#x1e06;" 
d="M512 -1024h1536v512h-1536v-512zM2048 512h512v1536h-512v-1536zM2048 2560h512v512h-512v-512zM0 0h2048v512h-1536v1536h1536v512h-1536v512h1536v512h-2048v-3584z" />
    <glyph glyph-name="uni1E07" unicode="&#x1e07;" 
d="M512 -1024h1536v512h-1536v-512zM2048 512h512v1536h-512v-1536zM1024 2048h1024v512h-1024v-512zM0 0h2048v512h-1536v1024h512v512h-512v1536h-512v-3584z" />
    <glyph glyph-name="uni1E0C" unicode="&#x1e0c;" 
d="M1024 -1024h512v512h-512v-512zM2048 512h512v2560h-512v-2560zM0 0h2048v512h-1536v2560h1536v512h-2048v-3584z" />
    <glyph glyph-name="uni1E0D" unicode="&#x1e0d;" 
d="M1024 -1024h512v512h-512v-512zM0 512h512v1536h-512v-1536zM512 2048h1024v512h-1024v-512zM512 0h2048v3584h-512v-1536h-512v-512h512v-1024h-1536v-512z" />
    <glyph glyph-name="uni1E0E" unicode="&#x1e0e;" 
d="M512 -1024h1536v512h-1536v-512zM2048 512h512v2560h-512v-2560zM0 0h2048v512h-1536v2560h1536v512h-2048v-3584z" />
    <glyph glyph-name="uni1E0F" unicode="&#x1e0f;" 
d="M512 -1024h1536v512h-1536v-512zM0 512h512v1536h-512v-1536zM512 2048h1024v512h-1024v-512zM512 0h2048v3584h-512v-1536h-512v-512h512v-1024h-1536v-512z" />
    <glyph glyph-name="uni1E10" unicode="&#x1e10;" 
d="M1024 -1024h1024v512h-1024v-512zM2048 -512h512v512h-512v-512zM2048 512h512v2560h-512v-2560zM0 0h2048v512h-1536v2560h1536v512h-2048v-3584z" />
    <glyph glyph-name="uni1E11" unicode="&#x1e11;" 
d="M0 512h512v1536h-512v-1536zM512 2048h1024v512h-1024v-512zM512 -1024h1024v1024h1024v3584h-512v-1536h-512v-512h512v-1024h-1536v-512h512v-512h-512v-512z" />
    <glyph glyph-name="uni1E12" unicode="&#x1e12;" 
d="M512 -1024h512v512h-512v-512zM1536 -1024h512v512h-512v-512zM2048 512h512v2560h-512v-2560zM1024 -512h512v512h512v512h-1536v2560h1536v512h-2048v-3584h1024v-512z" />
    <glyph glyph-name="uni1E13" unicode="&#x1e13;" 
d="M512 -1024h512v512h-512v-512zM1536 -1024h512v512h-512v-512zM0 512h512v1536h-512v-1536zM512 2048h1024v512h-1024v-512zM1024 -512h512v512h1024v3584h-512v-1536h-512v-512h512v-1024h-1536v-512h512v-512z" />
    <glyph glyph-name="uni1E16" unicode="&#x1e16;" 
d="M0 0h2560v512h-2048v512h1024v512h-1024v512h2048v512h-2560v-2560zM512 3072h1536v512h-1536v-512zM1024 4096h512v512h-512v-512zM1536 4608h512v512h-512v-512z" />
    <glyph glyph-name="uni1E17" unicode="&#x1e17;" 
d="M512 0h2048v512h-2048v-512zM0 512h512v512h2048v1024h-512v-512h-1536v512h-512v-1536zM512 2048h1536v512h-1536v-512zM512 3072h1536v512h-1536v-512zM1024 4096h512v512h-512v-512zM1536 4608h512v512h-512v-512z" />
    <glyph glyph-name="uni1E20" unicode="&#x1e20;" 
d="M512 0h1536v512h-1536v-512zM2048 512h512v2048h-1024v-512h512v-1536zM0 512h512v2560h-512v-2560zM512 3072h2048v512h-2048v-512zM512 4096h1536v512h-1536v-512z" />
    <glyph glyph-name="uni1E21" unicode="&#x1e21;" 
d="M0 -512h2048v512h-2048v-512zM0 1024h512v1024h-512v-1024zM2048 0h512v2560h-2048v-512h1536v-1024h-1536v-512h1536v-512zM512 3072h1536v512h-1536v-512z" />
    <glyph glyph-name="uni1E24" unicode="&#x1e24;" 
d="M1024 -1024h512v512h-512v-512zM0 0h512v2048h1536v-2048h512v3584h-512v-1024h-1536v1024h-512v-3584z" />
    <glyph glyph-name="uni1E25" unicode="&#x1e25;" 
d="M1024 -1024h512v512h-512v-512zM2048 0h512v2048h-512v-2048zM1024 2048h1024v512h-1024v-512zM0 0h512v1536h512v512h-512v1536h-512v-3584z" />
    <glyph glyph-name="uni1E26" unicode="&#x1e26;" 
d="M0 0h512v2048h1536v-2048h512v3584h-512v-1024h-1536v1024h-512v-3584zM512 4096h512v512h-512v-512zM1536 4096h512v512h-512v-512z" />
    <glyph glyph-name="uni1E27" unicode="&#x1e27;" 
d="M2048 0h512v2048h-512v-2048zM1024 2048h1024v512h-1024v-512zM0 0h512v1536h512v512h-512v1536h-512v-3584zM512 4096h512v512h-512v-512zM1536 4096h512v512h-512v-512z" />
    <glyph glyph-name="uni1E28" unicode="&#x1e28;" 
d="M0 -1024h1024v1024h-512v-512h-512v-512zM0 0h512v2048h1536v-2048h512v3584h-512v-1024h-1536v1024h-512v-3584z" />
    <glyph glyph-name="uni1E29" unicode="&#x1e29;" 
d="M0 -1024h1024v1024h-512v-512h-512v-512zM2048 0h512v2048h-512v-2048zM1024 2048h1024v512h-1024v-512zM0 0h512v1536h512v512h-512v1536h-512v-3584z" />
    <glyph glyph-name="uni1E2A" unicode="&#x1e2a;" 
d="M512 -1024h1536v1024h-512v-512h-512v512h-512v-1024zM0 0h512v2048h1536v-2048h512v3584h-512v-1024h-1536v1024h-512v-3584z" />
    <glyph glyph-name="uni1E2B" unicode="&#x1e2b;" 
d="M512 -1024h1536v1024h-512v-512h-512v512h-512v-1024zM2048 0h512v2048h-512v-2048zM1024 2048h1024v512h-1024v-512zM0 0h512v1536h512v512h-512v1536h-512v-3584z" />
    <glyph glyph-name="uni1E2E" unicode="&#x1e2e;" horiz-adv-x="2048" 
d="M0 0h1536v512h-512v1536h512v512h-1536v-512h512v-1536h-512v-512zM0 3072h512v512h-512v-512zM1024 3072h512v512h-512v-512zM512 4096h512v512h-512v-512zM1024 4608h512v512h-512v-512z" />
    <glyph glyph-name="uni1E2F" unicode="&#x1e2f;" horiz-adv-x="2048" 
d="M512 0h512v2560h-512v-2560zM0 3072h512v512h-512v-512zM1024 3072h512v512h-512v-512zM512 4096h512v512h-512v-512zM1024 4608h512v512h-512v-512z" />
    <glyph glyph-name="uni1E30" unicode="&#x1e30;" 
d="M2048 0h512v1536h-512v-1536zM1536 1536h512v512h-512v-512zM1536 2560h512v512h-512v-512zM0 0h512v2048h1024v512h-1024v1024h-512v-3584zM2048 3072h512v512h-512v-512zM1024 4096h512v512h-512v-512zM1536 4608h512v512h-512v-512z" />
    <glyph glyph-name="uni1E31" unicode="&#x1e31;" horiz-adv-x="2560" 
d="M1536 0h512v512h-512v-512zM1024 512h512v512h-512v-512zM1024 1536h512v512h-512v-512zM1536 2048h512v512h-512v-512zM0 0h512v1024h512v512h-512v2048h-512v-3584zM512 4096h512v512h-512v-512zM1024 4608h512v512h-512v-512z" />
    <glyph glyph-name="uni1E32" unicode="&#x1e32;" 
d="M1024 -1024h512v512h-512v-512zM2048 0h512v1536h-512v-1536zM1536 1536h512v512h-512v-512zM1536 2560h512v512h-512v-512zM0 0h512v2048h1024v512h-1024v1024h-512v-3584zM2048 3072h512v512h-512v-512z" />
    <glyph glyph-name="uni1E33" unicode="&#x1e33;" horiz-adv-x="2560" 
d="M1024 -1024h512v512h-512v-512zM1536 0h512v512h-512v-512zM1024 512h512v512h-512v-512zM1024 1536h512v512h-512v-512zM1536 2048h512v512h-512v-512zM0 0h512v1024h512v512h-512v2048h-512v-3584z" />
    <glyph glyph-name="uni1E34" unicode="&#x1e34;" 
d="M512 -1024h1536v512h-1536v-512zM2048 0h512v1536h-512v-1536zM1536 1536h512v512h-512v-512zM1536 2560h512v512h-512v-512zM0 0h512v2048h1024v512h-1024v1024h-512v-3584zM2048 3072h512v512h-512v-512z" />
    <glyph glyph-name="uni1E35" unicode="&#x1e35;" horiz-adv-x="2560" 
d="M512 -1024h1536v512h-1536v-512zM1536 0h512v512h-512v-512zM1024 512h512v512h-512v-512zM1024 1536h512v512h-512v-512zM1536 2048h512v512h-512v-512zM0 0h512v1024h512v512h-512v2048h-512v-3584z" />
    <glyph glyph-name="uni1E36" unicode="&#x1e36;" 
d="M1024 -1024h512v512h-512v-512zM0 0h2560v512h-2048v3072h-512v-3584z" />
    <glyph glyph-name="uni1E37" unicode="&#x1e37;" horiz-adv-x="1536" 
d="M0 -1024h512v512h-512v-512zM512 0h512v512h-512v-512zM0 512h512v3072h-512v-3072z" />
    <glyph glyph-name="uni1E38" unicode="&#x1e38;" 
d="M1024 -1024h512v512h-512v-512zM0 0h2560v512h-2048v3072h-512v-3584zM512 4096h1536v512h-1536v-512z" />
    <glyph glyph-name="uni1E39" unicode="&#x1e39;" horiz-adv-x="2048" 
d="M512 -1024h512v512h-512v-512zM1024 0h512v512h-512v-512zM512 512h512v3072h-512v-3072zM0 4096h1536v512h-1536v-512z" />
    <glyph glyph-name="uni1E3A" unicode="&#x1e3a;" 
d="M512 -1024h1536v512h-1536v-512zM0 0h2560v512h-2048v3072h-512v-3584z" />
    <glyph glyph-name="uni1E3B" unicode="&#x1e3b;" horiz-adv-x="2048" 
d="M0 -1024h1536v512h-1536v-512zM1024 0h512v512h-512v-512zM512 512h512v3072h-512v-3072z" />
    <glyph glyph-name="uni1E3C" unicode="&#x1e3c;" 
d="M512 -1024h512v512h-512v-512zM1536 -1024h512v512h-512v-512zM1024 -512h512v512h1024v512h-2048v3072h-512v-3584h1024v-512z" />
    <glyph glyph-name="uni1E3D" unicode="&#x1e3d;" horiz-adv-x="2048" 
d="M0 -1024h512v512h-512v-512zM1024 -1024h512v512h-512v-512zM512 -512h512v512h-512v-512zM1024 0h512v512h-512v-512zM512 512h512v3072h-512v-3072z" />
    <glyph glyph-name="uni1E3E" unicode="&#x1e3e;" 
d="M1024 2048h512v512h-512v-512zM0 0h512v2560h512v512h-512v512h-512v-3584zM2048 0h512v3584h-512v-512h-512v-512h512v-2560zM1024 4096h512v512h-512v-512zM1536 4608h512v512h-512v-512z" />
    <glyph glyph-name="uni1E3F" unicode="&#x1e3f;" 
d="M1024 1024h512v1024h-512v-1024zM2048 0h512v2048h-512v-2048zM0 0h512v2048h512v512h-1024v-2560zM1536 2048h512v512h-512v-512zM1024 3072h512v512h-512v-512zM1536 3584h512v512h-512v-512z" />
    <glyph glyph-name="uni1E40" unicode="&#x1e40;" 
d="M1024 2048h512v512h-512v-512zM0 0h512v2560h512v512h-512v512h-512v-3584zM2048 0h512v3584h-512v-512h-512v-512h512v-2560zM1024 4096h512v512h-512v-512z" />
    <glyph glyph-name="uni1E41" unicode="&#x1e41;" 
d="M1024 1024h512v1024h-512v-1024zM2048 0h512v2048h-512v-2048zM0 0h512v2048h512v512h-1024v-2560zM1536 2048h512v512h-512v-512zM1024 3072h512v512h-512v-512z" />
    <glyph glyph-name="uni1E42" unicode="&#x1e42;" 
d="M1024 -1024h512v512h-512v-512zM1024 2048h512v512h-512v-512zM0 0h512v2560h512v512h-512v512h-512v-3584zM2048 0h512v3584h-512v-512h-512v-512h512v-2560z" />
    <glyph glyph-name="uni1E43" unicode="&#x1e43;" 
d="M1024 -1024h512v512h-512v-512zM1024 1024h512v1024h-512v-1024zM2048 0h512v2048h-512v-2048zM0 0h512v2048h512v512h-1024v-2560zM1536 2048h512v512h-512v-512z" />
    <glyph glyph-name="uni1E44" unicode="&#x1e44;" 
d="M1024 2048h512v512h-512v-512zM0 0h512v2560h512v512h-512v512h-512v-3584zM2048 0h512v3584h-512v-1536h-512v-512h512v-1536zM1024 4096h512v512h-512v-512z" />
    <glyph glyph-name="uni1E45" unicode="&#x1e45;" 
d="M2048 0h512v2048h-512v-2048zM0 0h512v2048h1536v512h-2048v-2560zM1024 3072h512v512h-512v-512z" />
    <glyph glyph-name="uni1E46" unicode="&#x1e46;" 
d="M1024 -1024h512v512h-512v-512zM1024 2048h512v512h-512v-512zM0 0h512v2560h512v512h-512v512h-512v-3584zM2048 0h512v3584h-512v-1536h-512v-512h512v-1536z" />
    <glyph glyph-name="uni1E47" unicode="&#x1e47;" 
d="M1024 -1024h512v512h-512v-512zM2048 0h512v2048h-512v-2048zM0 0h512v2048h1536v512h-2048v-2560z" />
    <glyph glyph-name="uni1E48" unicode="&#x1e48;" 
d="M512 -1024h1536v512h-1536v-512zM1024 2048h512v512h-512v-512zM0 0h512v2560h512v512h-512v512h-512v-3584zM2048 0h512v3584h-512v-1536h-512v-512h512v-1536z" />
    <glyph glyph-name="uni1E49" unicode="&#x1e49;" 
d="M512 -1024h1536v512h-1536v-512zM2048 0h512v2048h-512v-2048zM0 0h512v2048h1536v512h-2048v-2560z" />
    <glyph glyph-name="uni1E4A" unicode="&#x1e4a;" 
d="M512 -1024h512v512h-512v-512zM1536 -1024h512v512h-512v-512zM1024 -512h512v512h-512v-512zM1024 2048h512v512h-512v-512zM0 0h512v2560h512v512h-512v512h-512v-3584zM2048 0h512v3584h-512v-1536h-512v-512h512v-1536z" />
    <glyph glyph-name="uni1E4B" unicode="&#x1e4b;" 
d="M512 -1024h512v512h-512v-512zM1536 -1024h512v512h-512v-512zM1024 -512h512v512h-512v-512zM2048 0h512v2048h-512v-2048zM0 0h512v2048h1536v512h-2048v-2560z" />
    <glyph glyph-name="uni1E4C" unicode="&#x1e4c;" 
d="M512 0h1536v512h-1536v-512zM0 512h512v2048h-512v-2048zM2048 512h512v2048h-512v-2048zM512 2560h1536v1024h-512v-512h-512v512h-512v-1024zM2048 3584h512v512h-512v-512zM1024 3584h512v1024h-512v-1024zM1536 4608h512v512h-512v-512z" />
    <glyph glyph-name="uni1E4D" unicode="&#x1e4d;" 
d="M512 0h1536v512h-1536v-512zM0 512h512v1536h-512v-1536zM2048 512h512v1536h-512v-1536zM512 2048h1536v1024h-512v-512h-512v512h-512v-1024zM1024 3072h512v512h-512v-512zM2048 3072h512v512h-512v-512zM1024 4096h512v512h-512v-512zM1536 4608h512v512h-512v-512z
" />
    <glyph glyph-name="uni1E4E" unicode="&#x1e4e;" 
d="M512 0h1536v512h-1536v-512zM0 512h512v2048h-512v-2048zM2048 512h512v2048h-512v-2048zM512 2560h1536v1024h-512v-512h-512v512h-512v-1024zM1024 3584h512v512h-512v-512zM2048 3584h512v512h-512v-512zM512 4608h512v512h-512v-512zM1536 4608h512v512h-512v-512z
" />
    <glyph glyph-name="uni1E4F" unicode="&#x1e4f;" 
d="M512 0h1536v512h-1536v-512zM0 512h512v1536h-512v-1536zM2048 512h512v1536h-512v-1536zM512 2048h1536v512h-1536v-512zM512 3072h512v512h-512v-512zM1536 3072h512v512h-512v-512zM1024 3584h512v512h-512v-512zM2048 3584h512v512h-512v-512zM512 4608h512v512h-512
v-512zM1536 4608h512v512h-512v-512z" />
    <glyph glyph-name="uni1E52" unicode="&#x1e52;" 
d="M512 0h1536v512h-1536v-512zM0 512h512v1536h-512v-1536zM2048 512h512v1536h-512v-1536zM512 2048h1536v512h-1536v-512zM512 3072h1536v512h-1536v-512zM1024 4096h512v512h-512v-512zM1536 4608h512v512h-512v-512z" />
    <glyph glyph-name="uni1E53" unicode="&#x1e53;" 
d="M512 0h1536v512h-1536v-512zM0 512h512v1536h-512v-1536zM2048 512h512v1536h-512v-1536zM512 2048h1536v512h-1536v-512zM512 3072h1536v512h-1536v-512zM1024 4096h512v512h-512v-512zM1536 4608h512v512h-512v-512z" />
    <glyph glyph-name="uni1E54" unicode="&#x1e54;" 
d="M2048 2560h512v512h-512v-512zM0 0h512v2048h1536v512h-1536v512h1536v512h-2048v-3584zM1024 4096h512v512h-512v-512zM1536 4608h512v512h-512v-512z" />
    <glyph glyph-name="uni1E55" unicode="&#x1e55;" 
d="M2048 1024h512v1024h-512v-1024zM0 -512h512v1024h1536v512h-1536v512h512v512h-512v512h-512v-3072zM1024 2048h1024v512h-1024v-512zM1024 3072h512v512h-512v-512zM1536 3584h512v512h-512v-512z" />
    <glyph glyph-name="uni1E56" unicode="&#x1e56;" 
d="M2048 2560h512v512h-512v-512zM0 0h512v2048h1536v512h-1536v512h1536v512h-2048v-3584zM1024 4096h512v512h-512v-512z" />
    <glyph glyph-name="uni1E57" unicode="&#x1e57;" 
d="M2048 1024h512v1024h-512v-1024zM0 -512h512v1024h1536v512h-1536v512h512v512h-512v512h-512v-3072zM1024 2048h1024v512h-1024v-512zM1024 3072h512v512h-512v-512z" />
    <glyph glyph-name="uni1E58" unicode="&#x1e58;" 
d="M2048 0h512v2048h-512v-2048zM2048 2560h512v512h-512v-512zM0 0h512v2048h1536v512h-1536v512h1536v512h-2048v-3584zM1024 4096h512v512h-512v-512z" />
    </font>
</defs>
</svg>
